%TF.GenerationSoftware,KiCad,Pcbnew,10.0.6*%
%TF.CreationDate,2026-10-03T20:53:01-05:00*%
%TF.ProjectId,deck,6465636b-2e6b-4696-9361-645f70636258,rev?*%
%TF.SameCoordinates,Original*%
%TF.FileFunction,Legend,Top*%
%TF.FilePolarity,Positive*%
%FSLAX46Y46*%
G04 Gerber Fmt 4.6, Leading zero omitted, Abs format (unit mm)*
G04 Created by KiCad (PCBNEW 10.0.6) date 2026-10-03 20:53:01*
%MOMM*%
%LPD*%
G01*
G04 APERTURE LIST*
%ADD10C,0.120000*%
%ADD11C,2.000000*%
%ADD12C,3.200000*%
%ADD13R,1.700000X1.700000*%
%ADD14C,1.700000*%
%ADD15R,2.000000X2.000000*%
%ADD16R,3.200000X2.000000*%
%ADD17R,1.750000X1.750000*%
%ADD18C,1.750000*%
%ADD19C,2.700000*%
G04 APERTURE END LIST*
%TO.C,SW9*%
D10*
X122500000Y-58250000D02*
X122500000Y-59750000D01*
X123750000Y-62250000D02*
X128250000Y-62250000D01*
X128250000Y-55750000D02*
X123750000Y-55750000D01*
X129500000Y-59750000D02*
X129500000Y-58250000D01*
%TO.C,SW50*%
X299000000Y-98750000D02*
X299000000Y-100250000D01*
X300250000Y-102750000D02*
X304750000Y-102750000D01*
X304750000Y-96250000D02*
X300250000Y-96250000D01*
X306000000Y-100250000D02*
X306000000Y-98750000D01*
%TO.C,SW55*%
X299000000Y-142750000D02*
X299000000Y-144250000D01*
X300250000Y-146750000D02*
X304750000Y-146750000D01*
X304750000Y-140250000D02*
X300250000Y-140250000D01*
X306000000Y-144250000D02*
X306000000Y-142750000D01*
%TO.C,SW19*%
X237000000Y-53750000D02*
X237000000Y-55250000D01*
X238250000Y-57750000D02*
X242750000Y-57750000D01*
X242750000Y-51250000D02*
X238250000Y-51250000D01*
X244000000Y-55250000D02*
X244000000Y-53750000D01*
%TO.C,SW37*%
X95500000Y-117750000D02*
X95500000Y-119250000D01*
X96750000Y-121750000D02*
X101250000Y-121750000D01*
X101250000Y-115250000D02*
X96750000Y-115250000D01*
X102500000Y-119250000D02*
X102500000Y-117750000D01*
%TO.C,SW4*%
X78000000Y-50750000D02*
X78000000Y-52250000D01*
X79250000Y-54750000D02*
X83750000Y-54750000D01*
X83750000Y-48250000D02*
X79250000Y-48250000D01*
X85000000Y-52250000D02*
X85000000Y-50750000D01*
%TO.C,SW40*%
X125500000Y-131250000D02*
X125500000Y-132750000D01*
X126750000Y-135250000D02*
X131250000Y-135250000D01*
X131250000Y-128750000D02*
X126750000Y-128750000D01*
X132500000Y-132750000D02*
X132500000Y-131250000D01*
%TO.C,FSR3*%
X96350000Y-223380000D02*
X96350000Y-222000000D01*
X97730000Y-223380000D02*
X96350000Y-223380000D01*
X99000000Y-220620000D02*
X101650000Y-220620000D01*
X99000000Y-223380000D02*
X99000000Y-220620000D01*
X99000000Y-223380000D02*
X101650000Y-223380000D01*
X101650000Y-223380000D02*
X101650000Y-220620000D01*
%TO.C,SW39*%
X125500000Y-117750000D02*
X125500000Y-119250000D01*
X126750000Y-121750000D02*
X131250000Y-121750000D01*
X131250000Y-115250000D02*
X126750000Y-115250000D01*
X132500000Y-119250000D02*
X132500000Y-117750000D01*
%TO.C,ENC4*%
X61200000Y-98900000D02*
X61800000Y-98900000D01*
X61500000Y-99200000D02*
X61200000Y-98900000D01*
X61800000Y-98900000D02*
X61500000Y-99200000D01*
X62900000Y-97100000D02*
X62900000Y-108900000D01*
X67000000Y-97100000D02*
X62900000Y-97100000D01*
X67000000Y-108900000D02*
X62900000Y-108900000D01*
X68500000Y-103000000D02*
X69500000Y-103000000D01*
X69000000Y-102500000D02*
X69000000Y-103500000D01*
X71000000Y-97100000D02*
X75100000Y-97100000D01*
X75100000Y-97100000D02*
X75100000Y-99500000D01*
X75100000Y-101700000D02*
X75100000Y-104300000D01*
X75100000Y-106500000D02*
X75100000Y-108900000D01*
X75100000Y-108900000D02*
X71000000Y-108900000D01*
X72000000Y-103000000D02*
G75*
G02*
X66000000Y-103000000I-3000000J0D01*
G01*
X66000000Y-103000000D02*
G75*
G02*
X72000000Y-103000000I3000000J0D01*
G01*
%TO.C,SW23*%
X241000000Y-72750000D02*
X241000000Y-74250000D01*
X242250000Y-76750000D02*
X246750000Y-76750000D01*
X246750000Y-70250000D02*
X242250000Y-70250000D01*
X248000000Y-74250000D02*
X248000000Y-72750000D01*
%TO.C,FSR10*%
X66350000Y-255380000D02*
X66350000Y-254000000D01*
X67730000Y-255380000D02*
X66350000Y-255380000D01*
X69000000Y-252620000D02*
X71650000Y-252620000D01*
X69000000Y-255380000D02*
X69000000Y-252620000D01*
X69000000Y-255380000D02*
X71650000Y-255380000D01*
X71650000Y-255380000D02*
X71650000Y-252620000D01*
%TO.C,SW28*%
X304250000Y-50750000D02*
X304250000Y-52250000D01*
X305500000Y-54750000D02*
X310000000Y-54750000D01*
X310000000Y-48250000D02*
X305500000Y-48250000D01*
X311250000Y-52250000D02*
X311250000Y-50750000D01*
%TO.C,SW53*%
X299000000Y-131750000D02*
X299000000Y-133250000D01*
X300250000Y-135750000D02*
X304750000Y-135750000D01*
X304750000Y-129250000D02*
X300250000Y-129250000D01*
X306000000Y-133250000D02*
X306000000Y-131750000D01*
%TO.C,RV1*%
X34380000Y-136880000D02*
X36460000Y-136880000D01*
X34380000Y-141504000D02*
X34380000Y-136880000D01*
X34380000Y-189304000D02*
X34380000Y-144696000D01*
X34380000Y-197120000D02*
X34380000Y-192496000D01*
X36075000Y-197120000D02*
X34380000Y-197120000D01*
X36750000Y-197925000D02*
X37750000Y-197925000D01*
X37250000Y-197425000D02*
X36750000Y-197925000D01*
X37500000Y-144500000D02*
X40500000Y-144500000D01*
X37500000Y-189500000D02*
X40500000Y-189500000D01*
X37750000Y-197925000D02*
X37250000Y-197425000D01*
X38040000Y-136880000D02*
X43620000Y-136880000D01*
X38250000Y-145250000D02*
X39000000Y-144500000D01*
X38250000Y-188750000D02*
X39000000Y-189500000D01*
X39000000Y-144500000D02*
X39750000Y-145250000D01*
X39000000Y-189500000D02*
X39000000Y-144500000D01*
X39000000Y-189500000D02*
X39750000Y-188750000D01*
X39960000Y-197120000D02*
X38425000Y-197120000D01*
X43620000Y-136880000D02*
X43620000Y-140304000D01*
X43620000Y-143496000D02*
X43620000Y-190504000D01*
X43620000Y-193696000D02*
X43620000Y-197120000D01*
X43620000Y-197120000D02*
X41540000Y-197120000D01*
%TO.C,FSR15*%
X216350000Y-255380000D02*
X216350000Y-254000000D01*
X217730000Y-255380000D02*
X216350000Y-255380000D01*
X219000000Y-252620000D02*
X221650000Y-252620000D01*
X219000000Y-255380000D02*
X219000000Y-252620000D01*
X219000000Y-255380000D02*
X221650000Y-255380000D01*
X221650000Y-255380000D02*
X221650000Y-252620000D01*
%TO.C,SW38*%
X95500000Y-131250000D02*
X95500000Y-132750000D01*
X96750000Y-135250000D02*
X101250000Y-135250000D01*
X101250000Y-128750000D02*
X96750000Y-128750000D01*
X102500000Y-132750000D02*
X102500000Y-131250000D01*
%TO.C,SW30*%
X277250000Y-67750000D02*
X277250000Y-69250000D01*
X278500000Y-71750000D02*
X283000000Y-71750000D01*
X283000000Y-65250000D02*
X278500000Y-65250000D01*
X284250000Y-69250000D02*
X284250000Y-67750000D01*
%TO.C,ENC9*%
X211200000Y-98900000D02*
X211800000Y-98900000D01*
X211500000Y-99200000D02*
X211200000Y-98900000D01*
X211800000Y-98900000D02*
X211500000Y-99200000D01*
X212900000Y-97100000D02*
X212900000Y-108900000D01*
X217000000Y-97100000D02*
X212900000Y-97100000D01*
X217000000Y-108900000D02*
X212900000Y-108900000D01*
X218500000Y-103000000D02*
X219500000Y-103000000D01*
X219000000Y-102500000D02*
X219000000Y-103500000D01*
X221000000Y-97100000D02*
X225100000Y-97100000D01*
X225100000Y-97100000D02*
X225100000Y-99500000D01*
X225100000Y-101700000D02*
X225100000Y-104300000D01*
X225100000Y-106500000D02*
X225100000Y-108900000D01*
X225100000Y-108900000D02*
X221000000Y-108900000D01*
X222000000Y-103000000D02*
G75*
G02*
X216000000Y-103000000I-3000000J0D01*
G01*
X216000000Y-103000000D02*
G75*
G02*
X222000000Y-103000000I3000000J0D01*
G01*
%TO.C,SW12*%
X122500000Y-72250000D02*
X122500000Y-73750000D01*
X123750000Y-76250000D02*
X128250000Y-76250000D01*
X128250000Y-69750000D02*
X123750000Y-69750000D01*
X129500000Y-73750000D02*
X129500000Y-72250000D01*
%TO.C,ENC10*%
X241200000Y-98900000D02*
X241800000Y-98900000D01*
X241500000Y-99200000D02*
X241200000Y-98900000D01*
X241800000Y-98900000D02*
X241500000Y-99200000D01*
X242900000Y-97100000D02*
X242900000Y-108900000D01*
X247000000Y-97100000D02*
X242900000Y-97100000D01*
X247000000Y-108900000D02*
X242900000Y-108900000D01*
X248500000Y-103000000D02*
X249500000Y-103000000D01*
X249000000Y-102500000D02*
X249000000Y-103500000D01*
X251000000Y-97100000D02*
X255100000Y-97100000D01*
X255100000Y-97100000D02*
X255100000Y-99500000D01*
X255100000Y-101700000D02*
X255100000Y-104300000D01*
X255100000Y-106500000D02*
X255100000Y-108900000D01*
X255100000Y-108900000D02*
X251000000Y-108900000D01*
X252000000Y-103000000D02*
G75*
G02*
X246000000Y-103000000I-3000000J0D01*
G01*
X246000000Y-103000000D02*
G75*
G02*
X252000000Y-103000000I3000000J0D01*
G01*
%TO.C,SW22*%
X227500000Y-72750000D02*
X227500000Y-74250000D01*
X228750000Y-76750000D02*
X233250000Y-76750000D01*
X233250000Y-70250000D02*
X228750000Y-70250000D01*
X234500000Y-74250000D02*
X234500000Y-72750000D01*
%TO.C,FSR12*%
X126350000Y-255380000D02*
X126350000Y-254000000D01*
X127730000Y-255380000D02*
X126350000Y-255380000D01*
X129000000Y-252620000D02*
X131650000Y-252620000D01*
X129000000Y-255380000D02*
X129000000Y-252620000D01*
X129000000Y-255380000D02*
X131650000Y-255380000D01*
X131650000Y-255380000D02*
X131650000Y-252620000D01*
%TO.C,FSR5*%
X156350000Y-223380000D02*
X156350000Y-222000000D01*
X157730000Y-223380000D02*
X156350000Y-223380000D01*
X159000000Y-220620000D02*
X161650000Y-220620000D01*
X159000000Y-223380000D02*
X159000000Y-220620000D01*
X159000000Y-223380000D02*
X161650000Y-223380000D01*
X161650000Y-223380000D02*
X161650000Y-220620000D01*
%TO.C,SW24*%
X237000000Y-63250000D02*
X237000000Y-64750000D01*
X238250000Y-67250000D02*
X242750000Y-67250000D01*
X242750000Y-60750000D02*
X238250000Y-60750000D01*
X244000000Y-64750000D02*
X244000000Y-63250000D01*
%TO.C,RV8*%
X244380000Y-136880000D02*
X246460000Y-136880000D01*
X244380000Y-141504000D02*
X244380000Y-136880000D01*
X244380000Y-189304000D02*
X244380000Y-144696000D01*
X244380000Y-197120000D02*
X244380000Y-192496000D01*
X246075000Y-197120000D02*
X244380000Y-197120000D01*
X246750000Y-197925000D02*
X247750000Y-197925000D01*
X247250000Y-197425000D02*
X246750000Y-197925000D01*
X247500000Y-144500000D02*
X250500000Y-144500000D01*
X247500000Y-189500000D02*
X250500000Y-189500000D01*
X247750000Y-197925000D02*
X247250000Y-197425000D01*
X248040000Y-136880000D02*
X253620000Y-136880000D01*
X248250000Y-145250000D02*
X249000000Y-144500000D01*
X248250000Y-188750000D02*
X249000000Y-189500000D01*
X249000000Y-144500000D02*
X249750000Y-145250000D01*
X249000000Y-189500000D02*
X249000000Y-144500000D01*
X249000000Y-189500000D02*
X249750000Y-188750000D01*
X249960000Y-197120000D02*
X248425000Y-197120000D01*
X253620000Y-136880000D02*
X253620000Y-140304000D01*
X253620000Y-143496000D02*
X253620000Y-190504000D01*
X253620000Y-193696000D02*
X253620000Y-197120000D01*
X253620000Y-197120000D02*
X251540000Y-197120000D01*
%TO.C,SW5*%
X31500000Y-67750000D02*
X31500000Y-69250000D01*
X32750000Y-71750000D02*
X37250000Y-71750000D01*
X37250000Y-65250000D02*
X32750000Y-65250000D01*
X38500000Y-69250000D02*
X38500000Y-67750000D01*
%TO.C,FSR8*%
X246350000Y-223380000D02*
X246350000Y-222000000D01*
X247730000Y-223380000D02*
X246350000Y-223380000D01*
X249000000Y-220620000D02*
X251650000Y-220620000D01*
X249000000Y-223380000D02*
X249000000Y-220620000D01*
X249000000Y-223380000D02*
X251650000Y-223380000D01*
X251650000Y-223380000D02*
X251650000Y-220620000D01*
%TO.C,FSR4*%
X126350000Y-223380000D02*
X126350000Y-222000000D01*
X127730000Y-223380000D02*
X126350000Y-223380000D01*
X129000000Y-220620000D02*
X131650000Y-220620000D01*
X129000000Y-223380000D02*
X129000000Y-220620000D01*
X129000000Y-223380000D02*
X131650000Y-223380000D01*
X131650000Y-223380000D02*
X131650000Y-220620000D01*
%TO.C,SW17*%
X208500000Y-63250000D02*
X208500000Y-64750000D01*
X209750000Y-67250000D02*
X214250000Y-67250000D01*
X214250000Y-60750000D02*
X209750000Y-60750000D01*
X215500000Y-64750000D02*
X215500000Y-63250000D01*
%TO.C,RV2*%
X64380000Y-136880000D02*
X66460000Y-136880000D01*
X64380000Y-141504000D02*
X64380000Y-136880000D01*
X64380000Y-189304000D02*
X64380000Y-144696000D01*
X64380000Y-197120000D02*
X64380000Y-192496000D01*
X66075000Y-197120000D02*
X64380000Y-197120000D01*
X66750000Y-197925000D02*
X67750000Y-197925000D01*
X67250000Y-197425000D02*
X66750000Y-197925000D01*
X67500000Y-144500000D02*
X70500000Y-144500000D01*
X67500000Y-189500000D02*
X70500000Y-189500000D01*
X67750000Y-197925000D02*
X67250000Y-197425000D01*
X68040000Y-136880000D02*
X73620000Y-136880000D01*
X68250000Y-145250000D02*
X69000000Y-144500000D01*
X68250000Y-188750000D02*
X69000000Y-189500000D01*
X69000000Y-144500000D02*
X69750000Y-145250000D01*
X69000000Y-189500000D02*
X69000000Y-144500000D01*
X69000000Y-189500000D02*
X69750000Y-188750000D01*
X69960000Y-197120000D02*
X68425000Y-197120000D01*
X73620000Y-136880000D02*
X73620000Y-140304000D01*
X73620000Y-143496000D02*
X73620000Y-190504000D01*
X73620000Y-193696000D02*
X73620000Y-197120000D01*
X73620000Y-197120000D02*
X71540000Y-197120000D01*
%TO.C,SW44*%
X185500000Y-131250000D02*
X185500000Y-132750000D01*
X186750000Y-135250000D02*
X191250000Y-135250000D01*
X191250000Y-128750000D02*
X186750000Y-128750000D01*
X192500000Y-132750000D02*
X192500000Y-131250000D01*
%TO.C,SW56*%
X276000000Y-157750000D02*
X276000000Y-159250000D01*
X277250000Y-161750000D02*
X281750000Y-161750000D01*
X281750000Y-155250000D02*
X277250000Y-155250000D01*
X283000000Y-159250000D02*
X283000000Y-157750000D01*
%TO.C,SW57*%
X299000000Y-157750000D02*
X299000000Y-159250000D01*
X300250000Y-161750000D02*
X304750000Y-161750000D01*
X304750000Y-155250000D02*
X300250000Y-155250000D01*
X306000000Y-159250000D02*
X306000000Y-157750000D01*
%TO.C,SW27*%
X290750000Y-50750000D02*
X290750000Y-52250000D01*
X292000000Y-54750000D02*
X296500000Y-54750000D01*
X296500000Y-48250000D02*
X292000000Y-48250000D01*
X297750000Y-52250000D02*
X297750000Y-50750000D01*
%TO.C,SW25*%
X263750000Y-50750000D02*
X263750000Y-52250000D01*
X265000000Y-54750000D02*
X269500000Y-54750000D01*
X269500000Y-48250000D02*
X265000000Y-48250000D01*
X270750000Y-52250000D02*
X270750000Y-50750000D01*
%TO.C,SW35*%
X65500000Y-117750000D02*
X65500000Y-119250000D01*
X66750000Y-121750000D02*
X71250000Y-121750000D01*
X71250000Y-115250000D02*
X66750000Y-115250000D01*
X72500000Y-119250000D02*
X72500000Y-117750000D01*
%TO.C,RV3*%
X94380000Y-136880000D02*
X96460000Y-136880000D01*
X94380000Y-141504000D02*
X94380000Y-136880000D01*
X94380000Y-189304000D02*
X94380000Y-144696000D01*
X94380000Y-197120000D02*
X94380000Y-192496000D01*
X96075000Y-197120000D02*
X94380000Y-197120000D01*
X96750000Y-197925000D02*
X97750000Y-197925000D01*
X97250000Y-197425000D02*
X96750000Y-197925000D01*
X97500000Y-144500000D02*
X100500000Y-144500000D01*
X97500000Y-189500000D02*
X100500000Y-189500000D01*
X97750000Y-197925000D02*
X97250000Y-197425000D01*
X98040000Y-136880000D02*
X103620000Y-136880000D01*
X98250000Y-145250000D02*
X99000000Y-144500000D01*
X98250000Y-188750000D02*
X99000000Y-189500000D01*
X99000000Y-144500000D02*
X99750000Y-145250000D01*
X99000000Y-189500000D02*
X99000000Y-144500000D01*
X99000000Y-189500000D02*
X99750000Y-188750000D01*
X99960000Y-197120000D02*
X98425000Y-197120000D01*
X103620000Y-136880000D02*
X103620000Y-140304000D01*
X103620000Y-143496000D02*
X103620000Y-190504000D01*
X103620000Y-193696000D02*
X103620000Y-197120000D01*
X103620000Y-197120000D02*
X101540000Y-197120000D01*
%TO.C,FSR2*%
X66350000Y-223380000D02*
X66350000Y-222000000D01*
X67730000Y-223380000D02*
X66350000Y-223380000D01*
X69000000Y-220620000D02*
X71650000Y-220620000D01*
X69000000Y-223380000D02*
X69000000Y-220620000D01*
X69000000Y-223380000D02*
X71650000Y-223380000D01*
X71650000Y-223380000D02*
X71650000Y-220620000D01*
%TO.C,FSR6*%
X186350000Y-223380000D02*
X186350000Y-222000000D01*
X187730000Y-223380000D02*
X186350000Y-223380000D01*
X189000000Y-220620000D02*
X191650000Y-220620000D01*
X189000000Y-223380000D02*
X189000000Y-220620000D01*
X189000000Y-223380000D02*
X191650000Y-223380000D01*
X191650000Y-223380000D02*
X191650000Y-220620000D01*
%TO.C,SW34*%
X35500000Y-131250000D02*
X35500000Y-132750000D01*
X36750000Y-135250000D02*
X41250000Y-135250000D01*
X41250000Y-128750000D02*
X36750000Y-128750000D01*
X42500000Y-132750000D02*
X42500000Y-131250000D01*
%TO.C,SW2*%
X47000000Y-50750000D02*
X47000000Y-52250000D01*
X48250000Y-54750000D02*
X52750000Y-54750000D01*
X52750000Y-48250000D02*
X48250000Y-48250000D01*
X54000000Y-52250000D02*
X54000000Y-50750000D01*
%TO.C,SW6*%
X47000000Y-67750000D02*
X47000000Y-69250000D01*
X48250000Y-71750000D02*
X52750000Y-71750000D01*
X52750000Y-65250000D02*
X48250000Y-65250000D01*
X54000000Y-69250000D02*
X54000000Y-67750000D01*
%TO.C,SW46*%
X215500000Y-131250000D02*
X215500000Y-132750000D01*
X216750000Y-135250000D02*
X221250000Y-135250000D01*
X221250000Y-128750000D02*
X216750000Y-128750000D01*
X222500000Y-132750000D02*
X222500000Y-131250000D01*
%TO.C,SW13*%
X135500000Y-72250000D02*
X135500000Y-73750000D01*
X136750000Y-76250000D02*
X141250000Y-76250000D01*
X141250000Y-69750000D02*
X136750000Y-69750000D01*
X142500000Y-73750000D02*
X142500000Y-72250000D01*
%TO.C,SW32*%
X304250000Y-67750000D02*
X304250000Y-69250000D01*
X305500000Y-71750000D02*
X310000000Y-71750000D01*
X310000000Y-65250000D02*
X305500000Y-65250000D01*
X311250000Y-69250000D02*
X311250000Y-67750000D01*
%TO.C,J1*%
X294810000Y-183380000D02*
X294810000Y-182000000D01*
X296190000Y-183380000D02*
X294810000Y-183380000D01*
X297460000Y-180620000D02*
X305190000Y-180620000D01*
X297460000Y-183380000D02*
X297460000Y-180620000D01*
X297460000Y-183380000D02*
X305190000Y-183380000D01*
X305190000Y-183380000D02*
X305190000Y-180620000D01*
%TO.C,SW36*%
X65500000Y-131250000D02*
X65500000Y-132750000D01*
X66750000Y-135250000D02*
X71250000Y-135250000D01*
X71250000Y-128750000D02*
X66750000Y-128750000D01*
X72500000Y-132750000D02*
X72500000Y-131250000D01*
%TO.C,FSR13*%
X156350000Y-255380000D02*
X156350000Y-254000000D01*
X157730000Y-255380000D02*
X156350000Y-255380000D01*
X159000000Y-252620000D02*
X161650000Y-252620000D01*
X159000000Y-255380000D02*
X159000000Y-252620000D01*
X159000000Y-255380000D02*
X161650000Y-255380000D01*
X161650000Y-255380000D02*
X161650000Y-252620000D01*
%TO.C,FSR9*%
X36350000Y-255380000D02*
X36350000Y-254000000D01*
X37730000Y-255380000D02*
X36350000Y-255380000D01*
X39000000Y-252620000D02*
X41650000Y-252620000D01*
X39000000Y-255380000D02*
X39000000Y-252620000D01*
X39000000Y-255380000D02*
X41650000Y-255380000D01*
X41650000Y-255380000D02*
X41650000Y-252620000D01*
%TO.C,ENC5*%
X91200000Y-98900000D02*
X91800000Y-98900000D01*
X91500000Y-99200000D02*
X91200000Y-98900000D01*
X91800000Y-98900000D02*
X91500000Y-99200000D01*
X92900000Y-97100000D02*
X92900000Y-108900000D01*
X97000000Y-97100000D02*
X92900000Y-97100000D01*
X97000000Y-108900000D02*
X92900000Y-108900000D01*
X98500000Y-103000000D02*
X99500000Y-103000000D01*
X99000000Y-102500000D02*
X99000000Y-103500000D01*
X101000000Y-97100000D02*
X105100000Y-97100000D01*
X105100000Y-97100000D02*
X105100000Y-99500000D01*
X105100000Y-101700000D02*
X105100000Y-104300000D01*
X105100000Y-106500000D02*
X105100000Y-108900000D01*
X105100000Y-108900000D02*
X101000000Y-108900000D01*
X102000000Y-103000000D02*
G75*
G02*
X96000000Y-103000000I-3000000J0D01*
G01*
X96000000Y-103000000D02*
G75*
G02*
X102000000Y-103000000I3000000J0D01*
G01*
%TO.C,SW48*%
X245500000Y-131250000D02*
X245500000Y-132750000D01*
X246750000Y-135250000D02*
X251250000Y-135250000D01*
X251250000Y-128750000D02*
X246750000Y-128750000D01*
X252500000Y-132750000D02*
X252500000Y-131250000D01*
%TO.C,SW58*%
X287500000Y-204250000D02*
X287500000Y-205750000D01*
X288750000Y-208250000D02*
X293250000Y-208250000D01*
X293250000Y-201750000D02*
X288750000Y-201750000D01*
X294500000Y-205750000D02*
X294500000Y-204250000D01*
%TO.C,ENC7*%
X151200000Y-98900000D02*
X151800000Y-98900000D01*
X151500000Y-99200000D02*
X151200000Y-98900000D01*
X151800000Y-98900000D02*
X151500000Y-99200000D01*
X152900000Y-97100000D02*
X152900000Y-108900000D01*
X157000000Y-97100000D02*
X152900000Y-97100000D01*
X157000000Y-108900000D02*
X152900000Y-108900000D01*
X158500000Y-103000000D02*
X159500000Y-103000000D01*
X159000000Y-102500000D02*
X159000000Y-103500000D01*
X161000000Y-97100000D02*
X165100000Y-97100000D01*
X165100000Y-97100000D02*
X165100000Y-99500000D01*
X165100000Y-101700000D02*
X165100000Y-104300000D01*
X165100000Y-106500000D02*
X165100000Y-108900000D01*
X165100000Y-108900000D02*
X161000000Y-108900000D01*
X162000000Y-103000000D02*
G75*
G02*
X156000000Y-103000000I-3000000J0D01*
G01*
X156000000Y-103000000D02*
G75*
G02*
X162000000Y-103000000I3000000J0D01*
G01*
%TO.C,SW52*%
X276000000Y-131750000D02*
X276000000Y-133250000D01*
X277250000Y-135750000D02*
X281750000Y-135750000D01*
X281750000Y-129250000D02*
X277250000Y-129250000D01*
X283000000Y-133250000D02*
X283000000Y-131750000D01*
%TO.C,SW47*%
X245500000Y-117750000D02*
X245500000Y-119250000D01*
X246750000Y-121750000D02*
X251250000Y-121750000D01*
X251250000Y-115250000D02*
X246750000Y-115250000D01*
X252500000Y-119250000D02*
X252500000Y-117750000D01*
%TO.C,RV7*%
X214380000Y-136880000D02*
X216460000Y-136880000D01*
X214380000Y-141504000D02*
X214380000Y-136880000D01*
X214380000Y-189304000D02*
X214380000Y-144696000D01*
X214380000Y-197120000D02*
X214380000Y-192496000D01*
X216075000Y-197120000D02*
X214380000Y-197120000D01*
X216750000Y-197925000D02*
X217750000Y-197925000D01*
X217250000Y-197425000D02*
X216750000Y-197925000D01*
X217500000Y-144500000D02*
X220500000Y-144500000D01*
X217500000Y-189500000D02*
X220500000Y-189500000D01*
X217750000Y-197925000D02*
X217250000Y-197425000D01*
X218040000Y-136880000D02*
X223620000Y-136880000D01*
X218250000Y-145250000D02*
X219000000Y-144500000D01*
X218250000Y-188750000D02*
X219000000Y-189500000D01*
X219000000Y-144500000D02*
X219750000Y-145250000D01*
X219000000Y-189500000D02*
X219000000Y-144500000D01*
X219000000Y-189500000D02*
X219750000Y-188750000D01*
X219960000Y-197120000D02*
X218425000Y-197120000D01*
X223620000Y-136880000D02*
X223620000Y-140304000D01*
X223620000Y-143496000D02*
X223620000Y-190504000D01*
X223620000Y-193696000D02*
X223620000Y-197120000D01*
X223620000Y-197120000D02*
X221540000Y-197120000D01*
%TO.C,SW10*%
X135500000Y-58250000D02*
X135500000Y-59750000D01*
X136750000Y-62250000D02*
X141250000Y-62250000D01*
X141250000Y-55750000D02*
X136750000Y-55750000D01*
X142500000Y-59750000D02*
X142500000Y-58250000D01*
%TO.C,RV4*%
X124380000Y-136880000D02*
X126460000Y-136880000D01*
X124380000Y-141504000D02*
X124380000Y-136880000D01*
X124380000Y-189304000D02*
X124380000Y-144696000D01*
X124380000Y-197120000D02*
X124380000Y-192496000D01*
X126075000Y-197120000D02*
X124380000Y-197120000D01*
X126750000Y-197925000D02*
X127750000Y-197925000D01*
X127250000Y-197425000D02*
X126750000Y-197925000D01*
X127500000Y-144500000D02*
X130500000Y-144500000D01*
X127500000Y-189500000D02*
X130500000Y-189500000D01*
X127750000Y-197925000D02*
X127250000Y-197425000D01*
X128040000Y-136880000D02*
X133620000Y-136880000D01*
X128250000Y-145250000D02*
X129000000Y-144500000D01*
X128250000Y-188750000D02*
X129000000Y-189500000D01*
X129000000Y-144500000D02*
X129750000Y-145250000D01*
X129000000Y-189500000D02*
X129000000Y-144500000D01*
X129000000Y-189500000D02*
X129750000Y-188750000D01*
X129960000Y-197120000D02*
X128425000Y-197120000D01*
X133620000Y-136880000D02*
X133620000Y-140304000D01*
X133620000Y-143496000D02*
X133620000Y-190504000D01*
X133620000Y-193696000D02*
X133620000Y-197120000D01*
X133620000Y-197120000D02*
X131540000Y-197120000D01*
%TO.C,ENC3*%
X31200000Y-98900000D02*
X31800000Y-98900000D01*
X31500000Y-99200000D02*
X31200000Y-98900000D01*
X31800000Y-98900000D02*
X31500000Y-99200000D01*
X32900000Y-97100000D02*
X32900000Y-108900000D01*
X37000000Y-97100000D02*
X32900000Y-97100000D01*
X37000000Y-108900000D02*
X32900000Y-108900000D01*
X38500000Y-103000000D02*
X39500000Y-103000000D01*
X39000000Y-102500000D02*
X39000000Y-103500000D01*
X41000000Y-97100000D02*
X45100000Y-97100000D01*
X45100000Y-97100000D02*
X45100000Y-99500000D01*
X45100000Y-101700000D02*
X45100000Y-104300000D01*
X45100000Y-106500000D02*
X45100000Y-108900000D01*
X45100000Y-108900000D02*
X41000000Y-108900000D01*
X42000000Y-103000000D02*
G75*
G02*
X36000000Y-103000000I-3000000J0D01*
G01*
X36000000Y-103000000D02*
G75*
G02*
X42000000Y-103000000I3000000J0D01*
G01*
%TO.C,ENC1*%
X99200000Y-61900000D02*
X99800000Y-61900000D01*
X99500000Y-62200000D02*
X99200000Y-61900000D01*
X99800000Y-61900000D02*
X99500000Y-62200000D01*
X100900000Y-60100000D02*
X100900000Y-71900000D01*
X105000000Y-60100000D02*
X100900000Y-60100000D01*
X105000000Y-71900000D02*
X100900000Y-71900000D01*
X106500000Y-66000000D02*
X107500000Y-66000000D01*
X107000000Y-65500000D02*
X107000000Y-66500000D01*
X109000000Y-60100000D02*
X113100000Y-60100000D01*
X113100000Y-60100000D02*
X113100000Y-62500000D01*
X113100000Y-64700000D02*
X113100000Y-67300000D01*
X113100000Y-69500000D02*
X113100000Y-71900000D01*
X113100000Y-71900000D02*
X109000000Y-71900000D01*
X110000000Y-66000000D02*
G75*
G02*
X104000000Y-66000000I-3000000J0D01*
G01*
X104000000Y-66000000D02*
G75*
G02*
X110000000Y-66000000I3000000J0D01*
G01*
%TO.C,FSR1*%
X36350000Y-223380000D02*
X36350000Y-222000000D01*
X37730000Y-223380000D02*
X36350000Y-223380000D01*
X39000000Y-220620000D02*
X41650000Y-220620000D01*
X39000000Y-223380000D02*
X39000000Y-220620000D01*
X39000000Y-223380000D02*
X41650000Y-223380000D01*
X41650000Y-223380000D02*
X41650000Y-220620000D01*
%TO.C,SW41*%
X155500000Y-117750000D02*
X155500000Y-119250000D01*
X156750000Y-121750000D02*
X161250000Y-121750000D01*
X161250000Y-115250000D02*
X156750000Y-115250000D01*
X162500000Y-119250000D02*
X162500000Y-117750000D01*
%TO.C,FSR14*%
X186350000Y-255380000D02*
X186350000Y-254000000D01*
X187730000Y-255380000D02*
X186350000Y-255380000D01*
X189000000Y-252620000D02*
X191650000Y-252620000D01*
X189000000Y-255380000D02*
X189000000Y-252620000D01*
X189000000Y-255380000D02*
X191650000Y-255380000D01*
X191650000Y-255380000D02*
X191650000Y-252620000D01*
%TO.C,SW7*%
X62500000Y-67750000D02*
X62500000Y-69250000D01*
X63750000Y-71750000D02*
X68250000Y-71750000D01*
X68250000Y-65250000D02*
X63750000Y-65250000D01*
X69500000Y-69250000D02*
X69500000Y-67750000D01*
%TO.C,SW1*%
X31500000Y-50750000D02*
X31500000Y-52250000D01*
X32750000Y-54750000D02*
X37250000Y-54750000D01*
X37250000Y-48250000D02*
X32750000Y-48250000D01*
X38500000Y-52250000D02*
X38500000Y-50750000D01*
%TO.C,SW15*%
X208500000Y-44250000D02*
X208500000Y-45750000D01*
X209750000Y-48250000D02*
X214250000Y-48250000D01*
X214250000Y-41750000D02*
X209750000Y-41750000D01*
X215500000Y-45750000D02*
X215500000Y-44250000D01*
%TO.C,SW43*%
X185500000Y-117750000D02*
X185500000Y-119250000D01*
X186750000Y-121750000D02*
X191250000Y-121750000D01*
X191250000Y-115250000D02*
X186750000Y-115250000D01*
X192500000Y-119250000D02*
X192500000Y-117750000D01*
%TO.C,SW18*%
X237000000Y-44250000D02*
X237000000Y-45750000D01*
X238250000Y-48250000D02*
X242750000Y-48250000D01*
X242750000Y-41750000D02*
X238250000Y-41750000D01*
X244000000Y-45750000D02*
X244000000Y-44250000D01*
%TO.C,SW29*%
X263750000Y-67750000D02*
X263750000Y-69250000D01*
X265000000Y-71750000D02*
X269500000Y-71750000D01*
X269500000Y-65250000D02*
X265000000Y-65250000D01*
X270750000Y-69250000D02*
X270750000Y-67750000D01*
%TO.C,SW42*%
X155500000Y-131250000D02*
X155500000Y-132750000D01*
X156750000Y-135250000D02*
X161250000Y-135250000D01*
X161250000Y-128750000D02*
X156750000Y-128750000D01*
X162500000Y-132750000D02*
X162500000Y-131250000D01*
%TO.C,SW21*%
X214000000Y-72750000D02*
X214000000Y-74250000D01*
X215250000Y-76750000D02*
X219750000Y-76750000D01*
X219750000Y-70250000D02*
X215250000Y-70250000D01*
X221000000Y-74250000D02*
X221000000Y-72750000D01*
%TO.C,SW45*%
X215500000Y-117750000D02*
X215500000Y-119250000D01*
X216750000Y-121750000D02*
X221250000Y-121750000D01*
X221250000Y-115250000D02*
X216750000Y-115250000D01*
X222500000Y-119250000D02*
X222500000Y-117750000D01*
%TO.C,SW3*%
X62500000Y-50750000D02*
X62500000Y-52250000D01*
X63750000Y-54750000D02*
X68250000Y-54750000D01*
X68250000Y-48250000D02*
X63750000Y-48250000D01*
X69500000Y-52250000D02*
X69500000Y-50750000D01*
%TO.C,SW61*%
X299000000Y-236250000D02*
X299000000Y-237750000D01*
X300250000Y-240250000D02*
X304750000Y-240250000D01*
X304750000Y-233750000D02*
X300250000Y-233750000D01*
X306000000Y-237750000D02*
X306000000Y-236250000D01*
%TO.C,SW49*%
X276000000Y-98750000D02*
X276000000Y-100250000D01*
X277250000Y-102750000D02*
X281750000Y-102750000D01*
X281750000Y-96250000D02*
X277250000Y-96250000D01*
X283000000Y-100250000D02*
X283000000Y-98750000D01*
%TO.C,FSR16*%
X246350000Y-255380000D02*
X246350000Y-254000000D01*
X247730000Y-255380000D02*
X246350000Y-255380000D01*
X249000000Y-252620000D02*
X251650000Y-252620000D01*
X249000000Y-255380000D02*
X249000000Y-252620000D01*
X249000000Y-255380000D02*
X251650000Y-255380000D01*
X251650000Y-255380000D02*
X251650000Y-252620000D01*
%TO.C,ENC8*%
X181200000Y-98900000D02*
X181800000Y-98900000D01*
X181500000Y-99200000D02*
X181200000Y-98900000D01*
X181800000Y-98900000D02*
X181500000Y-99200000D01*
X182900000Y-97100000D02*
X182900000Y-108900000D01*
X187000000Y-97100000D02*
X182900000Y-97100000D01*
X187000000Y-108900000D02*
X182900000Y-108900000D01*
X188500000Y-103000000D02*
X189500000Y-103000000D01*
X189000000Y-102500000D02*
X189000000Y-103500000D01*
X191000000Y-97100000D02*
X195100000Y-97100000D01*
X195100000Y-97100000D02*
X195100000Y-99500000D01*
X195100000Y-101700000D02*
X195100000Y-104300000D01*
X195100000Y-106500000D02*
X195100000Y-108900000D01*
X195100000Y-108900000D02*
X191000000Y-108900000D01*
X192000000Y-103000000D02*
G75*
G02*
X186000000Y-103000000I-3000000J0D01*
G01*
X186000000Y-103000000D02*
G75*
G02*
X192000000Y-103000000I3000000J0D01*
G01*
%TO.C,FSR7*%
X216350000Y-223380000D02*
X216350000Y-222000000D01*
X217730000Y-223380000D02*
X216350000Y-223380000D01*
X219000000Y-220620000D02*
X221650000Y-220620000D01*
X219000000Y-223380000D02*
X219000000Y-220620000D01*
X219000000Y-223380000D02*
X221650000Y-223380000D01*
X221650000Y-223380000D02*
X221650000Y-220620000D01*
%TO.C,FSR11*%
X96350000Y-255380000D02*
X96350000Y-254000000D01*
X97730000Y-255380000D02*
X96350000Y-255380000D01*
X99000000Y-252620000D02*
X101650000Y-252620000D01*
X99000000Y-255380000D02*
X99000000Y-252620000D01*
X99000000Y-255380000D02*
X101650000Y-255380000D01*
X101650000Y-255380000D02*
X101650000Y-252620000D01*
%TO.C,RV5*%
X154380000Y-136880000D02*
X156460000Y-136880000D01*
X154380000Y-141504000D02*
X154380000Y-136880000D01*
X154380000Y-189304000D02*
X154380000Y-144696000D01*
X154380000Y-197120000D02*
X154380000Y-192496000D01*
X156075000Y-197120000D02*
X154380000Y-197120000D01*
X156750000Y-197925000D02*
X157750000Y-197925000D01*
X157250000Y-197425000D02*
X156750000Y-197925000D01*
X157500000Y-144500000D02*
X160500000Y-144500000D01*
X157500000Y-189500000D02*
X160500000Y-189500000D01*
X157750000Y-197925000D02*
X157250000Y-197425000D01*
X158040000Y-136880000D02*
X163620000Y-136880000D01*
X158250000Y-145250000D02*
X159000000Y-144500000D01*
X158250000Y-188750000D02*
X159000000Y-189500000D01*
X159000000Y-144500000D02*
X159750000Y-145250000D01*
X159000000Y-189500000D02*
X159000000Y-144500000D01*
X159000000Y-189500000D02*
X159750000Y-188750000D01*
X159960000Y-197120000D02*
X158425000Y-197120000D01*
X163620000Y-136880000D02*
X163620000Y-140304000D01*
X163620000Y-143496000D02*
X163620000Y-190504000D01*
X163620000Y-193696000D02*
X163620000Y-197120000D01*
X163620000Y-197120000D02*
X161540000Y-197120000D01*
%TO.C,SW31*%
X290750000Y-67750000D02*
X290750000Y-69250000D01*
X292000000Y-71750000D02*
X296500000Y-71750000D01*
X296500000Y-65250000D02*
X292000000Y-65250000D01*
X297750000Y-69250000D02*
X297750000Y-67750000D01*
%TO.C,RV6*%
X184380000Y-136880000D02*
X186460000Y-136880000D01*
X184380000Y-141504000D02*
X184380000Y-136880000D01*
X184380000Y-189304000D02*
X184380000Y-144696000D01*
X184380000Y-197120000D02*
X184380000Y-192496000D01*
X186075000Y-197120000D02*
X184380000Y-197120000D01*
X186750000Y-197925000D02*
X187750000Y-197925000D01*
X187250000Y-197425000D02*
X186750000Y-197925000D01*
X187500000Y-144500000D02*
X190500000Y-144500000D01*
X187500000Y-189500000D02*
X190500000Y-189500000D01*
X187750000Y-197925000D02*
X187250000Y-197425000D01*
X188040000Y-136880000D02*
X193620000Y-136880000D01*
X188250000Y-145250000D02*
X189000000Y-144500000D01*
X188250000Y-188750000D02*
X189000000Y-189500000D01*
X189000000Y-144500000D02*
X189750000Y-145250000D01*
X189000000Y-189500000D02*
X189000000Y-144500000D01*
X189000000Y-189500000D02*
X189750000Y-188750000D01*
X189960000Y-197120000D02*
X188425000Y-197120000D01*
X193620000Y-136880000D02*
X193620000Y-140304000D01*
X193620000Y-143496000D02*
X193620000Y-190504000D01*
X193620000Y-193696000D02*
X193620000Y-197120000D01*
X193620000Y-197120000D02*
X191540000Y-197120000D01*
%TO.C,SW11*%
X148500000Y-58250000D02*
X148500000Y-59750000D01*
X149750000Y-62250000D02*
X154250000Y-62250000D01*
X154250000Y-55750000D02*
X149750000Y-55750000D01*
X155500000Y-59750000D02*
X155500000Y-58250000D01*
%TO.C,SW59*%
X287500000Y-217250000D02*
X287500000Y-218750000D01*
X288750000Y-221250000D02*
X293250000Y-221250000D01*
X293250000Y-214750000D02*
X288750000Y-214750000D01*
X294500000Y-218750000D02*
X294500000Y-217250000D01*
%TO.C,SW20*%
X200500000Y-72750000D02*
X200500000Y-74250000D01*
X201750000Y-76750000D02*
X206250000Y-76750000D01*
X206250000Y-70250000D02*
X201750000Y-70250000D01*
X207500000Y-74250000D02*
X207500000Y-72750000D01*
%TO.C,SW8*%
X78000000Y-67750000D02*
X78000000Y-69250000D01*
X79250000Y-71750000D02*
X83750000Y-71750000D01*
X83750000Y-65250000D02*
X79250000Y-65250000D01*
X85000000Y-69250000D02*
X85000000Y-67750000D01*
%TO.C,SW60*%
X276000000Y-236250000D02*
X276000000Y-237750000D01*
X277250000Y-240250000D02*
X281750000Y-240250000D01*
X281750000Y-233750000D02*
X277250000Y-233750000D01*
X283000000Y-237750000D02*
X283000000Y-236250000D01*
%TO.C,SW26*%
X277250000Y-50750000D02*
X277250000Y-52250000D01*
X278500000Y-54750000D02*
X283000000Y-54750000D01*
X283000000Y-48250000D02*
X278500000Y-48250000D01*
X284250000Y-52250000D02*
X284250000Y-50750000D01*
%TO.C,SW54*%
X276000000Y-142750000D02*
X276000000Y-144250000D01*
X277250000Y-146750000D02*
X281750000Y-146750000D01*
X281750000Y-140250000D02*
X277250000Y-140250000D01*
X283000000Y-144250000D02*
X283000000Y-142750000D01*
%TO.C,ENC6*%
X121200000Y-98900000D02*
X121800000Y-98900000D01*
X121500000Y-99200000D02*
X121200000Y-98900000D01*
X121800000Y-98900000D02*
X121500000Y-99200000D01*
X122900000Y-97100000D02*
X122900000Y-108900000D01*
X127000000Y-97100000D02*
X122900000Y-97100000D01*
X127000000Y-108900000D02*
X122900000Y-108900000D01*
X128500000Y-103000000D02*
X129500000Y-103000000D01*
X129000000Y-102500000D02*
X129000000Y-103500000D01*
X131000000Y-97100000D02*
X135100000Y-97100000D01*
X135100000Y-97100000D02*
X135100000Y-99500000D01*
X135100000Y-101700000D02*
X135100000Y-104300000D01*
X135100000Y-106500000D02*
X135100000Y-108900000D01*
X135100000Y-108900000D02*
X131000000Y-108900000D01*
X132000000Y-103000000D02*
G75*
G02*
X126000000Y-103000000I-3000000J0D01*
G01*
X126000000Y-103000000D02*
G75*
G02*
X132000000Y-103000000I3000000J0D01*
G01*
%TO.C,ENC2*%
X173200000Y-53900000D02*
X173800000Y-53900000D01*
X173500000Y-54200000D02*
X173200000Y-53900000D01*
X173800000Y-53900000D02*
X173500000Y-54200000D01*
X174900000Y-52100000D02*
X174900000Y-63900000D01*
X179000000Y-52100000D02*
X174900000Y-52100000D01*
X179000000Y-63900000D02*
X174900000Y-63900000D01*
X180500000Y-58000000D02*
X181500000Y-58000000D01*
X181000000Y-57500000D02*
X181000000Y-58500000D01*
X183000000Y-52100000D02*
X187100000Y-52100000D01*
X187100000Y-52100000D02*
X187100000Y-54500000D01*
X187100000Y-56700000D02*
X187100000Y-59300000D01*
X187100000Y-61500000D02*
X187100000Y-63900000D01*
X187100000Y-63900000D02*
X183000000Y-63900000D01*
X184000000Y-58000000D02*
G75*
G02*
X178000000Y-58000000I-3000000J0D01*
G01*
X178000000Y-58000000D02*
G75*
G02*
X184000000Y-58000000I3000000J0D01*
G01*
%TO.C,SW16*%
X208500000Y-53750000D02*
X208500000Y-55250000D01*
X209750000Y-57750000D02*
X214250000Y-57750000D01*
X214250000Y-51250000D02*
X209750000Y-51250000D01*
X215500000Y-55250000D02*
X215500000Y-53750000D01*
%TO.C,SW33*%
X35500000Y-117750000D02*
X35500000Y-119250000D01*
X36750000Y-121750000D02*
X41250000Y-121750000D01*
X41250000Y-115250000D02*
X36750000Y-115250000D01*
X42500000Y-119250000D02*
X42500000Y-117750000D01*
%TO.C,SW14*%
X148500000Y-72250000D02*
X148500000Y-73750000D01*
X149750000Y-76250000D02*
X154250000Y-76250000D01*
X154250000Y-69750000D02*
X149750000Y-69750000D01*
X155500000Y-73750000D02*
X155500000Y-72250000D01*
%TO.C,SW51*%
X287500000Y-111250000D02*
X287500000Y-112750000D01*
X288750000Y-115250000D02*
X293250000Y-115250000D01*
X293250000Y-108750000D02*
X288750000Y-108750000D01*
X294500000Y-112750000D02*
X294500000Y-111250000D01*
%TD*%
%LPC*%
D11*
%TO.C,SW9*%
X122750000Y-56750000D03*
X129250000Y-56750000D03*
X122750000Y-61250000D03*
X129250000Y-61250000D03*
%TD*%
%TO.C,SW50*%
X299250000Y-97250000D03*
X305750000Y-97250000D03*
X299250000Y-101750000D03*
X305750000Y-101750000D03*
%TD*%
%TO.C,SW55*%
X299250000Y-141250000D03*
X305750000Y-141250000D03*
X299250000Y-145750000D03*
X305750000Y-145750000D03*
%TD*%
D12*
%TO.C,H2*%
X314000000Y-38000000D03*
%TD*%
D11*
%TO.C,SW19*%
X237250000Y-52250000D03*
X243750000Y-52250000D03*
X237250000Y-56750000D03*
X243750000Y-56750000D03*
%TD*%
D12*
%TO.C,H5*%
X264000000Y-120000000D03*
%TD*%
D11*
%TO.C,SW37*%
X95750000Y-116250000D03*
X102250000Y-116250000D03*
X95750000Y-120750000D03*
X102250000Y-120750000D03*
%TD*%
%TO.C,SW4*%
X78250000Y-49250000D03*
X84750000Y-49250000D03*
X78250000Y-53750000D03*
X84750000Y-53750000D03*
%TD*%
%TO.C,SW40*%
X125750000Y-129750000D03*
X132250000Y-129750000D03*
X125750000Y-134250000D03*
X132250000Y-134250000D03*
%TD*%
D13*
%TO.C,FSR3*%
X97730000Y-222000000D03*
D14*
X100270000Y-222000000D03*
%TD*%
D11*
%TO.C,SW39*%
X125750000Y-116250000D03*
X132250000Y-116250000D03*
X125750000Y-120750000D03*
X132250000Y-120750000D03*
%TD*%
D15*
%TO.C,ENC4*%
X61500000Y-100500000D03*
D11*
X61500000Y-105500000D03*
X61500000Y-103000000D03*
D16*
X69000000Y-97400000D03*
X69000000Y-108600000D03*
D11*
X76000000Y-105500000D03*
X76000000Y-100500000D03*
%TD*%
%TO.C,SW23*%
X241250000Y-71250000D03*
X247750000Y-71250000D03*
X241250000Y-75750000D03*
X247750000Y-75750000D03*
%TD*%
D13*
%TO.C,FSR10*%
X67730000Y-254000000D03*
D14*
X70270000Y-254000000D03*
%TD*%
D11*
%TO.C,SW28*%
X304500000Y-49250000D03*
X311000000Y-49250000D03*
X304500000Y-53750000D03*
X311000000Y-53750000D03*
%TD*%
%TO.C,SW53*%
X299250000Y-130250000D03*
X305750000Y-130250000D03*
X299250000Y-134750000D03*
X305750000Y-134750000D03*
%TD*%
D17*
%TO.C,RV1*%
X37250000Y-196250000D03*
D18*
X40750000Y-196250000D03*
X37250000Y-137750000D03*
D19*
X43200000Y-192100000D03*
X34800000Y-190900000D03*
X34800000Y-143100000D03*
X43200000Y-141900000D03*
%TD*%
D13*
%TO.C,FSR15*%
X217730000Y-254000000D03*
D14*
X220270000Y-254000000D03*
%TD*%
D11*
%TO.C,SW38*%
X95750000Y-129750000D03*
X102250000Y-129750000D03*
X95750000Y-134250000D03*
X102250000Y-134250000D03*
%TD*%
%TO.C,SW30*%
X277500000Y-66250000D03*
X284000000Y-66250000D03*
X277500000Y-70750000D03*
X284000000Y-70750000D03*
%TD*%
D15*
%TO.C,ENC9*%
X211500000Y-100500000D03*
D11*
X211500000Y-105500000D03*
X211500000Y-103000000D03*
D16*
X219000000Y-97400000D03*
X219000000Y-108600000D03*
D11*
X226000000Y-105500000D03*
X226000000Y-100500000D03*
%TD*%
%TO.C,SW12*%
X122750000Y-70750000D03*
X129250000Y-70750000D03*
X122750000Y-75250000D03*
X129250000Y-75250000D03*
%TD*%
D15*
%TO.C,ENC10*%
X241500000Y-100500000D03*
D11*
X241500000Y-105500000D03*
X241500000Y-103000000D03*
D16*
X249000000Y-97400000D03*
X249000000Y-108600000D03*
D11*
X256000000Y-105500000D03*
X256000000Y-100500000D03*
%TD*%
%TO.C,SW22*%
X227750000Y-71250000D03*
X234250000Y-71250000D03*
X227750000Y-75750000D03*
X234250000Y-75750000D03*
%TD*%
D13*
%TO.C,FSR12*%
X127730000Y-254000000D03*
D14*
X130270000Y-254000000D03*
%TD*%
D13*
%TO.C,FSR5*%
X157730000Y-222000000D03*
D14*
X160270000Y-222000000D03*
%TD*%
D11*
%TO.C,SW24*%
X237250000Y-61750000D03*
X243750000Y-61750000D03*
X237250000Y-66250000D03*
X243750000Y-66250000D03*
%TD*%
D17*
%TO.C,RV8*%
X247250000Y-196250000D03*
D18*
X250750000Y-196250000D03*
X247250000Y-137750000D03*
D19*
X253200000Y-192100000D03*
X244800000Y-190900000D03*
X244800000Y-143100000D03*
X253200000Y-141900000D03*
%TD*%
D11*
%TO.C,SW5*%
X31750000Y-66250000D03*
X38250000Y-66250000D03*
X31750000Y-70750000D03*
X38250000Y-70750000D03*
%TD*%
D12*
%TO.C,H3*%
X26000000Y-264000000D03*
%TD*%
D13*
%TO.C,FSR8*%
X247730000Y-222000000D03*
D14*
X250270000Y-222000000D03*
%TD*%
D13*
%TO.C,FSR4*%
X127730000Y-222000000D03*
D14*
X130270000Y-222000000D03*
%TD*%
D11*
%TO.C,SW17*%
X208750000Y-61750000D03*
X215250000Y-61750000D03*
X208750000Y-66250000D03*
X215250000Y-66250000D03*
%TD*%
D17*
%TO.C,RV2*%
X67250000Y-196250000D03*
D18*
X70750000Y-196250000D03*
X67250000Y-137750000D03*
D19*
X73200000Y-192100000D03*
X64800000Y-190900000D03*
X64800000Y-143100000D03*
X73200000Y-141900000D03*
%TD*%
D11*
%TO.C,SW44*%
X185750000Y-129750000D03*
X192250000Y-129750000D03*
X185750000Y-134250000D03*
X192250000Y-134250000D03*
%TD*%
%TO.C,SW56*%
X276250000Y-156250000D03*
X282750000Y-156250000D03*
X276250000Y-160750000D03*
X282750000Y-160750000D03*
%TD*%
%TO.C,SW57*%
X299250000Y-156250000D03*
X305750000Y-156250000D03*
X299250000Y-160750000D03*
X305750000Y-160750000D03*
%TD*%
%TO.C,SW27*%
X291000000Y-49250000D03*
X297500000Y-49250000D03*
X291000000Y-53750000D03*
X297500000Y-53750000D03*
%TD*%
%TO.C,SW25*%
X264000000Y-49250000D03*
X270500000Y-49250000D03*
X264000000Y-53750000D03*
X270500000Y-53750000D03*
%TD*%
%TO.C,SW35*%
X65750000Y-116250000D03*
X72250000Y-116250000D03*
X65750000Y-120750000D03*
X72250000Y-120750000D03*
%TD*%
D17*
%TO.C,RV3*%
X97250000Y-196250000D03*
D18*
X100750000Y-196250000D03*
X97250000Y-137750000D03*
D19*
X103200000Y-192100000D03*
X94800000Y-190900000D03*
X94800000Y-143100000D03*
X103200000Y-141900000D03*
%TD*%
D13*
%TO.C,FSR2*%
X67730000Y-222000000D03*
D14*
X70270000Y-222000000D03*
%TD*%
D13*
%TO.C,FSR6*%
X187730000Y-222000000D03*
D14*
X190270000Y-222000000D03*
%TD*%
D11*
%TO.C,SW34*%
X35750000Y-129750000D03*
X42250000Y-129750000D03*
X35750000Y-134250000D03*
X42250000Y-134250000D03*
%TD*%
%TO.C,SW2*%
X47250000Y-49250000D03*
X53750000Y-49250000D03*
X47250000Y-53750000D03*
X53750000Y-53750000D03*
%TD*%
%TO.C,SW6*%
X47250000Y-66250000D03*
X53750000Y-66250000D03*
X47250000Y-70750000D03*
X53750000Y-70750000D03*
%TD*%
%TO.C,SW46*%
X215750000Y-129750000D03*
X222250000Y-129750000D03*
X215750000Y-134250000D03*
X222250000Y-134250000D03*
%TD*%
%TO.C,SW13*%
X135750000Y-70750000D03*
X142250000Y-70750000D03*
X135750000Y-75250000D03*
X142250000Y-75250000D03*
%TD*%
%TO.C,SW32*%
X304500000Y-66250000D03*
X311000000Y-66250000D03*
X304500000Y-70750000D03*
X311000000Y-70750000D03*
%TD*%
D13*
%TO.C,J1*%
X296190000Y-182000000D03*
D14*
X298730000Y-182000000D03*
X301270000Y-182000000D03*
X303810000Y-182000000D03*
%TD*%
D11*
%TO.C,SW36*%
X65750000Y-129750000D03*
X72250000Y-129750000D03*
X65750000Y-134250000D03*
X72250000Y-134250000D03*
%TD*%
D13*
%TO.C,FSR13*%
X157730000Y-254000000D03*
D14*
X160270000Y-254000000D03*
%TD*%
D13*
%TO.C,FSR9*%
X37730000Y-254000000D03*
D14*
X40270000Y-254000000D03*
%TD*%
D15*
%TO.C,ENC5*%
X91500000Y-100500000D03*
D11*
X91500000Y-105500000D03*
X91500000Y-103000000D03*
D16*
X99000000Y-97400000D03*
X99000000Y-108600000D03*
D11*
X106000000Y-105500000D03*
X106000000Y-100500000D03*
%TD*%
%TO.C,SW48*%
X245750000Y-129750000D03*
X252250000Y-129750000D03*
X245750000Y-134250000D03*
X252250000Y-134250000D03*
%TD*%
%TO.C,SW58*%
X287750000Y-202750000D03*
X294250000Y-202750000D03*
X287750000Y-207250000D03*
X294250000Y-207250000D03*
%TD*%
D15*
%TO.C,ENC7*%
X151500000Y-100500000D03*
D11*
X151500000Y-105500000D03*
X151500000Y-103000000D03*
D16*
X159000000Y-97400000D03*
X159000000Y-108600000D03*
D11*
X166000000Y-105500000D03*
X166000000Y-100500000D03*
%TD*%
%TO.C,SW52*%
X276250000Y-130250000D03*
X282750000Y-130250000D03*
X276250000Y-134750000D03*
X282750000Y-134750000D03*
%TD*%
%TO.C,SW47*%
X245750000Y-116250000D03*
X252250000Y-116250000D03*
X245750000Y-120750000D03*
X252250000Y-120750000D03*
%TD*%
D17*
%TO.C,RV7*%
X217250000Y-196250000D03*
D18*
X220750000Y-196250000D03*
X217250000Y-137750000D03*
D19*
X223200000Y-192100000D03*
X214800000Y-190900000D03*
X214800000Y-143100000D03*
X223200000Y-141900000D03*
%TD*%
D11*
%TO.C,SW10*%
X135750000Y-56750000D03*
X142250000Y-56750000D03*
X135750000Y-61250000D03*
X142250000Y-61250000D03*
%TD*%
D17*
%TO.C,RV4*%
X127250000Y-196250000D03*
D18*
X130750000Y-196250000D03*
X127250000Y-137750000D03*
D19*
X133200000Y-192100000D03*
X124800000Y-190900000D03*
X124800000Y-143100000D03*
X133200000Y-141900000D03*
%TD*%
D15*
%TO.C,ENC3*%
X31500000Y-100500000D03*
D11*
X31500000Y-105500000D03*
X31500000Y-103000000D03*
D16*
X39000000Y-97400000D03*
X39000000Y-108600000D03*
D11*
X46000000Y-105500000D03*
X46000000Y-100500000D03*
%TD*%
D15*
%TO.C,ENC1*%
X99500000Y-63500000D03*
D11*
X99500000Y-68500000D03*
X99500000Y-66000000D03*
D16*
X107000000Y-60400000D03*
X107000000Y-71600000D03*
D11*
X114000000Y-68500000D03*
X114000000Y-63500000D03*
%TD*%
D13*
%TO.C,FSR1*%
X37730000Y-222000000D03*
D14*
X40270000Y-222000000D03*
%TD*%
D11*
%TO.C,SW41*%
X155750000Y-116250000D03*
X162250000Y-116250000D03*
X155750000Y-120750000D03*
X162250000Y-120750000D03*
%TD*%
D13*
%TO.C,FSR14*%
X187730000Y-254000000D03*
D14*
X190270000Y-254000000D03*
%TD*%
D11*
%TO.C,SW7*%
X62750000Y-66250000D03*
X69250000Y-66250000D03*
X62750000Y-70750000D03*
X69250000Y-70750000D03*
%TD*%
D12*
%TO.C,H1*%
X26000000Y-38000000D03*
%TD*%
D11*
%TO.C,SW1*%
X31750000Y-49250000D03*
X38250000Y-49250000D03*
X31750000Y-53750000D03*
X38250000Y-53750000D03*
%TD*%
%TO.C,SW15*%
X208750000Y-42750000D03*
X215250000Y-42750000D03*
X208750000Y-47250000D03*
X215250000Y-47250000D03*
%TD*%
%TO.C,SW43*%
X185750000Y-116250000D03*
X192250000Y-116250000D03*
X185750000Y-120750000D03*
X192250000Y-120750000D03*
%TD*%
%TO.C,SW18*%
X237250000Y-42750000D03*
X243750000Y-42750000D03*
X237250000Y-47250000D03*
X243750000Y-47250000D03*
%TD*%
%TO.C,SW29*%
X264000000Y-66250000D03*
X270500000Y-66250000D03*
X264000000Y-70750000D03*
X270500000Y-70750000D03*
%TD*%
D12*
%TO.C,H4*%
X314000000Y-264000000D03*
%TD*%
D11*
%TO.C,SW42*%
X155750000Y-129750000D03*
X162250000Y-129750000D03*
X155750000Y-134250000D03*
X162250000Y-134250000D03*
%TD*%
%TO.C,SW21*%
X214250000Y-71250000D03*
X220750000Y-71250000D03*
X214250000Y-75750000D03*
X220750000Y-75750000D03*
%TD*%
%TO.C,SW45*%
X215750000Y-116250000D03*
X222250000Y-116250000D03*
X215750000Y-120750000D03*
X222250000Y-120750000D03*
%TD*%
%TO.C,SW3*%
X62750000Y-49250000D03*
X69250000Y-49250000D03*
X62750000Y-53750000D03*
X69250000Y-53750000D03*
%TD*%
%TO.C,SW61*%
X299250000Y-234750000D03*
X305750000Y-234750000D03*
X299250000Y-239250000D03*
X305750000Y-239250000D03*
%TD*%
%TO.C,SW49*%
X276250000Y-97250000D03*
X282750000Y-97250000D03*
X276250000Y-101750000D03*
X282750000Y-101750000D03*
%TD*%
D13*
%TO.C,FSR16*%
X247730000Y-254000000D03*
D14*
X250270000Y-254000000D03*
%TD*%
D15*
%TO.C,ENC8*%
X181500000Y-100500000D03*
D11*
X181500000Y-105500000D03*
X181500000Y-103000000D03*
D16*
X189000000Y-97400000D03*
X189000000Y-108600000D03*
D11*
X196000000Y-105500000D03*
X196000000Y-100500000D03*
%TD*%
D13*
%TO.C,FSR7*%
X217730000Y-222000000D03*
D14*
X220270000Y-222000000D03*
%TD*%
D13*
%TO.C,FSR11*%
X97730000Y-254000000D03*
D14*
X100270000Y-254000000D03*
%TD*%
D17*
%TO.C,RV5*%
X157250000Y-196250000D03*
D18*
X160750000Y-196250000D03*
X157250000Y-137750000D03*
D19*
X163200000Y-192100000D03*
X154800000Y-190900000D03*
X154800000Y-143100000D03*
X163200000Y-141900000D03*
%TD*%
D11*
%TO.C,SW31*%
X291000000Y-66250000D03*
X297500000Y-66250000D03*
X291000000Y-70750000D03*
X297500000Y-70750000D03*
%TD*%
D17*
%TO.C,RV6*%
X187250000Y-196250000D03*
D18*
X190750000Y-196250000D03*
X187250000Y-137750000D03*
D19*
X193200000Y-192100000D03*
X184800000Y-190900000D03*
X184800000Y-143100000D03*
X193200000Y-141900000D03*
%TD*%
D11*
%TO.C,SW11*%
X148750000Y-56750000D03*
X155250000Y-56750000D03*
X148750000Y-61250000D03*
X155250000Y-61250000D03*
%TD*%
%TO.C,SW59*%
X287750000Y-215750000D03*
X294250000Y-215750000D03*
X287750000Y-220250000D03*
X294250000Y-220250000D03*
%TD*%
D12*
%TO.C,H6*%
X264000000Y-195000000D03*
%TD*%
D11*
%TO.C,SW20*%
X200750000Y-71250000D03*
X207250000Y-71250000D03*
X200750000Y-75750000D03*
X207250000Y-75750000D03*
%TD*%
%TO.C,SW8*%
X78250000Y-66250000D03*
X84750000Y-66250000D03*
X78250000Y-70750000D03*
X84750000Y-70750000D03*
%TD*%
%TO.C,SW60*%
X276250000Y-234750000D03*
X282750000Y-234750000D03*
X276250000Y-239250000D03*
X282750000Y-239250000D03*
%TD*%
%TO.C,SW26*%
X277500000Y-49250000D03*
X284000000Y-49250000D03*
X277500000Y-53750000D03*
X284000000Y-53750000D03*
%TD*%
%TO.C,SW54*%
X276250000Y-141250000D03*
X282750000Y-141250000D03*
X276250000Y-145750000D03*
X282750000Y-145750000D03*
%TD*%
D15*
%TO.C,ENC6*%
X121500000Y-100500000D03*
D11*
X121500000Y-105500000D03*
X121500000Y-103000000D03*
D16*
X129000000Y-97400000D03*
X129000000Y-108600000D03*
D11*
X136000000Y-105500000D03*
X136000000Y-100500000D03*
%TD*%
D15*
%TO.C,ENC2*%
X173500000Y-55500000D03*
D11*
X173500000Y-60500000D03*
X173500000Y-58000000D03*
D16*
X181000000Y-52400000D03*
X181000000Y-63600000D03*
D11*
X188000000Y-60500000D03*
X188000000Y-55500000D03*
%TD*%
%TO.C,SW16*%
X208750000Y-52250000D03*
X215250000Y-52250000D03*
X208750000Y-56750000D03*
X215250000Y-56750000D03*
%TD*%
%TO.C,SW33*%
X35750000Y-116250000D03*
X42250000Y-116250000D03*
X35750000Y-120750000D03*
X42250000Y-120750000D03*
%TD*%
%TO.C,SW14*%
X148750000Y-70750000D03*
X155250000Y-70750000D03*
X148750000Y-75250000D03*
X155250000Y-75250000D03*
%TD*%
%TO.C,SW51*%
X287750000Y-109750000D03*
X294250000Y-109750000D03*
X287750000Y-114250000D03*
X294250000Y-114250000D03*
%TD*%
%LPD*%
M02*
