%TF.GenerationSoftware,KiCad,Pcbnew,10.0.6*%
%TF.CreationDate,2026-10-03T20:53:01-05:00*%
%TF.ProjectId,deck,6465636b-2e6b-4696-9361-645f70636258,rev?*%
%TF.SameCoordinates,Original*%
%TF.FileFunction,Profile,NP*%
%FSLAX46Y46*%
G04 Gerber Fmt 4.6, Leading zero omitted, Abs format (unit mm)*
G04 Created by KiCad (PCBNEW 10.0.6) date 2026-10-03 20:53:01*
%MOMM*%
%LPD*%
G01*
G04 APERTURE LIST*
%TA.AperFunction,Profile*%
%ADD10C,0.100000*%
%TD*%
%TA.AperFunction,Profile*%
%ADD11C,0.120000*%
%TD*%
G04 APERTURE END LIST*
D10*
X22000000Y-34000000D02*
X318000000Y-34000000D01*
X22000000Y-268000000D02*
X22000000Y-34000000D01*
X318000000Y-34000000D02*
X318000000Y-268000000D01*
X318000000Y-268000000D02*
X22000000Y-268000000D01*
%TO.C,D6*%
D11*
X64300000Y-60800000D02*
X64300000Y-60099647D01*
X64300000Y-60800000D02*
X64300000Y-61500353D01*
X66000000Y-59300000D02*
X65099647Y-59300000D01*
X66000000Y-59300000D02*
X66900353Y-59300000D01*
X66000000Y-62300000D02*
X65099647Y-62300000D01*
X66000000Y-62300000D02*
X66900353Y-62300000D01*
X67700000Y-60800000D02*
X67700000Y-60099647D01*
X67700000Y-60800000D02*
X67700000Y-61500353D01*
X64256066Y-59943345D02*
G75*
G02*
X64299976Y-60099647I-256066J-156255D01*
G01*
X64256066Y-59943345D02*
G75*
G02*
X64943345Y-59256066I426774J260505D01*
G01*
X64300000Y-61500353D02*
G75*
G02*
X64256065Y-61656654I-299680J-87D01*
G01*
X64943345Y-62343934D02*
G75*
G02*
X64256066Y-61656655I-260505J426774D01*
G01*
X64943345Y-62343934D02*
G75*
G02*
X65099647Y-62300024I156255J-256066D01*
G01*
X65099647Y-59300000D02*
G75*
G02*
X64943344Y-59256067I3J300020D01*
G01*
X66900353Y-62300000D02*
G75*
G02*
X67056655Y-62343934I3J-299992D01*
G01*
X67056655Y-59256066D02*
G75*
G02*
X66900353Y-59300000I-156299J256058D01*
G01*
X67056655Y-59256066D02*
G75*
G02*
X67743934Y-59943345I260503J-426776D01*
G01*
X67700000Y-60099647D02*
G75*
G02*
X67743934Y-59943345I299992J3D01*
G01*
X67743934Y-61656655D02*
G75*
G02*
X67056655Y-62343934I-426776J-260503D01*
G01*
X67743934Y-61656655D02*
G75*
G02*
X67700000Y-61500353I256058J156299D01*
G01*
%TO.C,D11*%
X137300000Y-65800000D02*
X137300000Y-65099647D01*
X137300000Y-65800000D02*
X137300000Y-66500353D01*
X139000000Y-64300000D02*
X138099647Y-64300000D01*
X139000000Y-64300000D02*
X139900353Y-64300000D01*
X139000000Y-67300000D02*
X138099647Y-67300000D01*
X139000000Y-67300000D02*
X139900353Y-67300000D01*
X140700000Y-65800000D02*
X140700000Y-65099647D01*
X140700000Y-65800000D02*
X140700000Y-66500353D01*
X137256066Y-64943345D02*
G75*
G02*
X137299976Y-65099647I-256066J-156255D01*
G01*
X137256066Y-64943345D02*
G75*
G02*
X137943345Y-64256066I426774J260505D01*
G01*
X137300000Y-66500353D02*
G75*
G02*
X137256065Y-66656654I-299680J-87D01*
G01*
X137943345Y-67343934D02*
G75*
G02*
X137256066Y-66656655I-260505J426774D01*
G01*
X137943345Y-67343934D02*
G75*
G02*
X138099647Y-67300024I156255J-256066D01*
G01*
X138099647Y-64300000D02*
G75*
G02*
X137943344Y-64256067I3J300020D01*
G01*
X139900353Y-67300000D02*
G75*
G02*
X140056655Y-67343934I3J-299992D01*
G01*
X140056655Y-64256066D02*
G75*
G02*
X139900353Y-64300000I-156299J256058D01*
G01*
X140056655Y-64256066D02*
G75*
G02*
X140743934Y-64943345I260503J-426776D01*
G01*
X140700000Y-65099647D02*
G75*
G02*
X140743934Y-64943345I299992J3D01*
G01*
X140743934Y-66656655D02*
G75*
G02*
X140056655Y-67343934I-426776J-260503D01*
G01*
X140743934Y-66656655D02*
G75*
G02*
X140700000Y-66500353I256058J156299D01*
G01*
%TO.C,D8*%
X137300000Y-51800000D02*
X137300000Y-51099647D01*
X137300000Y-51800000D02*
X137300000Y-52500353D01*
X139000000Y-50300000D02*
X138099647Y-50300000D01*
X139000000Y-50300000D02*
X139900353Y-50300000D01*
X139000000Y-53300000D02*
X138099647Y-53300000D01*
X139000000Y-53300000D02*
X139900353Y-53300000D01*
X140700000Y-51800000D02*
X140700000Y-51099647D01*
X140700000Y-51800000D02*
X140700000Y-52500353D01*
X137256066Y-50943345D02*
G75*
G02*
X137299976Y-51099647I-256066J-156255D01*
G01*
X137256066Y-50943345D02*
G75*
G02*
X137943345Y-50256066I426774J260505D01*
G01*
X137300000Y-52500353D02*
G75*
G02*
X137256065Y-52656654I-299680J-87D01*
G01*
X137943345Y-53343934D02*
G75*
G02*
X137256066Y-52656655I-260505J426774D01*
G01*
X137943345Y-53343934D02*
G75*
G02*
X138099647Y-53300024I156255J-256066D01*
G01*
X138099647Y-50300000D02*
G75*
G02*
X137943344Y-50256067I3J300020D01*
G01*
X139900353Y-53300000D02*
G75*
G02*
X140056655Y-53343934I3J-299992D01*
G01*
X140056655Y-50256066D02*
G75*
G02*
X139900353Y-50300000I-156299J256058D01*
G01*
X140056655Y-50256066D02*
G75*
G02*
X140743934Y-50943345I260503J-426776D01*
G01*
X140700000Y-51099647D02*
G75*
G02*
X140743934Y-50943345I299992J3D01*
G01*
X140743934Y-52656655D02*
G75*
G02*
X140056655Y-53343934I-426776J-260503D01*
G01*
X140743934Y-52656655D02*
G75*
G02*
X140700000Y-52500353I256058J156299D01*
G01*
%TO.C,D18*%
X194250000Y-132000000D02*
X194250000Y-131099647D01*
X194250000Y-132000000D02*
X194250000Y-132900353D01*
X195750000Y-130300000D02*
X195049647Y-130300000D01*
X195750000Y-130300000D02*
X196450353Y-130300000D01*
X195750000Y-133700000D02*
X195049647Y-133700000D01*
X195750000Y-133700000D02*
X196450353Y-133700000D01*
X197250000Y-132000000D02*
X197250000Y-131099647D01*
X197250000Y-132000000D02*
X197250000Y-132900353D01*
X194206066Y-130943345D02*
G75*
G02*
X194249976Y-131099647I-256066J-156255D01*
G01*
X194206066Y-130943345D02*
G75*
G02*
X194893345Y-130256066I426774J260505D01*
G01*
X194250000Y-132900353D02*
G75*
G02*
X194206066Y-133056655I-299992J-3D01*
G01*
X194893345Y-133743934D02*
G75*
G02*
X194206066Y-133056655I-260503J426776D01*
G01*
X194893345Y-133743934D02*
G75*
G02*
X195049647Y-133700000I156299J-256058D01*
G01*
X195049647Y-130300000D02*
G75*
G02*
X194893346Y-130256065I-87J299680D01*
G01*
X196450353Y-133700000D02*
G75*
G02*
X196606655Y-133743934I3J-299992D01*
G01*
X196606655Y-130256066D02*
G75*
G02*
X196450353Y-130299976I-156255J256066D01*
G01*
X196606655Y-130256066D02*
G75*
G02*
X197293934Y-130943345I260505J-426774D01*
G01*
X197250000Y-131099647D02*
G75*
G02*
X197293933Y-130943344I300020J-3D01*
G01*
X197293934Y-133056655D02*
G75*
G02*
X196606655Y-133743934I-426776J-260503D01*
G01*
X197293934Y-133056655D02*
G75*
G02*
X197250000Y-132900353I256058J156299D01*
G01*
%TO.C,D2*%
X64300000Y-43800000D02*
X64300000Y-43099647D01*
X64300000Y-43800000D02*
X64300000Y-44500353D01*
X66000000Y-42300000D02*
X65099647Y-42300000D01*
X66000000Y-42300000D02*
X66900353Y-42300000D01*
X66000000Y-45300000D02*
X65099647Y-45300000D01*
X66000000Y-45300000D02*
X66900353Y-45300000D01*
X67700000Y-43800000D02*
X67700000Y-43099647D01*
X67700000Y-43800000D02*
X67700000Y-44500353D01*
X64256066Y-42943345D02*
G75*
G02*
X64299976Y-43099647I-256066J-156255D01*
G01*
X64256066Y-42943345D02*
G75*
G02*
X64943345Y-42256066I426774J260505D01*
G01*
X64300000Y-44500353D02*
G75*
G02*
X64256065Y-44656654I-299680J-87D01*
G01*
X64943345Y-45343934D02*
G75*
G02*
X64256066Y-44656655I-260505J426774D01*
G01*
X64943345Y-45343934D02*
G75*
G02*
X65099647Y-45300024I156255J-256066D01*
G01*
X65099647Y-42300000D02*
G75*
G02*
X64943344Y-42256067I3J300020D01*
G01*
X66900353Y-45300000D02*
G75*
G02*
X67056655Y-45343934I3J-299992D01*
G01*
X67056655Y-42256066D02*
G75*
G02*
X66900353Y-42300000I-156299J256058D01*
G01*
X67056655Y-42256066D02*
G75*
G02*
X67743934Y-42943345I260503J-426776D01*
G01*
X67700000Y-43099647D02*
G75*
G02*
X67743934Y-42943345I299992J3D01*
G01*
X67743934Y-44656655D02*
G75*
G02*
X67056655Y-45343934I-426776J-260503D01*
G01*
X67743934Y-44656655D02*
G75*
G02*
X67700000Y-44500353I256058J156299D01*
G01*
%TO.C,D4*%
X33300000Y-60800000D02*
X33300000Y-60099647D01*
X33300000Y-60800000D02*
X33300000Y-61500353D01*
X35000000Y-59300000D02*
X34099647Y-59300000D01*
X35000000Y-59300000D02*
X35900353Y-59300000D01*
X35000000Y-62300000D02*
X34099647Y-62300000D01*
X35000000Y-62300000D02*
X35900353Y-62300000D01*
X36700000Y-60800000D02*
X36700000Y-60099647D01*
X36700000Y-60800000D02*
X36700000Y-61500353D01*
X33256066Y-59943345D02*
G75*
G02*
X33299976Y-60099647I-256066J-156255D01*
G01*
X33256066Y-59943345D02*
G75*
G02*
X33943345Y-59256066I426774J260505D01*
G01*
X33300000Y-61500353D02*
G75*
G02*
X33256065Y-61656654I-299680J-87D01*
G01*
X33943345Y-62343934D02*
G75*
G02*
X33256066Y-61656655I-260505J426774D01*
G01*
X33943345Y-62343934D02*
G75*
G02*
X34099647Y-62300024I156255J-256066D01*
G01*
X34099647Y-59300000D02*
G75*
G02*
X33943344Y-59256067I3J300020D01*
G01*
X35900353Y-62300000D02*
G75*
G02*
X36056655Y-62343934I3J-299992D01*
G01*
X36056655Y-59256066D02*
G75*
G02*
X35900353Y-59300000I-156299J256058D01*
G01*
X36056655Y-59256066D02*
G75*
G02*
X36743934Y-59943345I260503J-426776D01*
G01*
X36700000Y-60099647D02*
G75*
G02*
X36743934Y-59943345I299992J3D01*
G01*
X36743934Y-61656655D02*
G75*
G02*
X36056655Y-62343934I-426776J-260503D01*
G01*
X36743934Y-61656655D02*
G75*
G02*
X36700000Y-61500353I256058J156299D01*
G01*
%TO.C,D7*%
X124300000Y-51800000D02*
X124300000Y-51099647D01*
X124300000Y-51800000D02*
X124300000Y-52500353D01*
X126000000Y-50300000D02*
X125099647Y-50300000D01*
X126000000Y-50300000D02*
X126900353Y-50300000D01*
X126000000Y-53300000D02*
X125099647Y-53300000D01*
X126000000Y-53300000D02*
X126900353Y-53300000D01*
X127700000Y-51800000D02*
X127700000Y-51099647D01*
X127700000Y-51800000D02*
X127700000Y-52500353D01*
X124256066Y-50943345D02*
G75*
G02*
X124299976Y-51099647I-256066J-156255D01*
G01*
X124256066Y-50943345D02*
G75*
G02*
X124943345Y-50256066I426774J260505D01*
G01*
X124300000Y-52500353D02*
G75*
G02*
X124256065Y-52656654I-299680J-87D01*
G01*
X124943345Y-53343934D02*
G75*
G02*
X124256066Y-52656655I-260505J426774D01*
G01*
X124943345Y-53343934D02*
G75*
G02*
X125099647Y-53300024I156255J-256066D01*
G01*
X125099647Y-50300000D02*
G75*
G02*
X124943344Y-50256067I3J300020D01*
G01*
X126900353Y-53300000D02*
G75*
G02*
X127056655Y-53343934I3J-299992D01*
G01*
X127056655Y-50256066D02*
G75*
G02*
X126900353Y-50300000I-156299J256058D01*
G01*
X127056655Y-50256066D02*
G75*
G02*
X127743934Y-50943345I260503J-426776D01*
G01*
X127700000Y-51099647D02*
G75*
G02*
X127743934Y-50943345I299992J3D01*
G01*
X127743934Y-52656655D02*
G75*
G02*
X127056655Y-53343934I-426776J-260503D01*
G01*
X127743934Y-52656655D02*
G75*
G02*
X127700000Y-52500353I256058J156299D01*
G01*
%TO.C,D17*%
X164250000Y-132000000D02*
X164250000Y-131099647D01*
X164250000Y-132000000D02*
X164250000Y-132900353D01*
X165750000Y-130300000D02*
X165049647Y-130300000D01*
X165750000Y-130300000D02*
X166450353Y-130300000D01*
X165750000Y-133700000D02*
X165049647Y-133700000D01*
X165750000Y-133700000D02*
X166450353Y-133700000D01*
X167250000Y-132000000D02*
X167250000Y-131099647D01*
X167250000Y-132000000D02*
X167250000Y-132900353D01*
X164206066Y-130943345D02*
G75*
G02*
X164249976Y-131099647I-256066J-156255D01*
G01*
X164206066Y-130943345D02*
G75*
G02*
X164893345Y-130256066I426774J260505D01*
G01*
X164250000Y-132900353D02*
G75*
G02*
X164206066Y-133056655I-299992J-3D01*
G01*
X164893345Y-133743934D02*
G75*
G02*
X164206066Y-133056655I-260503J426776D01*
G01*
X164893345Y-133743934D02*
G75*
G02*
X165049647Y-133700000I156299J-256058D01*
G01*
X165049647Y-130300000D02*
G75*
G02*
X164893346Y-130256065I-87J299680D01*
G01*
X166450353Y-133700000D02*
G75*
G02*
X166606655Y-133743934I3J-299992D01*
G01*
X166606655Y-130256066D02*
G75*
G02*
X166450353Y-130299976I-156255J256066D01*
G01*
X166606655Y-130256066D02*
G75*
G02*
X167293934Y-130943345I260505J-426774D01*
G01*
X167250000Y-131099647D02*
G75*
G02*
X167293933Y-130943344I300020J-3D01*
G01*
X167293934Y-133056655D02*
G75*
G02*
X166606655Y-133743934I-426776J-260503D01*
G01*
X167293934Y-133056655D02*
G75*
G02*
X167250000Y-132900353I256058J156299D01*
G01*
%TO.C,D39*%
X284750000Y-143500000D02*
X284750000Y-142599647D01*
X284750000Y-143500000D02*
X284750000Y-144400353D01*
X286250000Y-141800000D02*
X285549647Y-141800000D01*
X286250000Y-141800000D02*
X286950353Y-141800000D01*
X286250000Y-145200000D02*
X285549647Y-145200000D01*
X286250000Y-145200000D02*
X286950353Y-145200000D01*
X287750000Y-143500000D02*
X287750000Y-142599647D01*
X287750000Y-143500000D02*
X287750000Y-144400353D01*
X284706066Y-142443345D02*
G75*
G02*
X284749976Y-142599647I-256066J-156255D01*
G01*
X284706066Y-142443345D02*
G75*
G02*
X285393345Y-141756066I426774J260505D01*
G01*
X284750000Y-144400353D02*
G75*
G02*
X284706066Y-144556655I-299992J-3D01*
G01*
X285393345Y-145243934D02*
G75*
G02*
X284706066Y-144556655I-260503J426776D01*
G01*
X285393345Y-145243934D02*
G75*
G02*
X285549647Y-145200000I156299J-256058D01*
G01*
X285549647Y-141800000D02*
G75*
G02*
X285393346Y-141756065I-87J299680D01*
G01*
X286950353Y-145200000D02*
G75*
G02*
X287106655Y-145243934I3J-299992D01*
G01*
X287106655Y-141756066D02*
G75*
G02*
X286950353Y-141799976I-156255J256066D01*
G01*
X287106655Y-141756066D02*
G75*
G02*
X287793934Y-142443345I260505J-426774D01*
G01*
X287750000Y-142599647D02*
G75*
G02*
X287793933Y-142443344I300020J-3D01*
G01*
X287793934Y-144556655D02*
G75*
G02*
X287106655Y-145243934I-426776J-260503D01*
G01*
X287793934Y-144556655D02*
G75*
G02*
X287750000Y-144400353I256058J156299D01*
G01*
%TO.C,D36*%
X256300000Y-233500000D02*
X256300000Y-232799647D01*
X256300000Y-233500000D02*
X256300000Y-234200353D01*
X258000000Y-232000000D02*
X257099647Y-232000000D01*
X258000000Y-232000000D02*
X258900353Y-232000000D01*
X258000000Y-235000000D02*
X257099647Y-235000000D01*
X258000000Y-235000000D02*
X258900353Y-235000000D01*
X259700000Y-233500000D02*
X259700000Y-232799647D01*
X259700000Y-233500000D02*
X259700000Y-234200353D01*
X256256066Y-232643345D02*
G75*
G02*
X256299976Y-232799647I-256066J-156255D01*
G01*
X256256066Y-232643345D02*
G75*
G02*
X256943345Y-231956066I426774J260505D01*
G01*
X256300000Y-234200353D02*
G75*
G02*
X256256065Y-234356654I-299680J-87D01*
G01*
X256943345Y-235043934D02*
G75*
G02*
X256256066Y-234356655I-260505J426774D01*
G01*
X256943345Y-235043934D02*
G75*
G02*
X257099647Y-235000024I156255J-256066D01*
G01*
X257099647Y-232000000D02*
G75*
G02*
X256943344Y-231956067I3J300020D01*
G01*
X258900353Y-235000000D02*
G75*
G02*
X259056655Y-235043934I3J-299992D01*
G01*
X259056655Y-231956066D02*
G75*
G02*
X258900353Y-232000000I-156299J256058D01*
G01*
X259056655Y-231956066D02*
G75*
G02*
X259743934Y-232643345I260503J-426776D01*
G01*
X259700000Y-232799647D02*
G75*
G02*
X259743934Y-232643345I299992J3D01*
G01*
X259743934Y-234356655D02*
G75*
G02*
X259056655Y-235043934I-426776J-260503D01*
G01*
X259743934Y-234356655D02*
G75*
G02*
X259700000Y-234200353I256058J156299D01*
G01*
%TO.C,D40*%
X307750000Y-143500000D02*
X307750000Y-142599647D01*
X307750000Y-143500000D02*
X307750000Y-144400353D01*
X309250000Y-141800000D02*
X308549647Y-141800000D01*
X309250000Y-141800000D02*
X309950353Y-141800000D01*
X309250000Y-145200000D02*
X308549647Y-145200000D01*
X309250000Y-145200000D02*
X309950353Y-145200000D01*
X310750000Y-143500000D02*
X310750000Y-142599647D01*
X310750000Y-143500000D02*
X310750000Y-144400353D01*
X307706066Y-142443345D02*
G75*
G02*
X307749976Y-142599647I-256066J-156255D01*
G01*
X307706066Y-142443345D02*
G75*
G02*
X308393345Y-141756066I426774J260505D01*
G01*
X307750000Y-144400353D02*
G75*
G02*
X307706066Y-144556655I-299992J-3D01*
G01*
X308393345Y-145243934D02*
G75*
G02*
X307706066Y-144556655I-260503J426776D01*
G01*
X308393345Y-145243934D02*
G75*
G02*
X308549647Y-145200000I156299J-256058D01*
G01*
X308549647Y-141800000D02*
G75*
G02*
X308393346Y-141756065I-87J299680D01*
G01*
X309950353Y-145200000D02*
G75*
G02*
X310106655Y-145243934I3J-299992D01*
G01*
X310106655Y-141756066D02*
G75*
G02*
X309950353Y-141799976I-156255J256066D01*
G01*
X310106655Y-141756066D02*
G75*
G02*
X310793934Y-142443345I260505J-426774D01*
G01*
X310750000Y-142599647D02*
G75*
G02*
X310793933Y-142443344I300020J-3D01*
G01*
X310793934Y-144556655D02*
G75*
G02*
X310106655Y-145243934I-426776J-260503D01*
G01*
X310793934Y-144556655D02*
G75*
G02*
X310750000Y-144400353I256058J156299D01*
G01*
%TO.C,D16*%
X134250000Y-132000000D02*
X134250000Y-131099647D01*
X134250000Y-132000000D02*
X134250000Y-132900353D01*
X135750000Y-130300000D02*
X135049647Y-130300000D01*
X135750000Y-130300000D02*
X136450353Y-130300000D01*
X135750000Y-133700000D02*
X135049647Y-133700000D01*
X135750000Y-133700000D02*
X136450353Y-133700000D01*
X137250000Y-132000000D02*
X137250000Y-131099647D01*
X137250000Y-132000000D02*
X137250000Y-132900353D01*
X134206066Y-130943345D02*
G75*
G02*
X134249976Y-131099647I-256066J-156255D01*
G01*
X134206066Y-130943345D02*
G75*
G02*
X134893345Y-130256066I426774J260505D01*
G01*
X134250000Y-132900353D02*
G75*
G02*
X134206066Y-133056655I-299992J-3D01*
G01*
X134893345Y-133743934D02*
G75*
G02*
X134206066Y-133056655I-260503J426776D01*
G01*
X134893345Y-133743934D02*
G75*
G02*
X135049647Y-133700000I156299J-256058D01*
G01*
X135049647Y-130300000D02*
G75*
G02*
X134893346Y-130256065I-87J299680D01*
G01*
X136450353Y-133700000D02*
G75*
G02*
X136606655Y-133743934I3J-299992D01*
G01*
X136606655Y-130256066D02*
G75*
G02*
X136450353Y-130299976I-156255J256066D01*
G01*
X136606655Y-130256066D02*
G75*
G02*
X137293934Y-130943345I260505J-426774D01*
G01*
X137250000Y-131099647D02*
G75*
G02*
X137293933Y-130943344I300020J-3D01*
G01*
X137293934Y-133056655D02*
G75*
G02*
X136606655Y-133743934I-426776J-260503D01*
G01*
X137293934Y-133056655D02*
G75*
G02*
X137250000Y-132900353I256058J156299D01*
G01*
%TO.C,D27*%
X226300000Y-201500000D02*
X226300000Y-200799647D01*
X226300000Y-201500000D02*
X226300000Y-202200353D01*
X228000000Y-200000000D02*
X227099647Y-200000000D01*
X228000000Y-200000000D02*
X228900353Y-200000000D01*
X228000000Y-203000000D02*
X227099647Y-203000000D01*
X228000000Y-203000000D02*
X228900353Y-203000000D01*
X229700000Y-201500000D02*
X229700000Y-200799647D01*
X229700000Y-201500000D02*
X229700000Y-202200353D01*
X226256066Y-200643345D02*
G75*
G02*
X226299976Y-200799647I-256066J-156255D01*
G01*
X226256066Y-200643345D02*
G75*
G02*
X226943345Y-199956066I426774J260505D01*
G01*
X226300000Y-202200353D02*
G75*
G02*
X226256065Y-202356654I-299680J-87D01*
G01*
X226943345Y-203043934D02*
G75*
G02*
X226256066Y-202356655I-260505J426774D01*
G01*
X226943345Y-203043934D02*
G75*
G02*
X227099647Y-203000024I156255J-256066D01*
G01*
X227099647Y-200000000D02*
G75*
G02*
X226943344Y-199956067I3J300020D01*
G01*
X228900353Y-203000000D02*
G75*
G02*
X229056655Y-203043934I3J-299992D01*
G01*
X229056655Y-199956066D02*
G75*
G02*
X228900353Y-200000000I-156299J256058D01*
G01*
X229056655Y-199956066D02*
G75*
G02*
X229743934Y-200643345I260503J-426776D01*
G01*
X229700000Y-200799647D02*
G75*
G02*
X229743934Y-200643345I299992J3D01*
G01*
X229743934Y-202356655D02*
G75*
G02*
X229056655Y-203043934I-426776J-260503D01*
G01*
X229743934Y-202356655D02*
G75*
G02*
X229700000Y-202200353I256058J156299D01*
G01*
%TO.C,D3*%
X79800000Y-43800000D02*
X79800000Y-43099647D01*
X79800000Y-43800000D02*
X79800000Y-44500353D01*
X81500000Y-42300000D02*
X80599647Y-42300000D01*
X81500000Y-42300000D02*
X82400353Y-42300000D01*
X81500000Y-45300000D02*
X80599647Y-45300000D01*
X81500000Y-45300000D02*
X82400353Y-45300000D01*
X83200000Y-43800000D02*
X83200000Y-43099647D01*
X83200000Y-43800000D02*
X83200000Y-44500353D01*
X79756066Y-42943345D02*
G75*
G02*
X79799976Y-43099647I-256066J-156255D01*
G01*
X79756066Y-42943345D02*
G75*
G02*
X80443345Y-42256066I426774J260505D01*
G01*
X79800000Y-44500353D02*
G75*
G02*
X79756065Y-44656654I-299680J-87D01*
G01*
X80443345Y-45343934D02*
G75*
G02*
X79756066Y-44656655I-260505J426774D01*
G01*
X80443345Y-45343934D02*
G75*
G02*
X80599647Y-45300024I156255J-256066D01*
G01*
X80599647Y-42300000D02*
G75*
G02*
X80443344Y-42256067I3J300020D01*
G01*
X82400353Y-45300000D02*
G75*
G02*
X82556655Y-45343934I3J-299992D01*
G01*
X82556655Y-42256066D02*
G75*
G02*
X82400353Y-42300000I-156299J256058D01*
G01*
X82556655Y-42256066D02*
G75*
G02*
X83243934Y-42943345I260503J-426776D01*
G01*
X83200000Y-43099647D02*
G75*
G02*
X83243934Y-42943345I299992J3D01*
G01*
X83243934Y-44656655D02*
G75*
G02*
X82556655Y-45343934I-426776J-260503D01*
G01*
X83243934Y-44656655D02*
G75*
G02*
X83200000Y-44500353I256058J156299D01*
G01*
%TO.C,D12*%
X150300000Y-65800000D02*
X150300000Y-65099647D01*
X150300000Y-65800000D02*
X150300000Y-66500353D01*
X152000000Y-64300000D02*
X151099647Y-64300000D01*
X152000000Y-64300000D02*
X152900353Y-64300000D01*
X152000000Y-67300000D02*
X151099647Y-67300000D01*
X152000000Y-67300000D02*
X152900353Y-67300000D01*
X153700000Y-65800000D02*
X153700000Y-65099647D01*
X153700000Y-65800000D02*
X153700000Y-66500353D01*
X150256066Y-64943345D02*
G75*
G02*
X150299976Y-65099647I-256066J-156255D01*
G01*
X150256066Y-64943345D02*
G75*
G02*
X150943345Y-64256066I426774J260505D01*
G01*
X150300000Y-66500353D02*
G75*
G02*
X150256065Y-66656654I-299680J-87D01*
G01*
X150943345Y-67343934D02*
G75*
G02*
X150256066Y-66656655I-260505J426774D01*
G01*
X150943345Y-67343934D02*
G75*
G02*
X151099647Y-67300024I156255J-256066D01*
G01*
X151099647Y-64300000D02*
G75*
G02*
X150943344Y-64256067I3J300020D01*
G01*
X152900353Y-67300000D02*
G75*
G02*
X153056655Y-67343934I3J-299992D01*
G01*
X153056655Y-64256066D02*
G75*
G02*
X152900353Y-64300000I-156299J256058D01*
G01*
X153056655Y-64256066D02*
G75*
G02*
X153743934Y-64943345I260503J-426776D01*
G01*
X153700000Y-65099647D02*
G75*
G02*
X153743934Y-64943345I299992J3D01*
G01*
X153743934Y-66656655D02*
G75*
G02*
X153056655Y-67343934I-426776J-260503D01*
G01*
X153743934Y-66656655D02*
G75*
G02*
X153700000Y-66500353I256058J156299D01*
G01*
%TO.C,D38*%
X307750000Y-132500000D02*
X307750000Y-131599647D01*
X307750000Y-132500000D02*
X307750000Y-133400353D01*
X309250000Y-130800000D02*
X308549647Y-130800000D01*
X309250000Y-130800000D02*
X309950353Y-130800000D01*
X309250000Y-134200000D02*
X308549647Y-134200000D01*
X309250000Y-134200000D02*
X309950353Y-134200000D01*
X310750000Y-132500000D02*
X310750000Y-131599647D01*
X310750000Y-132500000D02*
X310750000Y-133400353D01*
X307706066Y-131443345D02*
G75*
G02*
X307749976Y-131599647I-256066J-156255D01*
G01*
X307706066Y-131443345D02*
G75*
G02*
X308393345Y-130756066I426774J260505D01*
G01*
X307750000Y-133400353D02*
G75*
G02*
X307706066Y-133556655I-299992J-3D01*
G01*
X308393345Y-134243934D02*
G75*
G02*
X307706066Y-133556655I-260503J426776D01*
G01*
X308393345Y-134243934D02*
G75*
G02*
X308549647Y-134200000I156299J-256058D01*
G01*
X308549647Y-130800000D02*
G75*
G02*
X308393346Y-130756065I-87J299680D01*
G01*
X309950353Y-134200000D02*
G75*
G02*
X310106655Y-134243934I3J-299992D01*
G01*
X310106655Y-130756066D02*
G75*
G02*
X309950353Y-130799976I-156255J256066D01*
G01*
X310106655Y-130756066D02*
G75*
G02*
X310793934Y-131443345I260505J-426774D01*
G01*
X310750000Y-131599647D02*
G75*
G02*
X310793933Y-131443344I300020J-3D01*
G01*
X310793934Y-133556655D02*
G75*
G02*
X310106655Y-134243934I-426776J-260503D01*
G01*
X310793934Y-133556655D02*
G75*
G02*
X310750000Y-133400353I256058J156299D01*
G01*
%TO.C,D1*%
X33300000Y-43800000D02*
X33300000Y-43099647D01*
X33300000Y-43800000D02*
X33300000Y-44500353D01*
X35000000Y-42300000D02*
X34099647Y-42300000D01*
X35000000Y-42300000D02*
X35900353Y-42300000D01*
X35000000Y-45300000D02*
X34099647Y-45300000D01*
X35000000Y-45300000D02*
X35900353Y-45300000D01*
X36700000Y-43800000D02*
X36700000Y-43099647D01*
X36700000Y-43800000D02*
X36700000Y-44500353D01*
X33256066Y-42943345D02*
G75*
G02*
X33299976Y-43099647I-256066J-156255D01*
G01*
X33256066Y-42943345D02*
G75*
G02*
X33943345Y-42256066I426774J260505D01*
G01*
X33300000Y-44500353D02*
G75*
G02*
X33256065Y-44656654I-299680J-87D01*
G01*
X33943345Y-45343934D02*
G75*
G02*
X33256066Y-44656655I-260505J426774D01*
G01*
X33943345Y-45343934D02*
G75*
G02*
X34099647Y-45300024I156255J-256066D01*
G01*
X34099647Y-42300000D02*
G75*
G02*
X33943344Y-42256067I3J300020D01*
G01*
X35900353Y-45300000D02*
G75*
G02*
X36056655Y-45343934I3J-299992D01*
G01*
X36056655Y-42256066D02*
G75*
G02*
X35900353Y-42300000I-156299J256058D01*
G01*
X36056655Y-42256066D02*
G75*
G02*
X36743934Y-42943345I260503J-426776D01*
G01*
X36700000Y-43099647D02*
G75*
G02*
X36743934Y-42943345I299992J3D01*
G01*
X36743934Y-44656655D02*
G75*
G02*
X36056655Y-45343934I-426776J-260503D01*
G01*
X36743934Y-44656655D02*
G75*
G02*
X36700000Y-44500353I256058J156299D01*
G01*
%TO.C,D24*%
X136300000Y-201500000D02*
X136300000Y-200799647D01*
X136300000Y-201500000D02*
X136300000Y-202200353D01*
X138000000Y-200000000D02*
X137099647Y-200000000D01*
X138000000Y-200000000D02*
X138900353Y-200000000D01*
X138000000Y-203000000D02*
X137099647Y-203000000D01*
X138000000Y-203000000D02*
X138900353Y-203000000D01*
X139700000Y-201500000D02*
X139700000Y-200799647D01*
X139700000Y-201500000D02*
X139700000Y-202200353D01*
X136256066Y-200643345D02*
G75*
G02*
X136299976Y-200799647I-256066J-156255D01*
G01*
X136256066Y-200643345D02*
G75*
G02*
X136943345Y-199956066I426774J260505D01*
G01*
X136300000Y-202200353D02*
G75*
G02*
X136256065Y-202356654I-299680J-87D01*
G01*
X136943345Y-203043934D02*
G75*
G02*
X136256066Y-202356655I-260505J426774D01*
G01*
X136943345Y-203043934D02*
G75*
G02*
X137099647Y-203000024I156255J-256066D01*
G01*
X137099647Y-200000000D02*
G75*
G02*
X136943344Y-199956067I3J300020D01*
G01*
X138900353Y-203000000D02*
G75*
G02*
X139056655Y-203043934I3J-299992D01*
G01*
X139056655Y-199956066D02*
G75*
G02*
X138900353Y-200000000I-156299J256058D01*
G01*
X139056655Y-199956066D02*
G75*
G02*
X139743934Y-200643345I260503J-426776D01*
G01*
X139700000Y-200799647D02*
G75*
G02*
X139743934Y-200643345I299992J3D01*
G01*
X139743934Y-202356655D02*
G75*
G02*
X139056655Y-203043934I-426776J-260503D01*
G01*
X139743934Y-202356655D02*
G75*
G02*
X139700000Y-202200353I256058J156299D01*
G01*
%TO.C,D37*%
X284750000Y-132500000D02*
X284750000Y-131599647D01*
X284750000Y-132500000D02*
X284750000Y-133400353D01*
X286250000Y-130800000D02*
X285549647Y-130800000D01*
X286250000Y-130800000D02*
X286950353Y-130800000D01*
X286250000Y-134200000D02*
X285549647Y-134200000D01*
X286250000Y-134200000D02*
X286950353Y-134200000D01*
X287750000Y-132500000D02*
X287750000Y-131599647D01*
X287750000Y-132500000D02*
X287750000Y-133400353D01*
X284706066Y-131443345D02*
G75*
G02*
X284749976Y-131599647I-256066J-156255D01*
G01*
X284706066Y-131443345D02*
G75*
G02*
X285393345Y-130756066I426774J260505D01*
G01*
X284750000Y-133400353D02*
G75*
G02*
X284706066Y-133556655I-299992J-3D01*
G01*
X285393345Y-134243934D02*
G75*
G02*
X284706066Y-133556655I-260503J426776D01*
G01*
X285393345Y-134243934D02*
G75*
G02*
X285549647Y-134200000I156299J-256058D01*
G01*
X285549647Y-130800000D02*
G75*
G02*
X285393346Y-130756065I-87J299680D01*
G01*
X286950353Y-134200000D02*
G75*
G02*
X287106655Y-134243934I3J-299992D01*
G01*
X287106655Y-130756066D02*
G75*
G02*
X286950353Y-130799976I-156255J256066D01*
G01*
X287106655Y-130756066D02*
G75*
G02*
X287793934Y-131443345I260505J-426774D01*
G01*
X287750000Y-131599647D02*
G75*
G02*
X287793933Y-131443344I300020J-3D01*
G01*
X287793934Y-133556655D02*
G75*
G02*
X287106655Y-134243934I-426776J-260503D01*
G01*
X287793934Y-133556655D02*
G75*
G02*
X287750000Y-133400353I256058J156299D01*
G01*
%TO.C,D31*%
X106300000Y-233500000D02*
X106300000Y-232799647D01*
X106300000Y-233500000D02*
X106300000Y-234200353D01*
X108000000Y-232000000D02*
X107099647Y-232000000D01*
X108000000Y-232000000D02*
X108900353Y-232000000D01*
X108000000Y-235000000D02*
X107099647Y-235000000D01*
X108000000Y-235000000D02*
X108900353Y-235000000D01*
X109700000Y-233500000D02*
X109700000Y-232799647D01*
X109700000Y-233500000D02*
X109700000Y-234200353D01*
X106256066Y-232643345D02*
G75*
G02*
X106299976Y-232799647I-256066J-156255D01*
G01*
X106256066Y-232643345D02*
G75*
G02*
X106943345Y-231956066I426774J260505D01*
G01*
X106300000Y-234200353D02*
G75*
G02*
X106256065Y-234356654I-299680J-87D01*
G01*
X106943345Y-235043934D02*
G75*
G02*
X106256066Y-234356655I-260505J426774D01*
G01*
X106943345Y-235043934D02*
G75*
G02*
X107099647Y-235000024I156255J-256066D01*
G01*
X107099647Y-232000000D02*
G75*
G02*
X106943344Y-231956067I3J300020D01*
G01*
X108900353Y-235000000D02*
G75*
G02*
X109056655Y-235043934I3J-299992D01*
G01*
X109056655Y-231956066D02*
G75*
G02*
X108900353Y-232000000I-156299J256058D01*
G01*
X109056655Y-231956066D02*
G75*
G02*
X109743934Y-232643345I260503J-426776D01*
G01*
X109700000Y-232799647D02*
G75*
G02*
X109743934Y-232643345I299992J3D01*
G01*
X109743934Y-234356655D02*
G75*
G02*
X109056655Y-235043934I-426776J-260503D01*
G01*
X109743934Y-234356655D02*
G75*
G02*
X109700000Y-234200353I256058J156299D01*
G01*
%TO.C,D34*%
X196300000Y-233500000D02*
X196300000Y-232799647D01*
X196300000Y-233500000D02*
X196300000Y-234200353D01*
X198000000Y-232000000D02*
X197099647Y-232000000D01*
X198000000Y-232000000D02*
X198900353Y-232000000D01*
X198000000Y-235000000D02*
X197099647Y-235000000D01*
X198000000Y-235000000D02*
X198900353Y-235000000D01*
X199700000Y-233500000D02*
X199700000Y-232799647D01*
X199700000Y-233500000D02*
X199700000Y-234200353D01*
X196256066Y-232643345D02*
G75*
G02*
X196299976Y-232799647I-256066J-156255D01*
G01*
X196256066Y-232643345D02*
G75*
G02*
X196943345Y-231956066I426774J260505D01*
G01*
X196300000Y-234200353D02*
G75*
G02*
X196256065Y-234356654I-299680J-87D01*
G01*
X196943345Y-235043934D02*
G75*
G02*
X196256066Y-234356655I-260505J426774D01*
G01*
X196943345Y-235043934D02*
G75*
G02*
X197099647Y-235000024I156255J-256066D01*
G01*
X197099647Y-232000000D02*
G75*
G02*
X196943344Y-231956067I3J300020D01*
G01*
X198900353Y-235000000D02*
G75*
G02*
X199056655Y-235043934I3J-299992D01*
G01*
X199056655Y-231956066D02*
G75*
G02*
X198900353Y-232000000I-156299J256058D01*
G01*
X199056655Y-231956066D02*
G75*
G02*
X199743934Y-232643345I260503J-426776D01*
G01*
X199700000Y-232799647D02*
G75*
G02*
X199743934Y-232643345I299992J3D01*
G01*
X199743934Y-234356655D02*
G75*
G02*
X199056655Y-235043934I-426776J-260503D01*
G01*
X199743934Y-234356655D02*
G75*
G02*
X199700000Y-234200353I256058J156299D01*
G01*
%TO.C,D21*%
X46300000Y-201500000D02*
X46300000Y-200799647D01*
X46300000Y-201500000D02*
X46300000Y-202200353D01*
X48000000Y-200000000D02*
X47099647Y-200000000D01*
X48000000Y-200000000D02*
X48900353Y-200000000D01*
X48000000Y-203000000D02*
X47099647Y-203000000D01*
X48000000Y-203000000D02*
X48900353Y-203000000D01*
X49700000Y-201500000D02*
X49700000Y-200799647D01*
X49700000Y-201500000D02*
X49700000Y-202200353D01*
X46256066Y-200643345D02*
G75*
G02*
X46299976Y-200799647I-256066J-156255D01*
G01*
X46256066Y-200643345D02*
G75*
G02*
X46943345Y-199956066I426774J260505D01*
G01*
X46300000Y-202200353D02*
G75*
G02*
X46256065Y-202356654I-299680J-87D01*
G01*
X46943345Y-203043934D02*
G75*
G02*
X46256066Y-202356655I-260505J426774D01*
G01*
X46943345Y-203043934D02*
G75*
G02*
X47099647Y-203000024I156255J-256066D01*
G01*
X47099647Y-200000000D02*
G75*
G02*
X46943344Y-199956067I3J300020D01*
G01*
X48900353Y-203000000D02*
G75*
G02*
X49056655Y-203043934I3J-299992D01*
G01*
X49056655Y-199956066D02*
G75*
G02*
X48900353Y-200000000I-156299J256058D01*
G01*
X49056655Y-199956066D02*
G75*
G02*
X49743934Y-200643345I260503J-426776D01*
G01*
X49700000Y-200799647D02*
G75*
G02*
X49743934Y-200643345I299992J3D01*
G01*
X49743934Y-202356655D02*
G75*
G02*
X49056655Y-203043934I-426776J-260503D01*
G01*
X49743934Y-202356655D02*
G75*
G02*
X49700000Y-202200353I256058J156299D01*
G01*
%TO.C,D13*%
X44250000Y-132000000D02*
X44250000Y-131099647D01*
X44250000Y-132000000D02*
X44250000Y-132900353D01*
X45750000Y-130300000D02*
X45049647Y-130300000D01*
X45750000Y-130300000D02*
X46450353Y-130300000D01*
X45750000Y-133700000D02*
X45049647Y-133700000D01*
X45750000Y-133700000D02*
X46450353Y-133700000D01*
X47250000Y-132000000D02*
X47250000Y-131099647D01*
X47250000Y-132000000D02*
X47250000Y-132900353D01*
X44206066Y-130943345D02*
G75*
G02*
X44249976Y-131099647I-256066J-156255D01*
G01*
X44206066Y-130943345D02*
G75*
G02*
X44893345Y-130256066I426774J260505D01*
G01*
X44250000Y-132900353D02*
G75*
G02*
X44206066Y-133056655I-299992J-3D01*
G01*
X44893345Y-133743934D02*
G75*
G02*
X44206066Y-133056655I-260503J426776D01*
G01*
X44893345Y-133743934D02*
G75*
G02*
X45049647Y-133700000I156299J-256058D01*
G01*
X45049647Y-130300000D02*
G75*
G02*
X44893346Y-130256065I-87J299680D01*
G01*
X46450353Y-133700000D02*
G75*
G02*
X46606655Y-133743934I3J-299992D01*
G01*
X46606655Y-130256066D02*
G75*
G02*
X46450353Y-130299976I-156255J256066D01*
G01*
X46606655Y-130256066D02*
G75*
G02*
X47293934Y-130943345I260505J-426774D01*
G01*
X47250000Y-131099647D02*
G75*
G02*
X47293933Y-130943344I300020J-3D01*
G01*
X47293934Y-133056655D02*
G75*
G02*
X46606655Y-133743934I-426776J-260503D01*
G01*
X47293934Y-133056655D02*
G75*
G02*
X47250000Y-132900353I256058J156299D01*
G01*
%TO.C,D25*%
X166300000Y-201500000D02*
X166300000Y-200799647D01*
X166300000Y-201500000D02*
X166300000Y-202200353D01*
X168000000Y-200000000D02*
X167099647Y-200000000D01*
X168000000Y-200000000D02*
X168900353Y-200000000D01*
X168000000Y-203000000D02*
X167099647Y-203000000D01*
X168000000Y-203000000D02*
X168900353Y-203000000D01*
X169700000Y-201500000D02*
X169700000Y-200799647D01*
X169700000Y-201500000D02*
X169700000Y-202200353D01*
X166256066Y-200643345D02*
G75*
G02*
X166299976Y-200799647I-256066J-156255D01*
G01*
X166256066Y-200643345D02*
G75*
G02*
X166943345Y-199956066I426774J260505D01*
G01*
X166300000Y-202200353D02*
G75*
G02*
X166256065Y-202356654I-299680J-87D01*
G01*
X166943345Y-203043934D02*
G75*
G02*
X166256066Y-202356655I-260505J426774D01*
G01*
X166943345Y-203043934D02*
G75*
G02*
X167099647Y-203000024I156255J-256066D01*
G01*
X167099647Y-200000000D02*
G75*
G02*
X166943344Y-199956067I3J300020D01*
G01*
X168900353Y-203000000D02*
G75*
G02*
X169056655Y-203043934I3J-299992D01*
G01*
X169056655Y-199956066D02*
G75*
G02*
X168900353Y-200000000I-156299J256058D01*
G01*
X169056655Y-199956066D02*
G75*
G02*
X169743934Y-200643345I260503J-426776D01*
G01*
X169700000Y-200799647D02*
G75*
G02*
X169743934Y-200643345I299992J3D01*
G01*
X169743934Y-202356655D02*
G75*
G02*
X169056655Y-203043934I-426776J-260503D01*
G01*
X169743934Y-202356655D02*
G75*
G02*
X169700000Y-202200353I256058J156299D01*
G01*
%TO.C,D22*%
X76300000Y-201500000D02*
X76300000Y-200799647D01*
X76300000Y-201500000D02*
X76300000Y-202200353D01*
X78000000Y-200000000D02*
X77099647Y-200000000D01*
X78000000Y-200000000D02*
X78900353Y-200000000D01*
X78000000Y-203000000D02*
X77099647Y-203000000D01*
X78000000Y-203000000D02*
X78900353Y-203000000D01*
X79700000Y-201500000D02*
X79700000Y-200799647D01*
X79700000Y-201500000D02*
X79700000Y-202200353D01*
X76256066Y-200643345D02*
G75*
G02*
X76299976Y-200799647I-256066J-156255D01*
G01*
X76256066Y-200643345D02*
G75*
G02*
X76943345Y-199956066I426774J260505D01*
G01*
X76300000Y-202200353D02*
G75*
G02*
X76256065Y-202356654I-299680J-87D01*
G01*
X76943345Y-203043934D02*
G75*
G02*
X76256066Y-202356655I-260505J426774D01*
G01*
X76943345Y-203043934D02*
G75*
G02*
X77099647Y-203000024I156255J-256066D01*
G01*
X77099647Y-200000000D02*
G75*
G02*
X76943344Y-199956067I3J300020D01*
G01*
X78900353Y-203000000D02*
G75*
G02*
X79056655Y-203043934I3J-299992D01*
G01*
X79056655Y-199956066D02*
G75*
G02*
X78900353Y-200000000I-156299J256058D01*
G01*
X79056655Y-199956066D02*
G75*
G02*
X79743934Y-200643345I260503J-426776D01*
G01*
X79700000Y-200799647D02*
G75*
G02*
X79743934Y-200643345I299992J3D01*
G01*
X79743934Y-202356655D02*
G75*
G02*
X79056655Y-203043934I-426776J-260503D01*
G01*
X79743934Y-202356655D02*
G75*
G02*
X79700000Y-202200353I256058J156299D01*
G01*
%TO.C,D26*%
X196300000Y-201500000D02*
X196300000Y-200799647D01*
X196300000Y-201500000D02*
X196300000Y-202200353D01*
X198000000Y-200000000D02*
X197099647Y-200000000D01*
X198000000Y-200000000D02*
X198900353Y-200000000D01*
X198000000Y-203000000D02*
X197099647Y-203000000D01*
X198000000Y-203000000D02*
X198900353Y-203000000D01*
X199700000Y-201500000D02*
X199700000Y-200799647D01*
X199700000Y-201500000D02*
X199700000Y-202200353D01*
X196256066Y-200643345D02*
G75*
G02*
X196299976Y-200799647I-256066J-156255D01*
G01*
X196256066Y-200643345D02*
G75*
G02*
X196943345Y-199956066I426774J260505D01*
G01*
X196300000Y-202200353D02*
G75*
G02*
X196256065Y-202356654I-299680J-87D01*
G01*
X196943345Y-203043934D02*
G75*
G02*
X196256066Y-202356655I-260505J426774D01*
G01*
X196943345Y-203043934D02*
G75*
G02*
X197099647Y-203000024I156255J-256066D01*
G01*
X197099647Y-200000000D02*
G75*
G02*
X196943344Y-199956067I3J300020D01*
G01*
X198900353Y-203000000D02*
G75*
G02*
X199056655Y-203043934I3J-299992D01*
G01*
X199056655Y-199956066D02*
G75*
G02*
X198900353Y-200000000I-156299J256058D01*
G01*
X199056655Y-199956066D02*
G75*
G02*
X199743934Y-200643345I260503J-426776D01*
G01*
X199700000Y-200799647D02*
G75*
G02*
X199743934Y-200643345I299992J3D01*
G01*
X199743934Y-202356655D02*
G75*
G02*
X199056655Y-203043934I-426776J-260503D01*
G01*
X199743934Y-202356655D02*
G75*
G02*
X199700000Y-202200353I256058J156299D01*
G01*
%TO.C,D42*%
X307750000Y-237000000D02*
X307750000Y-236099647D01*
X307750000Y-237000000D02*
X307750000Y-237900353D01*
X309250000Y-235300000D02*
X308549647Y-235300000D01*
X309250000Y-235300000D02*
X309950353Y-235300000D01*
X309250000Y-238700000D02*
X308549647Y-238700000D01*
X309250000Y-238700000D02*
X309950353Y-238700000D01*
X310750000Y-237000000D02*
X310750000Y-236099647D01*
X310750000Y-237000000D02*
X310750000Y-237900353D01*
X307706066Y-235943345D02*
G75*
G02*
X307749976Y-236099647I-256066J-156255D01*
G01*
X307706066Y-235943345D02*
G75*
G02*
X308393345Y-235256066I426774J260505D01*
G01*
X307750000Y-237900353D02*
G75*
G02*
X307706066Y-238056655I-299992J-3D01*
G01*
X308393345Y-238743934D02*
G75*
G02*
X307706066Y-238056655I-260503J426776D01*
G01*
X308393345Y-238743934D02*
G75*
G02*
X308549647Y-238700000I156299J-256058D01*
G01*
X308549647Y-235300000D02*
G75*
G02*
X308393346Y-235256065I-87J299680D01*
G01*
X309950353Y-238700000D02*
G75*
G02*
X310106655Y-238743934I3J-299992D01*
G01*
X310106655Y-235256066D02*
G75*
G02*
X309950353Y-235299976I-156255J256066D01*
G01*
X310106655Y-235256066D02*
G75*
G02*
X310793934Y-235943345I260505J-426774D01*
G01*
X310750000Y-236099647D02*
G75*
G02*
X310793933Y-235943344I300020J-3D01*
G01*
X310793934Y-238056655D02*
G75*
G02*
X310106655Y-238743934I-426776J-260503D01*
G01*
X310793934Y-238056655D02*
G75*
G02*
X310750000Y-237900353I256058J156299D01*
G01*
%TO.C,D29*%
X46300000Y-233500000D02*
X46300000Y-232799647D01*
X46300000Y-233500000D02*
X46300000Y-234200353D01*
X48000000Y-232000000D02*
X47099647Y-232000000D01*
X48000000Y-232000000D02*
X48900353Y-232000000D01*
X48000000Y-235000000D02*
X47099647Y-235000000D01*
X48000000Y-235000000D02*
X48900353Y-235000000D01*
X49700000Y-233500000D02*
X49700000Y-232799647D01*
X49700000Y-233500000D02*
X49700000Y-234200353D01*
X46256066Y-232643345D02*
G75*
G02*
X46299976Y-232799647I-256066J-156255D01*
G01*
X46256066Y-232643345D02*
G75*
G02*
X46943345Y-231956066I426774J260505D01*
G01*
X46300000Y-234200353D02*
G75*
G02*
X46256065Y-234356654I-299680J-87D01*
G01*
X46943345Y-235043934D02*
G75*
G02*
X46256066Y-234356655I-260505J426774D01*
G01*
X46943345Y-235043934D02*
G75*
G02*
X47099647Y-235000024I156255J-256066D01*
G01*
X47099647Y-232000000D02*
G75*
G02*
X46943344Y-231956067I3J300020D01*
G01*
X48900353Y-235000000D02*
G75*
G02*
X49056655Y-235043934I3J-299992D01*
G01*
X49056655Y-231956066D02*
G75*
G02*
X48900353Y-232000000I-156299J256058D01*
G01*
X49056655Y-231956066D02*
G75*
G02*
X49743934Y-232643345I260503J-426776D01*
G01*
X49700000Y-232799647D02*
G75*
G02*
X49743934Y-232643345I299992J3D01*
G01*
X49743934Y-234356655D02*
G75*
G02*
X49056655Y-235043934I-426776J-260503D01*
G01*
X49743934Y-234356655D02*
G75*
G02*
X49700000Y-234200353I256058J156299D01*
G01*
%TO.C,D10*%
X124300000Y-65800000D02*
X124300000Y-65099647D01*
X124300000Y-65800000D02*
X124300000Y-66500353D01*
X126000000Y-64300000D02*
X125099647Y-64300000D01*
X126000000Y-64300000D02*
X126900353Y-64300000D01*
X126000000Y-67300000D02*
X125099647Y-67300000D01*
X126000000Y-67300000D02*
X126900353Y-67300000D01*
X127700000Y-65800000D02*
X127700000Y-65099647D01*
X127700000Y-65800000D02*
X127700000Y-66500353D01*
X124256066Y-64943345D02*
G75*
G02*
X124299976Y-65099647I-256066J-156255D01*
G01*
X124256066Y-64943345D02*
G75*
G02*
X124943345Y-64256066I426774J260505D01*
G01*
X124300000Y-66500353D02*
G75*
G02*
X124256065Y-66656654I-299680J-87D01*
G01*
X124943345Y-67343934D02*
G75*
G02*
X124256066Y-66656655I-260505J426774D01*
G01*
X124943345Y-67343934D02*
G75*
G02*
X125099647Y-67300024I156255J-256066D01*
G01*
X125099647Y-64300000D02*
G75*
G02*
X124943344Y-64256067I3J300020D01*
G01*
X126900353Y-67300000D02*
G75*
G02*
X127056655Y-67343934I3J-299992D01*
G01*
X127056655Y-64256066D02*
G75*
G02*
X126900353Y-64300000I-156299J256058D01*
G01*
X127056655Y-64256066D02*
G75*
G02*
X127743934Y-64943345I260503J-426776D01*
G01*
X127700000Y-65099647D02*
G75*
G02*
X127743934Y-64943345I299992J3D01*
G01*
X127743934Y-66656655D02*
G75*
G02*
X127056655Y-67343934I-426776J-260503D01*
G01*
X127743934Y-66656655D02*
G75*
G02*
X127700000Y-66500353I256058J156299D01*
G01*
%TO.C,D20*%
X254250000Y-132000000D02*
X254250000Y-131099647D01*
X254250000Y-132000000D02*
X254250000Y-132900353D01*
X255750000Y-130300000D02*
X255049647Y-130300000D01*
X255750000Y-130300000D02*
X256450353Y-130300000D01*
X255750000Y-133700000D02*
X255049647Y-133700000D01*
X255750000Y-133700000D02*
X256450353Y-133700000D01*
X257250000Y-132000000D02*
X257250000Y-131099647D01*
X257250000Y-132000000D02*
X257250000Y-132900353D01*
X254206066Y-130943345D02*
G75*
G02*
X254249976Y-131099647I-256066J-156255D01*
G01*
X254206066Y-130943345D02*
G75*
G02*
X254893345Y-130256066I426774J260505D01*
G01*
X254250000Y-132900353D02*
G75*
G02*
X254206066Y-133056655I-299992J-3D01*
G01*
X254893345Y-133743934D02*
G75*
G02*
X254206066Y-133056655I-260503J426776D01*
G01*
X254893345Y-133743934D02*
G75*
G02*
X255049647Y-133700000I156299J-256058D01*
G01*
X255049647Y-130300000D02*
G75*
G02*
X254893346Y-130256065I-87J299680D01*
G01*
X256450353Y-133700000D02*
G75*
G02*
X256606655Y-133743934I3J-299992D01*
G01*
X256606655Y-130256066D02*
G75*
G02*
X256450353Y-130299976I-156255J256066D01*
G01*
X256606655Y-130256066D02*
G75*
G02*
X257293934Y-130943345I260505J-426774D01*
G01*
X257250000Y-131099647D02*
G75*
G02*
X257293933Y-130943344I300020J-3D01*
G01*
X257293934Y-133056655D02*
G75*
G02*
X256606655Y-133743934I-426776J-260503D01*
G01*
X257293934Y-133056655D02*
G75*
G02*
X257250000Y-132900353I256058J156299D01*
G01*
%TO.C,D35*%
X226300000Y-233500000D02*
X226300000Y-232799647D01*
X226300000Y-233500000D02*
X226300000Y-234200353D01*
X228000000Y-232000000D02*
X227099647Y-232000000D01*
X228000000Y-232000000D02*
X228900353Y-232000000D01*
X228000000Y-235000000D02*
X227099647Y-235000000D01*
X228000000Y-235000000D02*
X228900353Y-235000000D01*
X229700000Y-233500000D02*
X229700000Y-232799647D01*
X229700000Y-233500000D02*
X229700000Y-234200353D01*
X226256066Y-232643345D02*
G75*
G02*
X226299976Y-232799647I-256066J-156255D01*
G01*
X226256066Y-232643345D02*
G75*
G02*
X226943345Y-231956066I426774J260505D01*
G01*
X226300000Y-234200353D02*
G75*
G02*
X226256065Y-234356654I-299680J-87D01*
G01*
X226943345Y-235043934D02*
G75*
G02*
X226256066Y-234356655I-260505J426774D01*
G01*
X226943345Y-235043934D02*
G75*
G02*
X227099647Y-235000024I156255J-256066D01*
G01*
X227099647Y-232000000D02*
G75*
G02*
X226943344Y-231956067I3J300020D01*
G01*
X228900353Y-235000000D02*
G75*
G02*
X229056655Y-235043934I3J-299992D01*
G01*
X229056655Y-231956066D02*
G75*
G02*
X228900353Y-232000000I-156299J256058D01*
G01*
X229056655Y-231956066D02*
G75*
G02*
X229743934Y-232643345I260503J-426776D01*
G01*
X229700000Y-232799647D02*
G75*
G02*
X229743934Y-232643345I299992J3D01*
G01*
X229743934Y-234356655D02*
G75*
G02*
X229056655Y-235043934I-426776J-260503D01*
G01*
X229743934Y-234356655D02*
G75*
G02*
X229700000Y-234200353I256058J156299D01*
G01*
%TO.C,D28*%
X256300000Y-201500000D02*
X256300000Y-200799647D01*
X256300000Y-201500000D02*
X256300000Y-202200353D01*
X258000000Y-200000000D02*
X257099647Y-200000000D01*
X258000000Y-200000000D02*
X258900353Y-200000000D01*
X258000000Y-203000000D02*
X257099647Y-203000000D01*
X258000000Y-203000000D02*
X258900353Y-203000000D01*
X259700000Y-201500000D02*
X259700000Y-200799647D01*
X259700000Y-201500000D02*
X259700000Y-202200353D01*
X256256066Y-200643345D02*
G75*
G02*
X256299976Y-200799647I-256066J-156255D01*
G01*
X256256066Y-200643345D02*
G75*
G02*
X256943345Y-199956066I426774J260505D01*
G01*
X256300000Y-202200353D02*
G75*
G02*
X256256065Y-202356654I-299680J-87D01*
G01*
X256943345Y-203043934D02*
G75*
G02*
X256256066Y-202356655I-260505J426774D01*
G01*
X256943345Y-203043934D02*
G75*
G02*
X257099647Y-203000024I156255J-256066D01*
G01*
X257099647Y-200000000D02*
G75*
G02*
X256943344Y-199956067I3J300020D01*
G01*
X258900353Y-203000000D02*
G75*
G02*
X259056655Y-203043934I3J-299992D01*
G01*
X259056655Y-199956066D02*
G75*
G02*
X258900353Y-200000000I-156299J256058D01*
G01*
X259056655Y-199956066D02*
G75*
G02*
X259743934Y-200643345I260503J-426776D01*
G01*
X259700000Y-200799647D02*
G75*
G02*
X259743934Y-200643345I299992J3D01*
G01*
X259743934Y-202356655D02*
G75*
G02*
X259056655Y-203043934I-426776J-260503D01*
G01*
X259743934Y-202356655D02*
G75*
G02*
X259700000Y-202200353I256058J156299D01*
G01*
%TO.C,D33*%
X166300000Y-233500000D02*
X166300000Y-232799647D01*
X166300000Y-233500000D02*
X166300000Y-234200353D01*
X168000000Y-232000000D02*
X167099647Y-232000000D01*
X168000000Y-232000000D02*
X168900353Y-232000000D01*
X168000000Y-235000000D02*
X167099647Y-235000000D01*
X168000000Y-235000000D02*
X168900353Y-235000000D01*
X169700000Y-233500000D02*
X169700000Y-232799647D01*
X169700000Y-233500000D02*
X169700000Y-234200353D01*
X166256066Y-232643345D02*
G75*
G02*
X166299976Y-232799647I-256066J-156255D01*
G01*
X166256066Y-232643345D02*
G75*
G02*
X166943345Y-231956066I426774J260505D01*
G01*
X166300000Y-234200353D02*
G75*
G02*
X166256065Y-234356654I-299680J-87D01*
G01*
X166943345Y-235043934D02*
G75*
G02*
X166256066Y-234356655I-260505J426774D01*
G01*
X166943345Y-235043934D02*
G75*
G02*
X167099647Y-235000024I156255J-256066D01*
G01*
X167099647Y-232000000D02*
G75*
G02*
X166943344Y-231956067I3J300020D01*
G01*
X168900353Y-235000000D02*
G75*
G02*
X169056655Y-235043934I3J-299992D01*
G01*
X169056655Y-231956066D02*
G75*
G02*
X168900353Y-232000000I-156299J256058D01*
G01*
X169056655Y-231956066D02*
G75*
G02*
X169743934Y-232643345I260503J-426776D01*
G01*
X169700000Y-232799647D02*
G75*
G02*
X169743934Y-232643345I299992J3D01*
G01*
X169743934Y-234356655D02*
G75*
G02*
X169056655Y-235043934I-426776J-260503D01*
G01*
X169743934Y-234356655D02*
G75*
G02*
X169700000Y-234200353I256058J156299D01*
G01*
%TO.C,D5*%
X48800000Y-60800000D02*
X48800000Y-60099647D01*
X48800000Y-60800000D02*
X48800000Y-61500353D01*
X50500000Y-59300000D02*
X49599647Y-59300000D01*
X50500000Y-59300000D02*
X51400353Y-59300000D01*
X50500000Y-62300000D02*
X49599647Y-62300000D01*
X50500000Y-62300000D02*
X51400353Y-62300000D01*
X52200000Y-60800000D02*
X52200000Y-60099647D01*
X52200000Y-60800000D02*
X52200000Y-61500353D01*
X48756066Y-59943345D02*
G75*
G02*
X48799976Y-60099647I-256066J-156255D01*
G01*
X48756066Y-59943345D02*
G75*
G02*
X49443345Y-59256066I426774J260505D01*
G01*
X48800000Y-61500353D02*
G75*
G02*
X48756065Y-61656654I-299680J-87D01*
G01*
X49443345Y-62343934D02*
G75*
G02*
X48756066Y-61656655I-260505J426774D01*
G01*
X49443345Y-62343934D02*
G75*
G02*
X49599647Y-62300024I156255J-256066D01*
G01*
X49599647Y-59300000D02*
G75*
G02*
X49443344Y-59256067I3J300020D01*
G01*
X51400353Y-62300000D02*
G75*
G02*
X51556655Y-62343934I3J-299992D01*
G01*
X51556655Y-59256066D02*
G75*
G02*
X51400353Y-59300000I-156299J256058D01*
G01*
X51556655Y-59256066D02*
G75*
G02*
X52243934Y-59943345I260503J-426776D01*
G01*
X52200000Y-60099647D02*
G75*
G02*
X52243934Y-59943345I299992J3D01*
G01*
X52243934Y-61656655D02*
G75*
G02*
X51556655Y-62343934I-426776J-260503D01*
G01*
X52243934Y-61656655D02*
G75*
G02*
X52200000Y-61500353I256058J156299D01*
G01*
%TO.C,D23*%
X106300000Y-201500000D02*
X106300000Y-200799647D01*
X106300000Y-201500000D02*
X106300000Y-202200353D01*
X108000000Y-200000000D02*
X107099647Y-200000000D01*
X108000000Y-200000000D02*
X108900353Y-200000000D01*
X108000000Y-203000000D02*
X107099647Y-203000000D01*
X108000000Y-203000000D02*
X108900353Y-203000000D01*
X109700000Y-201500000D02*
X109700000Y-200799647D01*
X109700000Y-201500000D02*
X109700000Y-202200353D01*
X106256066Y-200643345D02*
G75*
G02*
X106299976Y-200799647I-256066J-156255D01*
G01*
X106256066Y-200643345D02*
G75*
G02*
X106943345Y-199956066I426774J260505D01*
G01*
X106300000Y-202200353D02*
G75*
G02*
X106256065Y-202356654I-299680J-87D01*
G01*
X106943345Y-203043934D02*
G75*
G02*
X106256066Y-202356655I-260505J426774D01*
G01*
X106943345Y-203043934D02*
G75*
G02*
X107099647Y-203000024I156255J-256066D01*
G01*
X107099647Y-200000000D02*
G75*
G02*
X106943344Y-199956067I3J300020D01*
G01*
X108900353Y-203000000D02*
G75*
G02*
X109056655Y-203043934I3J-299992D01*
G01*
X109056655Y-199956066D02*
G75*
G02*
X108900353Y-200000000I-156299J256058D01*
G01*
X109056655Y-199956066D02*
G75*
G02*
X109743934Y-200643345I260503J-426776D01*
G01*
X109700000Y-200799647D02*
G75*
G02*
X109743934Y-200643345I299992J3D01*
G01*
X109743934Y-202356655D02*
G75*
G02*
X109056655Y-203043934I-426776J-260503D01*
G01*
X109743934Y-202356655D02*
G75*
G02*
X109700000Y-202200353I256058J156299D01*
G01*
%TO.C,D9*%
X150300000Y-51800000D02*
X150300000Y-51099647D01*
X150300000Y-51800000D02*
X150300000Y-52500353D01*
X152000000Y-50300000D02*
X151099647Y-50300000D01*
X152000000Y-50300000D02*
X152900353Y-50300000D01*
X152000000Y-53300000D02*
X151099647Y-53300000D01*
X152000000Y-53300000D02*
X152900353Y-53300000D01*
X153700000Y-51800000D02*
X153700000Y-51099647D01*
X153700000Y-51800000D02*
X153700000Y-52500353D01*
X150256066Y-50943345D02*
G75*
G02*
X150299976Y-51099647I-256066J-156255D01*
G01*
X150256066Y-50943345D02*
G75*
G02*
X150943345Y-50256066I426774J260505D01*
G01*
X150300000Y-52500353D02*
G75*
G02*
X150256065Y-52656654I-299680J-87D01*
G01*
X150943345Y-53343934D02*
G75*
G02*
X150256066Y-52656655I-260505J426774D01*
G01*
X150943345Y-53343934D02*
G75*
G02*
X151099647Y-53300024I156255J-256066D01*
G01*
X151099647Y-50300000D02*
G75*
G02*
X150943344Y-50256067I3J300020D01*
G01*
X152900353Y-53300000D02*
G75*
G02*
X153056655Y-53343934I3J-299992D01*
G01*
X153056655Y-50256066D02*
G75*
G02*
X152900353Y-50300000I-156299J256058D01*
G01*
X153056655Y-50256066D02*
G75*
G02*
X153743934Y-50943345I260503J-426776D01*
G01*
X153700000Y-51099647D02*
G75*
G02*
X153743934Y-50943345I299992J3D01*
G01*
X153743934Y-52656655D02*
G75*
G02*
X153056655Y-53343934I-426776J-260503D01*
G01*
X153743934Y-52656655D02*
G75*
G02*
X153700000Y-52500353I256058J156299D01*
G01*
%TO.C,D15*%
X104250000Y-132000000D02*
X104250000Y-131099647D01*
X104250000Y-132000000D02*
X104250000Y-132900353D01*
X105750000Y-130300000D02*
X105049647Y-130300000D01*
X105750000Y-130300000D02*
X106450353Y-130300000D01*
X105750000Y-133700000D02*
X105049647Y-133700000D01*
X105750000Y-133700000D02*
X106450353Y-133700000D01*
X107250000Y-132000000D02*
X107250000Y-131099647D01*
X107250000Y-132000000D02*
X107250000Y-132900353D01*
X104206066Y-130943345D02*
G75*
G02*
X104249976Y-131099647I-256066J-156255D01*
G01*
X104206066Y-130943345D02*
G75*
G02*
X104893345Y-130256066I426774J260505D01*
G01*
X104250000Y-132900353D02*
G75*
G02*
X104206066Y-133056655I-299992J-3D01*
G01*
X104893345Y-133743934D02*
G75*
G02*
X104206066Y-133056655I-260503J426776D01*
G01*
X104893345Y-133743934D02*
G75*
G02*
X105049647Y-133700000I156299J-256058D01*
G01*
X105049647Y-130300000D02*
G75*
G02*
X104893346Y-130256065I-87J299680D01*
G01*
X106450353Y-133700000D02*
G75*
G02*
X106606655Y-133743934I3J-299992D01*
G01*
X106606655Y-130256066D02*
G75*
G02*
X106450353Y-130299976I-156255J256066D01*
G01*
X106606655Y-130256066D02*
G75*
G02*
X107293934Y-130943345I260505J-426774D01*
G01*
X107250000Y-131099647D02*
G75*
G02*
X107293933Y-130943344I300020J-3D01*
G01*
X107293934Y-133056655D02*
G75*
G02*
X106606655Y-133743934I-426776J-260503D01*
G01*
X107293934Y-133056655D02*
G75*
G02*
X107250000Y-132900353I256058J156299D01*
G01*
%TO.C,D30*%
X76300000Y-233500000D02*
X76300000Y-232799647D01*
X76300000Y-233500000D02*
X76300000Y-234200353D01*
X78000000Y-232000000D02*
X77099647Y-232000000D01*
X78000000Y-232000000D02*
X78900353Y-232000000D01*
X78000000Y-235000000D02*
X77099647Y-235000000D01*
X78000000Y-235000000D02*
X78900353Y-235000000D01*
X79700000Y-233500000D02*
X79700000Y-232799647D01*
X79700000Y-233500000D02*
X79700000Y-234200353D01*
X76256066Y-232643345D02*
G75*
G02*
X76299976Y-232799647I-256066J-156255D01*
G01*
X76256066Y-232643345D02*
G75*
G02*
X76943345Y-231956066I426774J260505D01*
G01*
X76300000Y-234200353D02*
G75*
G02*
X76256065Y-234356654I-299680J-87D01*
G01*
X76943345Y-235043934D02*
G75*
G02*
X76256066Y-234356655I-260505J426774D01*
G01*
X76943345Y-235043934D02*
G75*
G02*
X77099647Y-235000024I156255J-256066D01*
G01*
X77099647Y-232000000D02*
G75*
G02*
X76943344Y-231956067I3J300020D01*
G01*
X78900353Y-235000000D02*
G75*
G02*
X79056655Y-235043934I3J-299992D01*
G01*
X79056655Y-231956066D02*
G75*
G02*
X78900353Y-232000000I-156299J256058D01*
G01*
X79056655Y-231956066D02*
G75*
G02*
X79743934Y-232643345I260503J-426776D01*
G01*
X79700000Y-232799647D02*
G75*
G02*
X79743934Y-232643345I299992J3D01*
G01*
X79743934Y-234356655D02*
G75*
G02*
X79056655Y-235043934I-426776J-260503D01*
G01*
X79743934Y-234356655D02*
G75*
G02*
X79700000Y-234200353I256058J156299D01*
G01*
%TO.C,D14*%
X74250000Y-132000000D02*
X74250000Y-131099647D01*
X74250000Y-132000000D02*
X74250000Y-132900353D01*
X75750000Y-130300000D02*
X75049647Y-130300000D01*
X75750000Y-130300000D02*
X76450353Y-130300000D01*
X75750000Y-133700000D02*
X75049647Y-133700000D01*
X75750000Y-133700000D02*
X76450353Y-133700000D01*
X77250000Y-132000000D02*
X77250000Y-131099647D01*
X77250000Y-132000000D02*
X77250000Y-132900353D01*
X74206066Y-130943345D02*
G75*
G02*
X74249976Y-131099647I-256066J-156255D01*
G01*
X74206066Y-130943345D02*
G75*
G02*
X74893345Y-130256066I426774J260505D01*
G01*
X74250000Y-132900353D02*
G75*
G02*
X74206066Y-133056655I-299992J-3D01*
G01*
X74893345Y-133743934D02*
G75*
G02*
X74206066Y-133056655I-260503J426776D01*
G01*
X74893345Y-133743934D02*
G75*
G02*
X75049647Y-133700000I156299J-256058D01*
G01*
X75049647Y-130300000D02*
G75*
G02*
X74893346Y-130256065I-87J299680D01*
G01*
X76450353Y-133700000D02*
G75*
G02*
X76606655Y-133743934I3J-299992D01*
G01*
X76606655Y-130256066D02*
G75*
G02*
X76450353Y-130299976I-156255J256066D01*
G01*
X76606655Y-130256066D02*
G75*
G02*
X77293934Y-130943345I260505J-426774D01*
G01*
X77250000Y-131099647D02*
G75*
G02*
X77293933Y-130943344I300020J-3D01*
G01*
X77293934Y-133056655D02*
G75*
G02*
X76606655Y-133743934I-426776J-260503D01*
G01*
X77293934Y-133056655D02*
G75*
G02*
X77250000Y-132900353I256058J156299D01*
G01*
%TO.C,D41*%
X284750000Y-237000000D02*
X284750000Y-236099647D01*
X284750000Y-237000000D02*
X284750000Y-237900353D01*
X286250000Y-235300000D02*
X285549647Y-235300000D01*
X286250000Y-235300000D02*
X286950353Y-235300000D01*
X286250000Y-238700000D02*
X285549647Y-238700000D01*
X286250000Y-238700000D02*
X286950353Y-238700000D01*
X287750000Y-237000000D02*
X287750000Y-236099647D01*
X287750000Y-237000000D02*
X287750000Y-237900353D01*
X284706066Y-235943345D02*
G75*
G02*
X284749976Y-236099647I-256066J-156255D01*
G01*
X284706066Y-235943345D02*
G75*
G02*
X285393345Y-235256066I426774J260505D01*
G01*
X284750000Y-237900353D02*
G75*
G02*
X284706066Y-238056655I-299992J-3D01*
G01*
X285393345Y-238743934D02*
G75*
G02*
X284706066Y-238056655I-260503J426776D01*
G01*
X285393345Y-238743934D02*
G75*
G02*
X285549647Y-238700000I156299J-256058D01*
G01*
X285549647Y-235300000D02*
G75*
G02*
X285393346Y-235256065I-87J299680D01*
G01*
X286950353Y-238700000D02*
G75*
G02*
X287106655Y-238743934I3J-299992D01*
G01*
X287106655Y-235256066D02*
G75*
G02*
X286950353Y-235299976I-156255J256066D01*
G01*
X287106655Y-235256066D02*
G75*
G02*
X287793934Y-235943345I260505J-426774D01*
G01*
X287750000Y-236099647D02*
G75*
G02*
X287793933Y-235943344I300020J-3D01*
G01*
X287793934Y-238056655D02*
G75*
G02*
X287106655Y-238743934I-426776J-260503D01*
G01*
X287793934Y-238056655D02*
G75*
G02*
X287750000Y-237900353I256058J156299D01*
G01*
%TO.C,D32*%
X136300000Y-233500000D02*
X136300000Y-232799647D01*
X136300000Y-233500000D02*
X136300000Y-234200353D01*
X138000000Y-232000000D02*
X137099647Y-232000000D01*
X138000000Y-232000000D02*
X138900353Y-232000000D01*
X138000000Y-235000000D02*
X137099647Y-235000000D01*
X138000000Y-235000000D02*
X138900353Y-235000000D01*
X139700000Y-233500000D02*
X139700000Y-232799647D01*
X139700000Y-233500000D02*
X139700000Y-234200353D01*
X136256066Y-232643345D02*
G75*
G02*
X136299976Y-232799647I-256066J-156255D01*
G01*
X136256066Y-232643345D02*
G75*
G02*
X136943345Y-231956066I426774J260505D01*
G01*
X136300000Y-234200353D02*
G75*
G02*
X136256065Y-234356654I-299680J-87D01*
G01*
X136943345Y-235043934D02*
G75*
G02*
X136256066Y-234356655I-260505J426774D01*
G01*
X136943345Y-235043934D02*
G75*
G02*
X137099647Y-235000024I156255J-256066D01*
G01*
X137099647Y-232000000D02*
G75*
G02*
X136943344Y-231956067I3J300020D01*
G01*
X138900353Y-235000000D02*
G75*
G02*
X139056655Y-235043934I3J-299992D01*
G01*
X139056655Y-231956066D02*
G75*
G02*
X138900353Y-232000000I-156299J256058D01*
G01*
X139056655Y-231956066D02*
G75*
G02*
X139743934Y-232643345I260503J-426776D01*
G01*
X139700000Y-232799647D02*
G75*
G02*
X139743934Y-232643345I299992J3D01*
G01*
X139743934Y-234356655D02*
G75*
G02*
X139056655Y-235043934I-426776J-260503D01*
G01*
X139743934Y-234356655D02*
G75*
G02*
X139700000Y-234200353I256058J156299D01*
G01*
%TO.C,D19*%
X224250000Y-132000000D02*
X224250000Y-131099647D01*
X224250000Y-132000000D02*
X224250000Y-132900353D01*
X225750000Y-130300000D02*
X225049647Y-130300000D01*
X225750000Y-130300000D02*
X226450353Y-130300000D01*
X225750000Y-133700000D02*
X225049647Y-133700000D01*
X225750000Y-133700000D02*
X226450353Y-133700000D01*
X227250000Y-132000000D02*
X227250000Y-131099647D01*
X227250000Y-132000000D02*
X227250000Y-132900353D01*
X224206066Y-130943345D02*
G75*
G02*
X224249976Y-131099647I-256066J-156255D01*
G01*
X224206066Y-130943345D02*
G75*
G02*
X224893345Y-130256066I426774J260505D01*
G01*
X224250000Y-132900353D02*
G75*
G02*
X224206066Y-133056655I-299992J-3D01*
G01*
X224893345Y-133743934D02*
G75*
G02*
X224206066Y-133056655I-260503J426776D01*
G01*
X224893345Y-133743934D02*
G75*
G02*
X225049647Y-133700000I156299J-256058D01*
G01*
X225049647Y-130300000D02*
G75*
G02*
X224893346Y-130256065I-87J299680D01*
G01*
X226450353Y-133700000D02*
G75*
G02*
X226606655Y-133743934I3J-299992D01*
G01*
X226606655Y-130256066D02*
G75*
G02*
X226450353Y-130299976I-156255J256066D01*
G01*
X226606655Y-130256066D02*
G75*
G02*
X227293934Y-130943345I260505J-426774D01*
G01*
X227250000Y-131099647D02*
G75*
G02*
X227293933Y-130943344I300020J-3D01*
G01*
X227293934Y-133056655D02*
G75*
G02*
X226606655Y-133743934I-426776J-260503D01*
G01*
X227293934Y-133056655D02*
G75*
G02*
X227250000Y-132900353I256058J156299D01*
G01*
%TD*%
M02*
