%TF.GenerationSoftware,KiCad,Pcbnew,10.0.6*%
%TF.CreationDate,2026-10-03T20:53:01-05:00*%
%TF.ProjectId,deck,6465636b-2e6b-4696-9361-645f70636258,rev?*%
%TF.SameCoordinates,Original*%
%TF.FileFunction,Legend,Bot*%
%TF.FilePolarity,Positive*%
%FSLAX46Y46*%
G04 Gerber Fmt 4.6, Leading zero omitted, Abs format (unit mm)*
G04 Created by KiCad (PCBNEW 10.0.6) date 2026-10-03 20:53:01*
%MOMM*%
%LPD*%
G01*
G04 APERTURE LIST*
G04 Aperture macros list*
%AMRoundRect*
0 Rectangle with rounded corners*
0 $1 Rounding radius*
0 $2 $3 $4 $5 $6 $7 $8 $9 X,Y pos of 4 corners*
0 Add a 4 corners polygon primitive as box body*
4,1,4,$2,$3,$4,$5,$6,$7,$8,$9,$2,$3,0*
0 Add four circle primitives for the rounded corners*
1,1,$1+$1,$2,$3*
1,1,$1+$1,$4,$5*
1,1,$1+$1,$6,$7*
1,1,$1+$1,$8,$9*
0 Add four rect primitives between the rounded corners*
20,1,$1+$1,$2,$3,$4,$5,0*
20,1,$1+$1,$4,$5,$6,$7,0*
20,1,$1+$1,$6,$7,$8,$9,0*
20,1,$1+$1,$8,$9,$2,$3,0*%
%AMFreePoly0*
4,1,37,0.800000,0.796148,0.878414,0.796148,1.032228,0.765552,1.177117,0.705537,1.307515,0.618408,1.418408,0.507515,1.505537,0.377117,1.565552,0.232228,1.596148,0.078414,1.596148,-0.078414,1.565552,-0.232228,1.505537,-0.377117,1.418408,-0.507515,1.307515,-0.618408,1.177117,-0.705537,1.032228,-0.765552,0.878414,-0.796148,0.800000,-0.796148,0.800000,-0.800000,-1.400000,-0.800000,
-1.403843,-0.796157,-1.439018,-0.796157,-1.511114,-0.766294,-1.566294,-0.711114,-1.596157,-0.639018,-1.596157,-0.603843,-1.600000,-0.600000,-1.600000,0.600000,-1.596157,0.603843,-1.596157,0.639018,-1.566294,0.711114,-1.511114,0.766294,-1.439018,0.796157,-1.403843,0.796157,-1.400000,0.800000,0.800000,0.800000,0.800000,0.796148,0.800000,0.796148,$1*%
%AMFreePoly1*
4,1,37,1.403843,0.796157,1.439018,0.796157,1.511114,0.766294,1.566294,0.711114,1.596157,0.639018,1.596157,0.603843,1.600000,0.600000,1.600000,-0.600000,1.596157,-0.603843,1.596157,-0.639018,1.566294,-0.711114,1.511114,-0.766294,1.439018,-0.796157,1.403843,-0.796157,1.400000,-0.800000,-0.800000,-0.800000,-0.800000,-0.796148,-0.878414,-0.796148,-1.032228,-0.765552,-1.177117,-0.705537,
-1.307515,-0.618408,-1.418408,-0.507515,-1.505537,-0.377117,-1.565552,-0.232228,-1.596148,-0.078414,-1.596148,0.078414,-1.565552,0.232228,-1.505537,0.377117,-1.418408,0.507515,-1.307515,0.618408,-1.177117,0.705537,-1.032228,0.765552,-0.878414,0.796148,-0.800000,0.796148,-0.800000,0.800000,1.400000,0.800000,1.403843,0.796157,1.403843,0.796157,$1*%
%AMFreePoly2*
4,1,37,1.600000,0.796148,1.678414,0.796148,1.832228,0.765552,1.977117,0.705537,2.107515,0.618408,2.218408,0.507515,2.305537,0.377117,2.365552,0.232228,2.396148,0.078414,2.396148,-0.078414,2.365552,-0.232228,2.305537,-0.377117,2.218408,-0.507515,2.107515,-0.618408,1.977117,-0.705537,1.832228,-0.765552,1.678414,-0.796148,1.600000,-0.796148,1.600000,-0.800000,-0.600000,-0.800000,
-0.603843,-0.796157,-0.639018,-0.796157,-0.711114,-0.766294,-0.766294,-0.711114,-0.796157,-0.639018,-0.796157,-0.603843,-0.800000,-0.600000,-0.800000,0.600000,-0.796157,0.603843,-0.796157,0.639018,-0.766294,0.711114,-0.711114,0.766294,-0.639018,0.796157,-0.603843,0.796157,-0.600000,0.800000,1.600000,0.800000,1.600000,0.796148,1.600000,0.796148,$1*%
G04 Aperture macros list end*
%ADD10C,0.312500*%
%ADD11C,0.120000*%
%ADD12C,2.000000*%
%ADD13C,3.200000*%
%ADD14R,1.700000X1.700000*%
%ADD15C,1.700000*%
%ADD16R,2.000000X2.000000*%
%ADD17R,3.200000X2.000000*%
%ADD18R,1.750000X1.750000*%
%ADD19C,1.750000*%
%ADD20C,2.700000*%
%ADD21R,0.800000X0.500000*%
%ADD22R,0.800000X0.400000*%
%ADD23RoundRect,0.250000X0.250000X0.475000X-0.250000X0.475000X-0.250000X-0.475000X0.250000X-0.475000X0*%
%ADD24RoundRect,0.205000X0.470000X0.205000X-0.470000X0.205000X-0.470000X-0.205000X0.470000X-0.205000X0*%
%ADD25RoundRect,0.225000X0.225000X0.250000X-0.225000X0.250000X-0.225000X-0.250000X0.225000X-0.250000X0*%
%ADD26RoundRect,0.225000X-0.250000X0.225000X-0.250000X-0.225000X0.250000X-0.225000X0.250000X0.225000X0*%
%ADD27RoundRect,0.150000X-0.150000X0.825000X-0.150000X-0.825000X0.150000X-0.825000X0.150000X0.825000X0*%
%ADD28RoundRect,0.205000X0.205000X-0.470000X0.205000X0.470000X-0.205000X0.470000X-0.205000X-0.470000X0*%
%ADD29RoundRect,0.200000X-0.275000X0.200000X-0.275000X-0.200000X0.275000X-0.200000X0.275000X0.200000X0*%
%ADD30RoundRect,0.150000X0.825000X0.150000X-0.825000X0.150000X-0.825000X-0.150000X0.825000X-0.150000X0*%
%ADD31RoundRect,0.200000X0.200000X0.275000X-0.200000X0.275000X-0.200000X-0.275000X0.200000X-0.275000X0*%
%ADD32R,0.500000X0.800000*%
%ADD33R,0.400000X0.800000*%
%ADD34O,1.800000X1.100000*%
%ADD35O,1.450000X1.050000*%
%ADD36FreePoly0,270.000000*%
%ADD37RoundRect,0.800000X-0.000010X0.800000X-0.000010X-0.800000X0.000010X-0.800000X0.000010X0.800000X0*%
%ADD38FreePoly1,270.000000*%
%ADD39RoundRect,0.800000X0.800000X0.000010X-0.800000X0.000010X-0.800000X-0.000010X0.800000X-0.000010X0*%
%ADD40FreePoly2,0.000000*%
%ADD41RoundRect,0.300000X-0.450000X0.450000X-0.450000X-0.450000X0.450000X-0.450000X0.450000X0.450000X0*%
%ADD42RoundRect,0.250000X-1.000000X1.500000X-1.000000X-1.500000X1.000000X-1.500000X1.000000X1.500000X0*%
%ADD43RoundRect,0.150000X-0.150000X0.875000X-0.150000X-0.875000X0.150000X-0.875000X0.150000X0.875000X0*%
%ADD44RoundRect,0.150000X0.875000X0.150000X-0.875000X0.150000X-0.875000X-0.150000X0.875000X-0.150000X0*%
G04 APERTURE END LIST*
D10*
X203154762Y-264140297D02*
X203154762Y-261640297D01*
X203154762Y-261640297D02*
X202202381Y-261640297D01*
X202202381Y-261640297D02*
X201964286Y-261759345D01*
X201964286Y-261759345D02*
X201845239Y-261878392D01*
X201845239Y-261878392D02*
X201726191Y-262116488D01*
X201726191Y-262116488D02*
X201726191Y-262473630D01*
X201726191Y-262473630D02*
X201845239Y-262711726D01*
X201845239Y-262711726D02*
X201964286Y-262830773D01*
X201964286Y-262830773D02*
X202202381Y-262949821D01*
X202202381Y-262949821D02*
X203154762Y-262949821D01*
X200654762Y-264140297D02*
X200654762Y-261640297D01*
X200654762Y-262830773D02*
X199226191Y-262830773D01*
X199226191Y-264140297D02*
X199226191Y-261640297D01*
X197559524Y-261640297D02*
X197083333Y-261640297D01*
X197083333Y-261640297D02*
X196845238Y-261759345D01*
X196845238Y-261759345D02*
X196607143Y-261997440D01*
X196607143Y-261997440D02*
X196488095Y-262473630D01*
X196488095Y-262473630D02*
X196488095Y-263306964D01*
X196488095Y-263306964D02*
X196607143Y-263783154D01*
X196607143Y-263783154D02*
X196845238Y-264021250D01*
X196845238Y-264021250D02*
X197083333Y-264140297D01*
X197083333Y-264140297D02*
X197559524Y-264140297D01*
X197559524Y-264140297D02*
X197797619Y-264021250D01*
X197797619Y-264021250D02*
X198035714Y-263783154D01*
X198035714Y-263783154D02*
X198154762Y-263306964D01*
X198154762Y-263306964D02*
X198154762Y-262473630D01*
X198154762Y-262473630D02*
X198035714Y-261997440D01*
X198035714Y-261997440D02*
X197797619Y-261759345D01*
X197797619Y-261759345D02*
X197559524Y-261640297D01*
X195535714Y-264021250D02*
X195178571Y-264140297D01*
X195178571Y-264140297D02*
X194583333Y-264140297D01*
X194583333Y-264140297D02*
X194345238Y-264021250D01*
X194345238Y-264021250D02*
X194226190Y-263902202D01*
X194226190Y-263902202D02*
X194107143Y-263664107D01*
X194107143Y-263664107D02*
X194107143Y-263426011D01*
X194107143Y-263426011D02*
X194226190Y-263187916D01*
X194226190Y-263187916D02*
X194345238Y-263068869D01*
X194345238Y-263068869D02*
X194583333Y-262949821D01*
X194583333Y-262949821D02*
X195059524Y-262830773D01*
X195059524Y-262830773D02*
X195297619Y-262711726D01*
X195297619Y-262711726D02*
X195416666Y-262592678D01*
X195416666Y-262592678D02*
X195535714Y-262354583D01*
X195535714Y-262354583D02*
X195535714Y-262116488D01*
X195535714Y-262116488D02*
X195416666Y-261878392D01*
X195416666Y-261878392D02*
X195297619Y-261759345D01*
X195297619Y-261759345D02*
X195059524Y-261640297D01*
X195059524Y-261640297D02*
X194464285Y-261640297D01*
X194464285Y-261640297D02*
X194107143Y-261759345D01*
X193035714Y-264140297D02*
X193035714Y-261640297D01*
X193035714Y-261640297D02*
X192083333Y-261640297D01*
X192083333Y-261640297D02*
X191845238Y-261759345D01*
X191845238Y-261759345D02*
X191726191Y-261878392D01*
X191726191Y-261878392D02*
X191607143Y-262116488D01*
X191607143Y-262116488D02*
X191607143Y-262473630D01*
X191607143Y-262473630D02*
X191726191Y-262711726D01*
X191726191Y-262711726D02*
X191845238Y-262830773D01*
X191845238Y-262830773D02*
X192083333Y-262949821D01*
X192083333Y-262949821D02*
X193035714Y-262949821D01*
X190535714Y-264140297D02*
X190535714Y-261640297D01*
X190535714Y-262830773D02*
X189107143Y-262830773D01*
X189107143Y-264140297D02*
X189107143Y-261640297D01*
X187440476Y-261640297D02*
X186964285Y-261640297D01*
X186964285Y-261640297D02*
X186726190Y-261759345D01*
X186726190Y-261759345D02*
X186488095Y-261997440D01*
X186488095Y-261997440D02*
X186369047Y-262473630D01*
X186369047Y-262473630D02*
X186369047Y-263306964D01*
X186369047Y-263306964D02*
X186488095Y-263783154D01*
X186488095Y-263783154D02*
X186726190Y-264021250D01*
X186726190Y-264021250D02*
X186964285Y-264140297D01*
X186964285Y-264140297D02*
X187440476Y-264140297D01*
X187440476Y-264140297D02*
X187678571Y-264021250D01*
X187678571Y-264021250D02*
X187916666Y-263783154D01*
X187916666Y-263783154D02*
X188035714Y-263306964D01*
X188035714Y-263306964D02*
X188035714Y-262473630D01*
X188035714Y-262473630D02*
X187916666Y-261997440D01*
X187916666Y-261997440D02*
X187678571Y-261759345D01*
X187678571Y-261759345D02*
X187440476Y-261640297D01*
X183869047Y-264140297D02*
X184702380Y-262949821D01*
X185297618Y-264140297D02*
X185297618Y-261640297D01*
X185297618Y-261640297D02*
X184345237Y-261640297D01*
X184345237Y-261640297D02*
X184107142Y-261759345D01*
X184107142Y-261759345D02*
X183988095Y-261878392D01*
X183988095Y-261878392D02*
X183869047Y-262116488D01*
X183869047Y-262116488D02*
X183869047Y-262473630D01*
X183869047Y-262473630D02*
X183988095Y-262711726D01*
X183988095Y-262711726D02*
X184107142Y-262830773D01*
X184107142Y-262830773D02*
X184345237Y-262949821D01*
X184345237Y-262949821D02*
X185297618Y-262949821D01*
X180892856Y-264140297D02*
X180892856Y-261640297D01*
X180892856Y-261640297D02*
X180297618Y-261640297D01*
X180297618Y-261640297D02*
X179940475Y-261759345D01*
X179940475Y-261759345D02*
X179702380Y-261997440D01*
X179702380Y-261997440D02*
X179583333Y-262235535D01*
X179583333Y-262235535D02*
X179464285Y-262711726D01*
X179464285Y-262711726D02*
X179464285Y-263068869D01*
X179464285Y-263068869D02*
X179583333Y-263545059D01*
X179583333Y-263545059D02*
X179702380Y-263783154D01*
X179702380Y-263783154D02*
X179940475Y-264021250D01*
X179940475Y-264021250D02*
X180297618Y-264140297D01*
X180297618Y-264140297D02*
X180892856Y-264140297D01*
X178392856Y-262830773D02*
X177559523Y-262830773D01*
X177202380Y-264140297D02*
X178392856Y-264140297D01*
X178392856Y-264140297D02*
X178392856Y-261640297D01*
X178392856Y-261640297D02*
X177202380Y-261640297D01*
X174702380Y-263902202D02*
X174821428Y-264021250D01*
X174821428Y-264021250D02*
X175178570Y-264140297D01*
X175178570Y-264140297D02*
X175416666Y-264140297D01*
X175416666Y-264140297D02*
X175773809Y-264021250D01*
X175773809Y-264021250D02*
X176011904Y-263783154D01*
X176011904Y-263783154D02*
X176130951Y-263545059D01*
X176130951Y-263545059D02*
X176249999Y-263068869D01*
X176249999Y-263068869D02*
X176249999Y-262711726D01*
X176249999Y-262711726D02*
X176130951Y-262235535D01*
X176130951Y-262235535D02*
X176011904Y-261997440D01*
X176011904Y-261997440D02*
X175773809Y-261759345D01*
X175773809Y-261759345D02*
X175416666Y-261640297D01*
X175416666Y-261640297D02*
X175178570Y-261640297D01*
X175178570Y-261640297D02*
X174821428Y-261759345D01*
X174821428Y-261759345D02*
X174702380Y-261878392D01*
X173630951Y-264140297D02*
X173630951Y-261640297D01*
X172202380Y-264140297D02*
X173273809Y-262711726D01*
X172202380Y-261640297D02*
X173630951Y-263068869D01*
X166249999Y-264021250D02*
X166488094Y-264140297D01*
X166488094Y-264140297D02*
X166964285Y-264140297D01*
X166964285Y-264140297D02*
X167202380Y-264021250D01*
X167202380Y-264021250D02*
X167321427Y-263902202D01*
X167321427Y-263902202D02*
X167440475Y-263664107D01*
X167440475Y-263664107D02*
X167440475Y-262949821D01*
X167440475Y-262949821D02*
X167321427Y-262711726D01*
X167321427Y-262711726D02*
X167202380Y-262592678D01*
X167202380Y-262592678D02*
X166964285Y-262473630D01*
X166964285Y-262473630D02*
X166488094Y-262473630D01*
X166488094Y-262473630D02*
X166249999Y-262592678D01*
X164821428Y-264140297D02*
X165059523Y-264021250D01*
X165059523Y-264021250D02*
X165178570Y-263902202D01*
X165178570Y-263902202D02*
X165297618Y-263664107D01*
X165297618Y-263664107D02*
X165297618Y-262949821D01*
X165297618Y-262949821D02*
X165178570Y-262711726D01*
X165178570Y-262711726D02*
X165059523Y-262592678D01*
X165059523Y-262592678D02*
X164821428Y-262473630D01*
X164821428Y-262473630D02*
X164464285Y-262473630D01*
X164464285Y-262473630D02*
X164226189Y-262592678D01*
X164226189Y-262592678D02*
X164107142Y-262711726D01*
X164107142Y-262711726D02*
X163988094Y-262949821D01*
X163988094Y-262949821D02*
X163988094Y-263664107D01*
X163988094Y-263664107D02*
X164107142Y-263902202D01*
X164107142Y-263902202D02*
X164226189Y-264021250D01*
X164226189Y-264021250D02*
X164464285Y-264140297D01*
X164464285Y-264140297D02*
X164821428Y-264140297D01*
X162916665Y-262473630D02*
X162916665Y-264140297D01*
X162916665Y-262711726D02*
X162797618Y-262592678D01*
X162797618Y-262592678D02*
X162559523Y-262473630D01*
X162559523Y-262473630D02*
X162202380Y-262473630D01*
X162202380Y-262473630D02*
X161964284Y-262592678D01*
X161964284Y-262592678D02*
X161845237Y-262830773D01*
X161845237Y-262830773D02*
X161845237Y-264140297D01*
X161011903Y-262473630D02*
X160059522Y-262473630D01*
X160654760Y-261640297D02*
X160654760Y-263783154D01*
X160654760Y-263783154D02*
X160535713Y-264021250D01*
X160535713Y-264021250D02*
X160297618Y-264140297D01*
X160297618Y-264140297D02*
X160059522Y-264140297D01*
X159226189Y-264140297D02*
X159226189Y-262473630D01*
X159226189Y-262949821D02*
X159107142Y-262711726D01*
X159107142Y-262711726D02*
X158988094Y-262592678D01*
X158988094Y-262592678D02*
X158749999Y-262473630D01*
X158749999Y-262473630D02*
X158511904Y-262473630D01*
X157321428Y-264140297D02*
X157559523Y-264021250D01*
X157559523Y-264021250D02*
X157678570Y-263902202D01*
X157678570Y-263902202D02*
X157797618Y-263664107D01*
X157797618Y-263664107D02*
X157797618Y-262949821D01*
X157797618Y-262949821D02*
X157678570Y-262711726D01*
X157678570Y-262711726D02*
X157559523Y-262592678D01*
X157559523Y-262592678D02*
X157321428Y-262473630D01*
X157321428Y-262473630D02*
X156964285Y-262473630D01*
X156964285Y-262473630D02*
X156726189Y-262592678D01*
X156726189Y-262592678D02*
X156607142Y-262711726D01*
X156607142Y-262711726D02*
X156488094Y-262949821D01*
X156488094Y-262949821D02*
X156488094Y-263664107D01*
X156488094Y-263664107D02*
X156607142Y-263902202D01*
X156607142Y-263902202D02*
X156726189Y-264021250D01*
X156726189Y-264021250D02*
X156964285Y-264140297D01*
X156964285Y-264140297D02*
X157321428Y-264140297D01*
X155059523Y-264140297D02*
X155297618Y-264021250D01*
X155297618Y-264021250D02*
X155416665Y-263783154D01*
X155416665Y-263783154D02*
X155416665Y-261640297D01*
X153749999Y-264140297D02*
X153988094Y-264021250D01*
X153988094Y-264021250D02*
X154107141Y-263783154D01*
X154107141Y-263783154D02*
X154107141Y-261640297D01*
X151845236Y-264021250D02*
X152083332Y-264140297D01*
X152083332Y-264140297D02*
X152559522Y-264140297D01*
X152559522Y-264140297D02*
X152797617Y-264021250D01*
X152797617Y-264021250D02*
X152916665Y-263783154D01*
X152916665Y-263783154D02*
X152916665Y-262830773D01*
X152916665Y-262830773D02*
X152797617Y-262592678D01*
X152797617Y-262592678D02*
X152559522Y-262473630D01*
X152559522Y-262473630D02*
X152083332Y-262473630D01*
X152083332Y-262473630D02*
X151845236Y-262592678D01*
X151845236Y-262592678D02*
X151726189Y-262830773D01*
X151726189Y-262830773D02*
X151726189Y-263068869D01*
X151726189Y-263068869D02*
X152916665Y-263306964D01*
X150654760Y-264140297D02*
X150654760Y-262473630D01*
X150654760Y-262949821D02*
X150535713Y-262711726D01*
X150535713Y-262711726D02*
X150416665Y-262592678D01*
X150416665Y-262592678D02*
X150178570Y-262473630D01*
X150178570Y-262473630D02*
X149940475Y-262473630D01*
X145297617Y-264140297D02*
X145297617Y-262473630D01*
X145297617Y-262949821D02*
X145178570Y-262711726D01*
X145178570Y-262711726D02*
X145059522Y-262592678D01*
X145059522Y-262592678D02*
X144821427Y-262473630D01*
X144821427Y-262473630D02*
X144583332Y-262473630D01*
X142797617Y-264021250D02*
X143035713Y-264140297D01*
X143035713Y-264140297D02*
X143511903Y-264140297D01*
X143511903Y-264140297D02*
X143749998Y-264021250D01*
X143749998Y-264021250D02*
X143869046Y-263783154D01*
X143869046Y-263783154D02*
X143869046Y-262830773D01*
X143869046Y-262830773D02*
X143749998Y-262592678D01*
X143749998Y-262592678D02*
X143511903Y-262473630D01*
X143511903Y-262473630D02*
X143035713Y-262473630D01*
X143035713Y-262473630D02*
X142797617Y-262592678D01*
X142797617Y-262592678D02*
X142678570Y-262830773D01*
X142678570Y-262830773D02*
X142678570Y-263068869D01*
X142678570Y-263068869D02*
X143869046Y-263306964D01*
X141845237Y-262473630D02*
X141249999Y-264140297D01*
X141249999Y-264140297D02*
X140654760Y-262473630D01*
X137916665Y-263426011D02*
X136726189Y-263426011D01*
X138154760Y-264140297D02*
X137321427Y-261640297D01*
X137321427Y-261640297D02*
X136488094Y-264140297D01*
%TO.C,RN1*%
D11*
X52383400Y-74608500D02*
X53383400Y-74608500D01*
X52383400Y-77968500D02*
X53383400Y-77968500D01*
%TO.C,C77*%
X251956652Y-162776600D02*
X251434148Y-162776600D01*
X251956652Y-164246600D02*
X251434148Y-164246600D01*
%TO.C,D6*%
X62350000Y-58925000D02*
X62350000Y-62675000D01*
X62350000Y-62675000D02*
X68925000Y-62675000D01*
X69650000Y-58925000D02*
X62350000Y-58925000D01*
X69650000Y-61950000D02*
X68925000Y-62675000D01*
X69650000Y-61950000D02*
X69650000Y-58925000D01*
X68725000Y-62250000D02*
X68575000Y-62450000D01*
X68875000Y-62450000D01*
X68725000Y-62250000D01*
G36*
X68875000Y-62450000D02*
G01*
X68575000Y-62450000D01*
X68725000Y-62250000D01*
X68875000Y-62450000D01*
G37*
%TO.C,C35*%
X228494180Y-236543600D02*
X228213020Y-236543600D01*
X228494180Y-237563600D02*
X228213020Y-237563600D01*
%TO.C,C69*%
X179640580Y-108490000D02*
X179359420Y-108490000D01*
X179640580Y-109510000D02*
X179359420Y-109510000D01*
%TO.C,RN2*%
X67883400Y-74608500D02*
X68883400Y-74608500D01*
X67883400Y-77968500D02*
X68883400Y-77968500D01*
%TO.C,C67*%
X146821480Y-107463900D02*
X146540320Y-107463900D01*
X146821480Y-108483900D02*
X146540320Y-108483900D01*
%TO.C,D11*%
X135350000Y-63925000D02*
X135350000Y-67675000D01*
X135350000Y-67675000D02*
X141925000Y-67675000D01*
X142650000Y-63925000D02*
X135350000Y-63925000D01*
X142650000Y-66950000D02*
X141925000Y-67675000D01*
X142650000Y-66950000D02*
X142650000Y-63925000D01*
X141725000Y-67250000D02*
X141575000Y-67450000D01*
X141875000Y-67450000D01*
X141725000Y-67250000D01*
G36*
X141875000Y-67450000D02*
G01*
X141575000Y-67450000D01*
X141725000Y-67250000D01*
X141875000Y-67450000D01*
G37*
%TO.C,C24*%
X138494180Y-204543600D02*
X138213020Y-204543600D01*
X138494180Y-205563600D02*
X138213020Y-205563600D01*
%TO.C,C42*%
X309390580Y-241690000D02*
X309109420Y-241690000D01*
X309390580Y-242710000D02*
X309109420Y-242710000D01*
%TO.C,C70*%
X197990000Y-106359420D02*
X197990000Y-106640580D01*
X199010000Y-106359420D02*
X199010000Y-106640580D01*
%TO.C,D8*%
X135350000Y-49925000D02*
X135350000Y-53675000D01*
X135350000Y-53675000D02*
X141925000Y-53675000D01*
X142650000Y-49925000D02*
X135350000Y-49925000D01*
X142650000Y-52950000D02*
X141925000Y-53675000D01*
X142650000Y-52950000D02*
X142650000Y-49925000D01*
X141725000Y-53250000D02*
X141575000Y-53450000D01*
X141875000Y-53450000D01*
X141725000Y-53250000D01*
G36*
X141875000Y-53450000D02*
G01*
X141575000Y-53450000D01*
X141725000Y-53250000D01*
X141875000Y-53450000D01*
G37*
%TO.C,U16*%
X40565000Y-41740000D02*
X40565000Y-45860000D01*
X40565000Y-45860000D02*
X40630000Y-45860000D01*
X40630000Y-41740000D02*
X40565000Y-41740000D01*
X49370000Y-45860000D02*
X49435000Y-45860000D01*
X49435000Y-41740000D02*
X49370000Y-41740000D01*
X49435000Y-45860000D02*
X49435000Y-41740000D01*
X40630000Y-41200000D02*
X40300000Y-40960000D01*
X40300000Y-41440000D01*
X40630000Y-41200000D01*
G36*
X40630000Y-41200000D02*
G01*
X40300000Y-41440000D01*
X40300000Y-40960000D01*
X40630000Y-41200000D01*
G37*
%TO.C,D18*%
X193875000Y-128350000D02*
X193875000Y-134925000D01*
X194600000Y-135650000D02*
X193875000Y-134925000D01*
X194600000Y-135650000D02*
X197625000Y-135650000D01*
X197625000Y-128350000D02*
X193875000Y-128350000D01*
X197625000Y-135650000D02*
X197625000Y-128350000D01*
X194300000Y-134725000D02*
X194100000Y-134575000D01*
X194100000Y-134875000D01*
X194300000Y-134725000D01*
G36*
X194300000Y-134725000D02*
G01*
X194100000Y-134875000D01*
X194100000Y-134575000D01*
X194300000Y-134725000D01*
G37*
%TO.C,C22*%
X78494180Y-204543600D02*
X78213020Y-204543600D01*
X78494180Y-205563600D02*
X78213020Y-205563600D01*
%TO.C,D2*%
X62350000Y-41925000D02*
X62350000Y-45675000D01*
X62350000Y-45675000D02*
X68925000Y-45675000D01*
X69650000Y-41925000D02*
X62350000Y-41925000D01*
X69650000Y-44950000D02*
X68925000Y-45675000D01*
X69650000Y-44950000D02*
X69650000Y-41925000D01*
X68725000Y-45250000D02*
X68575000Y-45450000D01*
X68875000Y-45450000D01*
X68725000Y-45250000D01*
G36*
X68875000Y-45450000D02*
G01*
X68575000Y-45450000D01*
X68725000Y-45250000D01*
X68875000Y-45450000D01*
G37*
%TO.C,D4*%
X31350000Y-58925000D02*
X31350000Y-62675000D01*
X31350000Y-62675000D02*
X37925000Y-62675000D01*
X38650000Y-58925000D02*
X31350000Y-58925000D01*
X38650000Y-61950000D02*
X37925000Y-62675000D01*
X38650000Y-61950000D02*
X38650000Y-58925000D01*
X37725000Y-62250000D02*
X37575000Y-62450000D01*
X37875000Y-62450000D01*
X37725000Y-62250000D01*
G36*
X37875000Y-62450000D02*
G01*
X37575000Y-62450000D01*
X37725000Y-62250000D01*
X37875000Y-62450000D01*
G37*
%TO.C,C46*%
X231951480Y-55882700D02*
X231670320Y-55882700D01*
X231951480Y-56902700D02*
X231670320Y-56902700D01*
%TO.C,R19*%
X40477500Y-51562742D02*
X40477500Y-52037258D01*
X41522500Y-51562742D02*
X41522500Y-52037258D01*
%TO.C,D7*%
X122350000Y-49925000D02*
X122350000Y-53675000D01*
X122350000Y-53675000D02*
X128925000Y-53675000D01*
X129650000Y-49925000D02*
X122350000Y-49925000D01*
X129650000Y-52950000D02*
X128925000Y-53675000D01*
X129650000Y-52950000D02*
X129650000Y-49925000D01*
X128725000Y-53250000D02*
X128575000Y-53450000D01*
X128875000Y-53450000D01*
X128725000Y-53250000D01*
G36*
X128875000Y-53450000D02*
G01*
X128575000Y-53450000D01*
X128725000Y-53250000D01*
X128875000Y-53450000D01*
G37*
%TO.C,U8*%
X148299300Y-110104600D02*
X148299300Y-110159600D01*
X148299300Y-120169600D02*
X148299300Y-120224600D01*
X148299300Y-120224600D02*
X152419300Y-120224600D01*
X152419300Y-110104600D02*
X148299300Y-110104600D01*
X152419300Y-110159600D02*
X152419300Y-110104600D01*
X152419300Y-120224600D02*
X152419300Y-120169600D01*
X152959300Y-110154600D02*
X153199300Y-109824600D01*
X152719300Y-109824600D01*
X152959300Y-110154600D01*
G36*
X152959300Y-110154600D02*
G01*
X152719300Y-109824600D01*
X153199300Y-109824600D01*
X152959300Y-110154600D01*
G37*
%TO.C,C23*%
X108494180Y-204543600D02*
X108213020Y-204543600D01*
X108494180Y-205563600D02*
X108213020Y-205563600D01*
%TO.C,U3*%
X194377500Y-51877500D02*
X194377500Y-51932500D01*
X194377500Y-61942500D02*
X194377500Y-61997500D01*
X194377500Y-61997500D02*
X198497500Y-61997500D01*
X198497500Y-51877500D02*
X194377500Y-51877500D01*
X198497500Y-51932500D02*
X198497500Y-51877500D01*
X198497500Y-61997500D02*
X198497500Y-61942500D01*
X199037500Y-51927500D02*
X199277500Y-51597500D01*
X198797500Y-51597500D01*
X199037500Y-51927500D01*
G36*
X199037500Y-51927500D02*
G01*
X198797500Y-51597500D01*
X199277500Y-51597500D01*
X199037500Y-51927500D01*
G37*
%TO.C,D17*%
X163875000Y-128350000D02*
X163875000Y-134925000D01*
X164600000Y-135650000D02*
X163875000Y-134925000D01*
X164600000Y-135650000D02*
X167625000Y-135650000D01*
X167625000Y-128350000D02*
X163875000Y-128350000D01*
X167625000Y-135650000D02*
X167625000Y-128350000D01*
X164300000Y-134725000D02*
X164100000Y-134575000D01*
X164100000Y-134875000D01*
X164300000Y-134725000D01*
G36*
X164300000Y-134725000D02*
G01*
X164100000Y-134875000D01*
X164100000Y-134575000D01*
X164300000Y-134725000D01*
G37*
%TO.C,U5*%
X224223700Y-79298200D02*
X224223700Y-83418200D01*
X224223700Y-83418200D02*
X224278700Y-83418200D01*
X224278700Y-79298200D02*
X224223700Y-79298200D01*
X234288700Y-83418200D02*
X234343700Y-83418200D01*
X234343700Y-79298200D02*
X234288700Y-79298200D01*
X234343700Y-83418200D02*
X234343700Y-79298200D01*
X224273700Y-78758200D02*
X223943700Y-78518200D01*
X223943700Y-78998200D01*
X224273700Y-78758200D01*
G36*
X224273700Y-78758200D02*
G01*
X223943700Y-78998200D01*
X223943700Y-78518200D01*
X224273700Y-78758200D01*
G37*
%TO.C,R5*%
X164237258Y-221477500D02*
X163762742Y-221477500D01*
X164237258Y-222522500D02*
X163762742Y-222522500D01*
%TO.C,RN8*%
X237310900Y-69712700D02*
X238310900Y-69712700D01*
X237310900Y-73072700D02*
X238310900Y-73072700D01*
%TO.C,C9*%
X152140580Y-54990000D02*
X151859420Y-54990000D01*
X152140580Y-56010000D02*
X151859420Y-56010000D01*
%TO.C,R7*%
X224237258Y-221477500D02*
X223762742Y-221477500D01*
X224237258Y-222522500D02*
X223762742Y-222522500D01*
%TO.C,U2*%
X114290500Y-51415800D02*
X114290500Y-51470800D01*
X114290500Y-61480800D02*
X114290500Y-61535800D01*
X114290500Y-61535800D02*
X118410500Y-61535800D01*
X118410500Y-51415800D02*
X114290500Y-51415800D01*
X118410500Y-51470800D02*
X118410500Y-51415800D01*
X118410500Y-61535800D02*
X118410500Y-61480800D01*
X118950500Y-51465800D02*
X119190500Y-51135800D01*
X118710500Y-51135800D01*
X118950500Y-51465800D01*
G36*
X118950500Y-51465800D02*
G01*
X118710500Y-51135800D01*
X119190500Y-51135800D01*
X118950500Y-51465800D01*
G37*
%TO.C,C38*%
X309390580Y-137190000D02*
X309109420Y-137190000D01*
X309390580Y-138210000D02*
X309109420Y-138210000D01*
%TO.C,RN9*%
X220783700Y-79678200D02*
X221783700Y-79678200D01*
X220783700Y-83038200D02*
X221783700Y-83038200D01*
%TO.C,C61*%
X64140580Y-108490000D02*
X63859420Y-108490000D01*
X64140580Y-109510000D02*
X63859420Y-109510000D01*
%TO.C,U4*%
X229750900Y-58332700D02*
X229750900Y-58387700D01*
X229750900Y-68397700D02*
X229750900Y-68452700D01*
X229750900Y-68452700D02*
X233870900Y-68452700D01*
X233870900Y-58332700D02*
X229750900Y-58332700D01*
X233870900Y-58387700D02*
X233870900Y-58332700D01*
X233870900Y-68452700D02*
X233870900Y-68397700D01*
X234410900Y-58382700D02*
X234650900Y-58052700D01*
X234170900Y-58052700D01*
X234410900Y-58382700D01*
G36*
X234410900Y-58382700D02*
G01*
X234170900Y-58052700D01*
X234650900Y-58052700D01*
X234410900Y-58382700D01*
G37*
%TO.C,D39*%
X284375000Y-139850000D02*
X284375000Y-146425000D01*
X285100000Y-147150000D02*
X284375000Y-146425000D01*
X285100000Y-147150000D02*
X288125000Y-147150000D01*
X288125000Y-139850000D02*
X284375000Y-139850000D01*
X288125000Y-147150000D02*
X288125000Y-139850000D01*
X284800000Y-146225000D02*
X284600000Y-146075000D01*
X284600000Y-146375000D01*
X284800000Y-146225000D01*
G36*
X284800000Y-146225000D02*
G01*
X284600000Y-146375000D01*
X284600000Y-146075000D01*
X284800000Y-146225000D01*
G37*
%TO.C,D36*%
X254350000Y-231625000D02*
X254350000Y-235375000D01*
X254350000Y-235375000D02*
X260925000Y-235375000D01*
X261650000Y-231625000D02*
X254350000Y-231625000D01*
X261650000Y-234650000D02*
X260925000Y-235375000D01*
X261650000Y-234650000D02*
X261650000Y-231625000D01*
X260725000Y-234950000D02*
X260575000Y-235150000D01*
X260875000Y-235150000D01*
X260725000Y-234950000D01*
G36*
X260875000Y-235150000D02*
G01*
X260575000Y-235150000D01*
X260725000Y-234950000D01*
X260875000Y-235150000D01*
G37*
%TO.C,R12*%
X134237258Y-253477500D02*
X133762742Y-253477500D01*
X134237258Y-254522500D02*
X133762742Y-254522500D01*
%TO.C,R2*%
X74237258Y-221477500D02*
X73762742Y-221477500D01*
X74237258Y-222522500D02*
X73762742Y-222522500D01*
%TO.C,RN18*%
X209500000Y-108820000D02*
X210500000Y-108820000D01*
X209500000Y-112180000D02*
X210500000Y-112180000D01*
%TO.C,R10*%
X74237258Y-253477500D02*
X73762742Y-253477500D01*
X74237258Y-254522500D02*
X73762742Y-254522500D01*
%TO.C,R11*%
X104237258Y-253477500D02*
X103762742Y-253477500D01*
X104237258Y-254522500D02*
X103762742Y-254522500D01*
%TO.C,C62*%
X78640580Y-108490000D02*
X78359420Y-108490000D01*
X78640580Y-109510000D02*
X78359420Y-109510000D01*
%TO.C,R3*%
X104237258Y-221477500D02*
X103762742Y-221477500D01*
X104237258Y-222522500D02*
X103762742Y-222522500D01*
%TO.C,R14*%
X194237258Y-253477500D02*
X193762742Y-253477500D01*
X194237258Y-254522500D02*
X193762742Y-254522500D01*
%TO.C,C2*%
X66140580Y-46990000D02*
X65859420Y-46990000D01*
X66140580Y-48010000D02*
X65859420Y-48010000D01*
%TO.C,RN10*%
X236283700Y-79678200D02*
X237283700Y-79678200D01*
X236283700Y-83038200D02*
X237283700Y-83038200D01*
%TO.C,U10*%
X254690000Y-109252500D02*
X254690000Y-113372500D01*
X254690000Y-113372500D02*
X254745000Y-113372500D01*
X254745000Y-109252500D02*
X254690000Y-109252500D01*
X264755000Y-113372500D02*
X264810000Y-113372500D01*
X264810000Y-109252500D02*
X264755000Y-109252500D01*
X264810000Y-113372500D02*
X264810000Y-109252500D01*
X254740000Y-108712500D02*
X254410000Y-108472500D01*
X254410000Y-108952500D01*
X254740000Y-108712500D01*
G36*
X254740000Y-108712500D02*
G01*
X254410000Y-108952500D01*
X254410000Y-108472500D01*
X254740000Y-108712500D01*
G37*
%TO.C,C64*%
X105490000Y-113189520D02*
X105490000Y-113470680D01*
X106510000Y-113189520D02*
X106510000Y-113470680D01*
%TO.C,D40*%
X307375000Y-139850000D02*
X307375000Y-146425000D01*
X308100000Y-147150000D02*
X307375000Y-146425000D01*
X308100000Y-147150000D02*
X311125000Y-147150000D01*
X311125000Y-139850000D02*
X307375000Y-139850000D01*
X311125000Y-147150000D02*
X311125000Y-139850000D01*
X307800000Y-146225000D02*
X307600000Y-146075000D01*
X307600000Y-146375000D01*
X307800000Y-146225000D01*
G36*
X307800000Y-146225000D02*
G01*
X307600000Y-146375000D01*
X307600000Y-146075000D01*
X307800000Y-146225000D01*
G37*
%TO.C,C1*%
X35140580Y-46990000D02*
X34859420Y-46990000D01*
X35140580Y-48010000D02*
X34859420Y-48010000D01*
%TO.C,C66*%
X138640580Y-108490000D02*
X138359420Y-108490000D01*
X138640580Y-109510000D02*
X138359420Y-109510000D01*
%TO.C,C75*%
X154672300Y-220213020D02*
X154672300Y-220494180D01*
X155692300Y-220213020D02*
X155692300Y-220494180D01*
%TO.C,RN7*%
X225310900Y-61712700D02*
X226310900Y-61712700D01*
X225310900Y-65072700D02*
X226310900Y-65072700D01*
%TO.C,C36*%
X258494180Y-236543600D02*
X258213020Y-236543600D01*
X258494180Y-237563600D02*
X258213020Y-237563600D01*
%TO.C,C13*%
X45890580Y-136690000D02*
X45609420Y-136690000D01*
X45890580Y-137710000D02*
X45609420Y-137710000D01*
%TO.C,R18*%
X300237258Y-190477500D02*
X299762742Y-190477500D01*
X300237258Y-191522500D02*
X299762742Y-191522500D01*
%TO.C,C47*%
X229773700Y-74217620D02*
X229773700Y-74498780D01*
X230793700Y-74217620D02*
X230793700Y-74498780D01*
%TO.C,D16*%
X133875000Y-128350000D02*
X133875000Y-134925000D01*
X134600000Y-135650000D02*
X133875000Y-134925000D01*
X134600000Y-135650000D02*
X137625000Y-135650000D01*
X137625000Y-128350000D02*
X133875000Y-128350000D01*
X137625000Y-135650000D02*
X137625000Y-128350000D01*
X134300000Y-134725000D02*
X134100000Y-134575000D01*
X134100000Y-134875000D01*
X134300000Y-134725000D01*
G36*
X134300000Y-134725000D02*
G01*
X134100000Y-134875000D01*
X134100000Y-134575000D01*
X134300000Y-134725000D01*
G37*
%TO.C,U11*%
X290940000Y-143190000D02*
X290940000Y-143245000D01*
X290940000Y-153255000D02*
X290940000Y-153310000D01*
X290940000Y-153310000D02*
X295060000Y-153310000D01*
X295060000Y-143190000D02*
X290940000Y-143190000D01*
X295060000Y-143245000D02*
X295060000Y-143190000D01*
X295060000Y-153310000D02*
X295060000Y-153255000D01*
X295600000Y-143240000D02*
X295840000Y-142910000D01*
X295360000Y-142910000D01*
X295600000Y-143240000D01*
G36*
X295600000Y-143240000D02*
G01*
X295360000Y-142910000D01*
X295840000Y-142910000D01*
X295600000Y-143240000D01*
G37*
%TO.C,C7*%
X126140580Y-54990000D02*
X125859420Y-54990000D01*
X126140580Y-56010000D02*
X125859420Y-56010000D01*
%TO.C,R1*%
X44237258Y-221477500D02*
X43762742Y-221477500D01*
X44237258Y-222522500D02*
X43762742Y-222522500D01*
%TO.C,D27*%
X224350000Y-199625000D02*
X224350000Y-203375000D01*
X224350000Y-203375000D02*
X230925000Y-203375000D01*
X231650000Y-199625000D02*
X224350000Y-199625000D01*
X231650000Y-202650000D02*
X230925000Y-203375000D01*
X231650000Y-202650000D02*
X231650000Y-199625000D01*
X230725000Y-202950000D02*
X230575000Y-203150000D01*
X230875000Y-203150000D01*
X230725000Y-202950000D01*
G36*
X230875000Y-203150000D02*
G01*
X230575000Y-203150000D01*
X230725000Y-202950000D01*
X230875000Y-203150000D01*
G37*
%TO.C,RN20*%
X266750000Y-109632500D02*
X267750000Y-109632500D01*
X266750000Y-112992500D02*
X267750000Y-112992500D01*
%TO.C,R8*%
X254237258Y-221477500D02*
X253762742Y-221477500D01*
X254237258Y-222522500D02*
X253762742Y-222522500D01*
%TO.C,D3*%
X77850000Y-41925000D02*
X77850000Y-45675000D01*
X77850000Y-45675000D02*
X84425000Y-45675000D01*
X85150000Y-41925000D02*
X77850000Y-41925000D01*
X85150000Y-44950000D02*
X84425000Y-45675000D01*
X85150000Y-44950000D02*
X85150000Y-41925000D01*
X84225000Y-45250000D02*
X84075000Y-45450000D01*
X84375000Y-45450000D01*
X84225000Y-45250000D01*
G36*
X84375000Y-45450000D02*
G01*
X84075000Y-45450000D01*
X84225000Y-45250000D01*
X84375000Y-45450000D01*
G37*
%TO.C,D12*%
X148350000Y-63925000D02*
X148350000Y-67675000D01*
X148350000Y-67675000D02*
X154925000Y-67675000D01*
X155650000Y-63925000D02*
X148350000Y-63925000D01*
X155650000Y-66950000D02*
X154925000Y-67675000D01*
X155650000Y-66950000D02*
X155650000Y-63925000D01*
X154725000Y-67250000D02*
X154575000Y-67450000D01*
X154875000Y-67450000D01*
X154725000Y-67250000D01*
G36*
X154875000Y-67450000D02*
G01*
X154575000Y-67450000D01*
X154725000Y-67250000D01*
X154875000Y-67450000D01*
G37*
%TO.C,D38*%
X307375000Y-128850000D02*
X307375000Y-135425000D01*
X308100000Y-136150000D02*
X307375000Y-135425000D01*
X308100000Y-136150000D02*
X311125000Y-136150000D01*
X311125000Y-128850000D02*
X307375000Y-128850000D01*
X311125000Y-136150000D02*
X311125000Y-128850000D01*
X307800000Y-135225000D02*
X307600000Y-135075000D01*
X307600000Y-135375000D01*
X307800000Y-135225000D01*
G36*
X307800000Y-135225000D02*
G01*
X307600000Y-135375000D01*
X307600000Y-135075000D01*
X307800000Y-135225000D01*
G37*
%TO.C,D1*%
X31350000Y-41925000D02*
X31350000Y-45675000D01*
X31350000Y-45675000D02*
X37925000Y-45675000D01*
X38650000Y-41925000D02*
X31350000Y-41925000D01*
X38650000Y-44950000D02*
X37925000Y-45675000D01*
X38650000Y-44950000D02*
X38650000Y-41925000D01*
X37725000Y-45250000D02*
X37575000Y-45450000D01*
X37875000Y-45450000D01*
X37725000Y-45250000D01*
G36*
X37875000Y-45450000D02*
G01*
X37575000Y-45450000D01*
X37725000Y-45250000D01*
X37875000Y-45450000D01*
G37*
%TO.C,R4*%
X134237258Y-221477500D02*
X133762742Y-221477500D01*
X134237258Y-222522500D02*
X133762742Y-222522500D01*
%TO.C,C29*%
X48494180Y-236543600D02*
X48213020Y-236543600D01*
X48494180Y-237563600D02*
X48213020Y-237563600D01*
%TO.C,D24*%
X134350000Y-199625000D02*
X134350000Y-203375000D01*
X134350000Y-203375000D02*
X140925000Y-203375000D01*
X141650000Y-199625000D02*
X134350000Y-199625000D01*
X141650000Y-202650000D02*
X140925000Y-203375000D01*
X141650000Y-202650000D02*
X141650000Y-199625000D01*
X140725000Y-202950000D02*
X140575000Y-203150000D01*
X140875000Y-203150000D01*
X140725000Y-202950000D01*
G36*
X140875000Y-203150000D02*
G01*
X140575000Y-203150000D01*
X140725000Y-202950000D01*
X140875000Y-203150000D01*
G37*
%TO.C,D37*%
X284375000Y-128850000D02*
X284375000Y-135425000D01*
X285100000Y-136150000D02*
X284375000Y-135425000D01*
X285100000Y-136150000D02*
X288125000Y-136150000D01*
X288125000Y-128850000D02*
X284375000Y-128850000D01*
X288125000Y-136150000D02*
X288125000Y-128850000D01*
X284800000Y-135225000D02*
X284600000Y-135075000D01*
X284600000Y-135375000D01*
X284800000Y-135225000D01*
G36*
X284800000Y-135225000D02*
G01*
X284600000Y-135375000D01*
X284600000Y-135075000D01*
X284800000Y-135225000D01*
G37*
%TO.C,C45*%
X196578080Y-49427500D02*
X196296920Y-49427500D01*
X196578080Y-50447500D02*
X196296920Y-50447500D01*
%TO.C,RN5*%
X189414900Y-50284900D02*
X190414900Y-50284900D01*
X189414900Y-53644900D02*
X190414900Y-53644900D01*
%TO.C,C12*%
X152140580Y-68990000D02*
X151859420Y-68990000D01*
X152140580Y-70010000D02*
X151859420Y-70010000D01*
%TO.C,RN4*%
X117051400Y-64666800D02*
X117051400Y-63666800D01*
X120411400Y-64666800D02*
X120411400Y-63666800D01*
%TO.C,C15*%
X105890580Y-136690000D02*
X105609420Y-136690000D01*
X105890580Y-137710000D02*
X105609420Y-137710000D01*
%TO.C,C57*%
X171640580Y-63490000D02*
X171359420Y-63490000D01*
X171640580Y-64510000D02*
X171359420Y-64510000D01*
%TO.C,C18*%
X195890580Y-136690000D02*
X195609420Y-136690000D01*
X195890580Y-137710000D02*
X195609420Y-137710000D01*
%TO.C,RN17*%
X197500000Y-108820000D02*
X198500000Y-108820000D01*
X197500000Y-112180000D02*
X198500000Y-112180000D01*
%TO.C,C40*%
X309390580Y-148190000D02*
X309109420Y-148190000D01*
X309390580Y-149210000D02*
X309109420Y-149210000D01*
%TO.C,C48*%
X57890580Y-106615000D02*
X57609420Y-106615000D01*
X57890580Y-107635000D02*
X57609420Y-107635000D01*
%TO.C,C3*%
X81640580Y-46990000D02*
X81359420Y-46990000D01*
X81640580Y-48010000D02*
X81359420Y-48010000D01*
%TO.C,C34*%
X198494180Y-236543600D02*
X198213020Y-236543600D01*
X198494180Y-237563600D02*
X198213020Y-237563600D01*
%TO.C,D31*%
X104350000Y-231625000D02*
X104350000Y-235375000D01*
X104350000Y-235375000D02*
X110925000Y-235375000D01*
X111650000Y-231625000D02*
X104350000Y-231625000D01*
X111650000Y-234650000D02*
X110925000Y-235375000D01*
X111650000Y-234650000D02*
X111650000Y-231625000D01*
X110725000Y-234950000D02*
X110575000Y-235150000D01*
X110875000Y-235150000D01*
X110725000Y-234950000D01*
G36*
X110875000Y-235150000D02*
G01*
X110575000Y-235150000D01*
X110725000Y-234950000D01*
X110875000Y-235150000D01*
G37*
%TO.C,C21*%
X48494180Y-204543600D02*
X48213020Y-204543600D01*
X48494180Y-205563600D02*
X48213020Y-205563600D01*
%TO.C,C11*%
X139140580Y-68990000D02*
X138859420Y-68990000D01*
X139140580Y-70010000D02*
X138859420Y-70010000D01*
%TO.C,C10*%
X126140580Y-68990000D02*
X125859420Y-68990000D01*
X126140580Y-70010000D02*
X125859420Y-70010000D01*
%TO.C,D34*%
X194350000Y-231625000D02*
X194350000Y-235375000D01*
X194350000Y-235375000D02*
X200925000Y-235375000D01*
X201650000Y-231625000D02*
X194350000Y-231625000D01*
X201650000Y-234650000D02*
X200925000Y-235375000D01*
X201650000Y-234650000D02*
X201650000Y-231625000D01*
X200725000Y-234950000D02*
X200575000Y-235150000D01*
X200875000Y-235150000D01*
X200725000Y-234950000D01*
G36*
X200875000Y-235150000D02*
G01*
X200575000Y-235150000D01*
X200725000Y-234950000D01*
X200875000Y-235150000D01*
G37*
%TO.C,U15*%
X242197200Y-166845400D02*
X242197200Y-169335400D01*
X242197200Y-169335400D02*
X242197200Y-170683340D01*
X242197200Y-171607461D02*
X242197200Y-172610400D01*
X242197200Y-172610400D02*
X242197200Y-181080400D01*
X242197200Y-181080400D02*
X242197200Y-182083339D01*
X242197200Y-183007461D02*
X242197200Y-184355400D01*
X242197200Y-186845400D02*
X242197200Y-184355400D01*
X242617200Y-166265724D02*
X242617200Y-165755400D01*
X244737200Y-166235400D02*
X244737200Y-165755400D01*
X244737200Y-166235400D02*
X245157200Y-166235400D01*
X244737200Y-187455400D02*
X245157200Y-187455400D01*
X247277200Y-166235400D02*
X247697200Y-166235400D01*
X247277200Y-187455400D02*
X247697200Y-187455400D01*
X249817200Y-166235400D02*
X250237200Y-166235400D01*
X249817200Y-187455400D02*
X250237200Y-187455400D01*
X252357200Y-166235400D02*
X252777200Y-166235400D01*
X252357200Y-187455400D02*
X252777200Y-187455400D01*
X254897200Y-166235400D02*
X255317200Y-166235400D01*
X254897200Y-187455400D02*
X255317200Y-187455400D01*
X257437200Y-166235400D02*
X257857200Y-166235400D01*
X257437200Y-187455400D02*
X257857200Y-187455400D01*
X259977200Y-166235400D02*
X260397200Y-166235400D01*
X259977200Y-187455400D02*
X260397200Y-187455400D01*
X262517200Y-166235400D02*
X262937200Y-166235400D01*
X262517200Y-187455400D02*
X262937200Y-187455400D01*
X265057200Y-166235400D02*
X265477200Y-166235400D01*
X265057200Y-187455400D02*
X265477200Y-187455400D01*
X267597200Y-166235400D02*
X268017200Y-166235400D01*
X267597200Y-187455400D02*
X268017200Y-187455400D01*
X270137200Y-166235400D02*
X270557200Y-166235400D01*
X270137200Y-187455400D02*
X270557200Y-187455400D01*
X272677200Y-166235400D02*
X273097200Y-166235400D01*
X272677200Y-187455400D02*
X273097200Y-187455400D01*
X275217200Y-166235400D02*
X275637200Y-166235400D01*
X275217200Y-187455400D02*
X275637200Y-187455400D01*
X277757200Y-166235400D02*
X278177200Y-166235400D01*
X277757200Y-187455400D02*
X278177200Y-187455400D01*
X280297200Y-166235400D02*
X280717200Y-166235400D01*
X280297200Y-187455400D02*
X280717200Y-187455400D01*
X282837200Y-166235400D02*
X283257200Y-166235400D01*
X282837200Y-187455400D02*
X283257200Y-187455400D01*
X285377200Y-166235400D02*
X285797200Y-166235400D01*
X285377200Y-187455400D02*
X285797200Y-187455400D01*
X287917200Y-166235400D02*
X288337200Y-166235400D01*
X287917200Y-187455400D02*
X288337200Y-187455400D01*
X290457200Y-166235400D02*
X290877200Y-166235400D01*
X290457200Y-187455400D02*
X290877200Y-187455400D01*
X293417200Y-166845400D02*
X293417200Y-170683339D01*
X293417200Y-173245400D02*
X293417200Y-171607461D01*
X293417200Y-175365400D02*
X293417200Y-175785400D01*
X293417200Y-177905400D02*
X293417200Y-178325400D01*
X293417200Y-182083339D02*
X293417200Y-180445400D01*
X293417200Y-183007461D02*
X293417200Y-186845400D01*
X242197200Y-166845400D02*
G75*
G02*
X242617200Y-166265724I610051J-16D01*
G01*
X242617263Y-187425076D02*
G75*
G02*
X242197200Y-186845400I189937J579676D01*
G01*
X292997137Y-166265724D02*
G75*
G02*
X293417200Y-166845400I-189939J-579677D01*
G01*
X293417200Y-186845400D02*
G75*
G02*
X292997132Y-187425060I-609700J-200D01*
G01*
%TO.C,C71*%
X212490000Y-108859420D02*
X212490000Y-109140580D01*
X213510000Y-108859420D02*
X213510000Y-109140580D01*
%TO.C,C72*%
X228640580Y-108490000D02*
X228359420Y-108490000D01*
X228640580Y-109510000D02*
X228359420Y-109510000D01*
%TO.C,RN16*%
X155859300Y-110984600D02*
X156859300Y-110984600D01*
X155859300Y-114344600D02*
X156859300Y-114344600D01*
%TO.C,R17*%
X300237258Y-187477500D02*
X299762742Y-187477500D01*
X300237258Y-188522500D02*
X299762742Y-188522500D01*
%TO.C,D21*%
X44350000Y-199625000D02*
X44350000Y-203375000D01*
X44350000Y-203375000D02*
X50925000Y-203375000D01*
X51650000Y-199625000D02*
X44350000Y-199625000D01*
X51650000Y-202650000D02*
X50925000Y-203375000D01*
X51650000Y-202650000D02*
X51650000Y-199625000D01*
X50725000Y-202950000D02*
X50575000Y-203150000D01*
X50875000Y-203150000D01*
X50725000Y-202950000D01*
G36*
X50875000Y-203150000D02*
G01*
X50575000Y-203150000D01*
X50725000Y-202950000D01*
X50875000Y-203150000D01*
G37*
%TO.C,C17*%
X165890580Y-136690000D02*
X165609420Y-136690000D01*
X165890580Y-137710000D02*
X165609420Y-137710000D01*
%TO.C,RN22*%
X299560700Y-147630700D02*
X300560700Y-147630700D01*
X299560700Y-150990700D02*
X300560700Y-150990700D01*
%TO.C,RN21*%
X286500000Y-150570000D02*
X287500000Y-150570000D01*
X286500000Y-153930000D02*
X287500000Y-153930000D01*
%TO.C,R13*%
X164237258Y-253477500D02*
X163762742Y-253477500D01*
X164237258Y-254522500D02*
X163762742Y-254522500D01*
%TO.C,RN3*%
X109850500Y-54795800D02*
X110850500Y-54795800D01*
X109850500Y-58155800D02*
X110850500Y-58155800D01*
%TO.C,C73*%
X239640580Y-108490000D02*
X239359420Y-108490000D01*
X239640580Y-109510000D02*
X239359420Y-109510000D01*
%TO.C,D13*%
X43875000Y-128350000D02*
X43875000Y-134925000D01*
X44600000Y-135650000D02*
X43875000Y-134925000D01*
X44600000Y-135650000D02*
X47625000Y-135650000D01*
X47625000Y-128350000D02*
X43875000Y-128350000D01*
X47625000Y-135650000D02*
X47625000Y-128350000D01*
X44300000Y-134725000D02*
X44100000Y-134575000D01*
X44100000Y-134875000D01*
X44300000Y-134725000D01*
G36*
X44300000Y-134725000D02*
G01*
X44100000Y-134875000D01*
X44100000Y-134575000D01*
X44300000Y-134725000D01*
G37*
%TO.C,D25*%
X164350000Y-199625000D02*
X164350000Y-203375000D01*
X164350000Y-203375000D02*
X170925000Y-203375000D01*
X171650000Y-199625000D02*
X164350000Y-199625000D01*
X171650000Y-202650000D02*
X170925000Y-203375000D01*
X171650000Y-202650000D02*
X171650000Y-199625000D01*
X170725000Y-202950000D02*
X170575000Y-203150000D01*
X170875000Y-203150000D01*
X170725000Y-202950000D01*
G36*
X170875000Y-203150000D02*
G01*
X170575000Y-203150000D01*
X170725000Y-202950000D01*
X170875000Y-203150000D01*
G37*
%TO.C,C58*%
X190640580Y-63490000D02*
X190359420Y-63490000D01*
X190640580Y-64510000D02*
X190359420Y-64510000D01*
%TO.C,D22*%
X74350000Y-199625000D02*
X74350000Y-203375000D01*
X74350000Y-203375000D02*
X80925000Y-203375000D01*
X81650000Y-199625000D02*
X74350000Y-199625000D01*
X81650000Y-202650000D02*
X80925000Y-203375000D01*
X81650000Y-202650000D02*
X81650000Y-199625000D01*
X80725000Y-202950000D02*
X80575000Y-203150000D01*
X80875000Y-203150000D01*
X80725000Y-202950000D01*
G36*
X80875000Y-203150000D02*
G01*
X80575000Y-203150000D01*
X80725000Y-202950000D01*
X80875000Y-203150000D01*
G37*
%TO.C,U12*%
X297690000Y-213440000D02*
X297690000Y-213495000D01*
X297690000Y-223505000D02*
X297690000Y-223560000D01*
X297690000Y-223560000D02*
X301810000Y-223560000D01*
X301810000Y-213440000D02*
X297690000Y-213440000D01*
X301810000Y-213495000D02*
X301810000Y-213440000D01*
X301810000Y-223560000D02*
X301810000Y-223505000D01*
X302350000Y-213490000D02*
X302590000Y-213160000D01*
X302110000Y-213160000D01*
X302350000Y-213490000D01*
G36*
X302350000Y-213490000D02*
G01*
X302110000Y-213160000D01*
X302590000Y-213160000D01*
X302350000Y-213490000D01*
G37*
%TO.C,R16*%
X254237258Y-253477500D02*
X253762742Y-253477500D01*
X254237258Y-254522500D02*
X253762742Y-254522500D01*
%TO.C,RN6*%
X201937500Y-55257500D02*
X202937500Y-55257500D01*
X201937500Y-58617500D02*
X202937500Y-58617500D01*
%TO.C,U7*%
X109690000Y-103502500D02*
X109690000Y-103557500D01*
X109690000Y-113567500D02*
X109690000Y-113622500D01*
X109690000Y-113622500D02*
X113810000Y-113622500D01*
X113810000Y-103502500D02*
X109690000Y-103502500D01*
X113810000Y-103557500D02*
X113810000Y-103502500D01*
X113810000Y-113622500D02*
X113810000Y-113567500D01*
X114350000Y-103552500D02*
X114590000Y-103222500D01*
X114110000Y-103222500D01*
X114350000Y-103552500D01*
G36*
X114350000Y-103552500D02*
G01*
X114110000Y-103222500D01*
X114590000Y-103222500D01*
X114350000Y-103552500D01*
G37*
%TO.C,C30*%
X78494180Y-236543600D02*
X78213020Y-236543600D01*
X78494180Y-237563600D02*
X78213020Y-237563600D01*
%TO.C,C78*%
X44490000Y-58659420D02*
X44490000Y-58940580D01*
X45510000Y-58659420D02*
X45510000Y-58940580D01*
%TO.C,C51*%
X204140580Y-102990000D02*
X203859420Y-102990000D01*
X204140580Y-104010000D02*
X203859420Y-104010000D01*
%TO.C,R15*%
X224237258Y-253477500D02*
X223762742Y-253477500D01*
X224237258Y-254522500D02*
X223762742Y-254522500D01*
%TO.C,D26*%
X194350000Y-199625000D02*
X194350000Y-203375000D01*
X194350000Y-203375000D02*
X200925000Y-203375000D01*
X201650000Y-199625000D02*
X194350000Y-199625000D01*
X201650000Y-202650000D02*
X200925000Y-203375000D01*
X201650000Y-202650000D02*
X201650000Y-199625000D01*
X200725000Y-202950000D02*
X200575000Y-203150000D01*
X200875000Y-203150000D01*
X200725000Y-202950000D01*
G36*
X200875000Y-203150000D02*
G01*
X200575000Y-203150000D01*
X200725000Y-202950000D01*
X200875000Y-203150000D01*
G37*
%TO.C,C79*%
X50740000Y-39104437D02*
X50740000Y-46560000D01*
X50740000Y-46560000D02*
X53490000Y-46560000D01*
X51804437Y-38040000D02*
X50740000Y-39104437D01*
X51804437Y-38040000D02*
X53490000Y-38040000D01*
X51990000Y-37300000D02*
X52990000Y-37300000D01*
X52490000Y-36800000D02*
X52490000Y-37800000D01*
X58195563Y-38040000D02*
X56510000Y-38040000D01*
X58195563Y-38040000D02*
X59260000Y-39104437D01*
X59260000Y-39104437D02*
X59260000Y-46560000D01*
X59260000Y-46560000D02*
X56510000Y-46560000D01*
%TO.C,D42*%
X307375000Y-233350000D02*
X307375000Y-239925000D01*
X308100000Y-240650000D02*
X307375000Y-239925000D01*
X308100000Y-240650000D02*
X311125000Y-240650000D01*
X311125000Y-233350000D02*
X307375000Y-233350000D01*
X311125000Y-240650000D02*
X311125000Y-233350000D01*
X307800000Y-239725000D02*
X307600000Y-239575000D01*
X307600000Y-239875000D01*
X307800000Y-239725000D01*
G36*
X307800000Y-239725000D02*
G01*
X307600000Y-239875000D01*
X307600000Y-239575000D01*
X307800000Y-239725000D01*
G37*
%TO.C,C43*%
X59666300Y-69855020D02*
X59666300Y-70136180D01*
X60686300Y-69855020D02*
X60686300Y-70136180D01*
%TO.C,RN15*%
X143859300Y-113484600D02*
X144859300Y-113484600D01*
X143859300Y-116844600D02*
X144859300Y-116844600D01*
%TO.C,C8*%
X139140580Y-54990000D02*
X138859420Y-54990000D01*
X139140580Y-56010000D02*
X138859420Y-56010000D01*
%TO.C,C26*%
X198494180Y-204543600D02*
X198213020Y-204543600D01*
X198494180Y-205563600D02*
X198213020Y-205563600D01*
%TO.C,D29*%
X44350000Y-231625000D02*
X44350000Y-235375000D01*
X44350000Y-235375000D02*
X50925000Y-235375000D01*
X51650000Y-231625000D02*
X44350000Y-231625000D01*
X51650000Y-234650000D02*
X50925000Y-235375000D01*
X51650000Y-234650000D02*
X51650000Y-231625000D01*
X50725000Y-234950000D02*
X50575000Y-235150000D01*
X50875000Y-235150000D01*
X50725000Y-234950000D01*
G36*
X50875000Y-235150000D02*
G01*
X50575000Y-235150000D01*
X50725000Y-234950000D01*
X50875000Y-235150000D01*
G37*
%TO.C,C65*%
X120490000Y-108859420D02*
X120490000Y-109140580D01*
X121510000Y-108859420D02*
X121510000Y-109140580D01*
%TO.C,C63*%
X89640580Y-108490000D02*
X89359420Y-108490000D01*
X89640580Y-109510000D02*
X89359420Y-109510000D01*
%TO.C,C37*%
X286390580Y-137190000D02*
X286109420Y-137190000D01*
X286390580Y-138210000D02*
X286109420Y-138210000D01*
%TO.C,C32*%
X138494180Y-236543600D02*
X138213020Y-236543600D01*
X138494180Y-237563600D02*
X138213020Y-237563600D01*
%TO.C,D10*%
X122350000Y-63925000D02*
X122350000Y-67675000D01*
X122350000Y-67675000D02*
X128925000Y-67675000D01*
X129650000Y-63925000D02*
X122350000Y-63925000D01*
X129650000Y-66950000D02*
X128925000Y-67675000D01*
X129650000Y-66950000D02*
X129650000Y-63925000D01*
X128725000Y-67250000D02*
X128575000Y-67450000D01*
X128875000Y-67450000D01*
X128725000Y-67250000D01*
G36*
X128875000Y-67450000D02*
G01*
X128575000Y-67450000D01*
X128725000Y-67250000D01*
X128875000Y-67450000D01*
G37*
%TO.C,C4*%
X35140580Y-63990000D02*
X34859420Y-63990000D01*
X35140580Y-65010000D02*
X34859420Y-65010000D01*
%TO.C,C33*%
X168494180Y-236543600D02*
X168213020Y-236543600D01*
X168494180Y-237563600D02*
X168213020Y-237563600D01*
%TO.C,C56*%
X116640580Y-71490000D02*
X116359420Y-71490000D01*
X116640580Y-72510000D02*
X116359420Y-72510000D01*
%TO.C,D20*%
X253875000Y-128350000D02*
X253875000Y-134925000D01*
X254600000Y-135650000D02*
X253875000Y-134925000D01*
X254600000Y-135650000D02*
X257625000Y-135650000D01*
X257625000Y-128350000D02*
X253875000Y-128350000D01*
X257625000Y-135650000D02*
X257625000Y-128350000D01*
X254300000Y-134725000D02*
X254100000Y-134575000D01*
X254100000Y-134875000D01*
X254300000Y-134725000D01*
G36*
X254300000Y-134725000D02*
G01*
X254100000Y-134875000D01*
X254100000Y-134575000D01*
X254300000Y-134725000D01*
G37*
%TO.C,C6*%
X66140580Y-63990000D02*
X65859420Y-63990000D01*
X66140580Y-65010000D02*
X65859420Y-65010000D01*
%TO.C,D35*%
X224350000Y-231625000D02*
X224350000Y-235375000D01*
X224350000Y-235375000D02*
X230925000Y-235375000D01*
X231650000Y-231625000D02*
X224350000Y-231625000D01*
X231650000Y-234650000D02*
X230925000Y-235375000D01*
X231650000Y-234650000D02*
X231650000Y-231625000D01*
X230725000Y-234950000D02*
X230575000Y-235150000D01*
X230875000Y-235150000D01*
X230725000Y-234950000D01*
G36*
X230875000Y-235150000D02*
G01*
X230575000Y-235150000D01*
X230725000Y-234950000D01*
X230875000Y-235150000D01*
G37*
%TO.C,C52*%
X259890580Y-103802500D02*
X259609420Y-103802500D01*
X259890580Y-104822500D02*
X259609420Y-104822500D01*
%TO.C,C16*%
X135890580Y-136690000D02*
X135609420Y-136690000D01*
X135890580Y-137710000D02*
X135609420Y-137710000D01*
%TO.C,C5*%
X50640580Y-63990000D02*
X50359420Y-63990000D01*
X50640580Y-65010000D02*
X50359420Y-65010000D01*
%TO.C,C14*%
X75890580Y-136690000D02*
X75609420Y-136690000D01*
X75890580Y-137710000D02*
X75609420Y-137710000D01*
%TO.C,C27*%
X228494180Y-204543600D02*
X228213020Y-204543600D01*
X228494180Y-205563600D02*
X228213020Y-205563600D01*
%TO.C,RN12*%
X63250000Y-110945000D02*
X64250000Y-110945000D01*
X63250000Y-114305000D02*
X64250000Y-114305000D01*
%TO.C,C25*%
X168494180Y-204543600D02*
X168213020Y-204543600D01*
X168494180Y-205563600D02*
X168213020Y-205563600D01*
%TO.C,D28*%
X254350000Y-199625000D02*
X254350000Y-203375000D01*
X254350000Y-203375000D02*
X260925000Y-203375000D01*
X261650000Y-199625000D02*
X254350000Y-199625000D01*
X261650000Y-202650000D02*
X260925000Y-203375000D01*
X261650000Y-202650000D02*
X261650000Y-199625000D01*
X260725000Y-202950000D02*
X260575000Y-203150000D01*
X260875000Y-203150000D01*
X260725000Y-202950000D01*
G36*
X260875000Y-203150000D02*
G01*
X260575000Y-203150000D01*
X260725000Y-202950000D01*
X260875000Y-203150000D01*
G37*
%TO.C,U13*%
X147725900Y-226140000D02*
X147725900Y-233860000D01*
X147725900Y-233860000D02*
X147990900Y-233860000D01*
X147990900Y-226140000D02*
X147725900Y-226140000D01*
X163080900Y-233860000D02*
X163345900Y-233860000D01*
X163345900Y-226140000D02*
X163080900Y-226140000D01*
X163345900Y-233860000D02*
X163345900Y-226140000D01*
X147985900Y-225350000D02*
X147515900Y-225010000D01*
X147515900Y-225690000D01*
X147985900Y-225350000D01*
G36*
X147985900Y-225350000D02*
G01*
X147515900Y-225690000D01*
X147515900Y-225010000D01*
X147985900Y-225350000D01*
G37*
%TO.C,D33*%
X164350000Y-231625000D02*
X164350000Y-235375000D01*
X164350000Y-235375000D02*
X170925000Y-235375000D01*
X171650000Y-231625000D02*
X164350000Y-231625000D01*
X171650000Y-234650000D02*
X170925000Y-235375000D01*
X171650000Y-234650000D02*
X171650000Y-231625000D01*
X170725000Y-234950000D02*
X170575000Y-235150000D01*
X170875000Y-235150000D01*
X170725000Y-234950000D01*
G36*
X170875000Y-235150000D02*
G01*
X170575000Y-235150000D01*
X170725000Y-234950000D01*
X170875000Y-235150000D01*
G37*
%TO.C,D5*%
X46850000Y-58925000D02*
X46850000Y-62675000D01*
X46850000Y-62675000D02*
X53425000Y-62675000D01*
X54150000Y-58925000D02*
X46850000Y-58925000D01*
X54150000Y-61950000D02*
X53425000Y-62675000D01*
X54150000Y-61950000D02*
X54150000Y-58925000D01*
X53225000Y-62250000D02*
X53075000Y-62450000D01*
X53375000Y-62450000D01*
X53225000Y-62250000D01*
G36*
X53375000Y-62450000D02*
G01*
X53075000Y-62450000D01*
X53225000Y-62250000D01*
X53375000Y-62450000D01*
G37*
%TO.C,RN14*%
X117250000Y-106882500D02*
X118250000Y-106882500D01*
X117250000Y-110242500D02*
X118250000Y-110242500D01*
%TO.C,C76*%
X159140580Y-154490000D02*
X158859420Y-154490000D01*
X159140580Y-155510000D02*
X158859420Y-155510000D01*
%TO.C,C20*%
X255890580Y-136690000D02*
X255609420Y-136690000D01*
X255890580Y-137710000D02*
X255609420Y-137710000D01*
%TO.C,C54*%
X299890580Y-210990000D02*
X299609420Y-210990000D01*
X299890580Y-212010000D02*
X299609420Y-212010000D01*
%TO.C,C44*%
X116491080Y-48965800D02*
X116209920Y-48965800D01*
X116491080Y-49985800D02*
X116209920Y-49985800D01*
%TO.C,C50*%
X150499880Y-107654600D02*
X150218720Y-107654600D01*
X150499880Y-108674600D02*
X150218720Y-108674600D01*
%TO.C,U9*%
X201940000Y-105440000D02*
X201940000Y-105495000D01*
X201940000Y-115505000D02*
X201940000Y-115560000D01*
X201940000Y-115560000D02*
X206060000Y-115560000D01*
X206060000Y-105440000D02*
X201940000Y-105440000D01*
X206060000Y-105495000D02*
X206060000Y-105440000D01*
X206060000Y-115560000D02*
X206060000Y-115505000D01*
X206600000Y-105490000D02*
X206840000Y-105160000D01*
X206360000Y-105160000D01*
X206600000Y-105490000D01*
G36*
X206600000Y-105490000D02*
G01*
X206360000Y-105160000D01*
X206840000Y-105160000D01*
X206600000Y-105490000D01*
G37*
%TO.C,RN13*%
X105250000Y-107382500D02*
X106250000Y-107382500D01*
X105250000Y-110742500D02*
X106250000Y-110742500D01*
%TO.C,C60*%
X48640580Y-108490000D02*
X48359420Y-108490000D01*
X48640580Y-109510000D02*
X48359420Y-109510000D01*
%TO.C,D23*%
X104350000Y-199625000D02*
X104350000Y-203375000D01*
X104350000Y-203375000D02*
X110925000Y-203375000D01*
X111650000Y-199625000D02*
X104350000Y-199625000D01*
X111650000Y-202650000D02*
X110925000Y-203375000D01*
X111650000Y-202650000D02*
X111650000Y-199625000D01*
X110725000Y-202950000D02*
X110575000Y-203150000D01*
X110875000Y-203150000D01*
X110725000Y-202950000D01*
G36*
X110875000Y-203150000D02*
G01*
X110575000Y-203150000D01*
X110725000Y-202950000D01*
X110875000Y-203150000D01*
G37*
%TO.C,RN19*%
X250430900Y-110658600D02*
X251430900Y-110658600D01*
X250430900Y-114018600D02*
X251430900Y-114018600D01*
%TO.C,C59*%
X29640580Y-108490000D02*
X29359420Y-108490000D01*
X29640580Y-109510000D02*
X29359420Y-109510000D01*
%TO.C,U6*%
X55690000Y-109065000D02*
X55690000Y-109120000D01*
X55690000Y-119130000D02*
X55690000Y-119185000D01*
X55690000Y-119185000D02*
X59810000Y-119185000D01*
X59810000Y-109065000D02*
X55690000Y-109065000D01*
X59810000Y-109120000D02*
X59810000Y-109065000D01*
X59810000Y-119185000D02*
X59810000Y-119130000D01*
X60350000Y-109115000D02*
X60590000Y-108785000D01*
X60110000Y-108785000D01*
X60350000Y-109115000D01*
G36*
X60350000Y-109115000D02*
G01*
X60110000Y-108785000D01*
X60590000Y-108785000D01*
X60350000Y-109115000D01*
G37*
%TO.C,D9*%
X148350000Y-49925000D02*
X148350000Y-53675000D01*
X148350000Y-53675000D02*
X154925000Y-53675000D01*
X155650000Y-49925000D02*
X148350000Y-49925000D01*
X155650000Y-52950000D02*
X154925000Y-53675000D01*
X155650000Y-52950000D02*
X155650000Y-49925000D01*
X154725000Y-53250000D02*
X154575000Y-53450000D01*
X154875000Y-53450000D01*
X154725000Y-53250000D01*
G36*
X154875000Y-53450000D02*
G01*
X154575000Y-53450000D01*
X154725000Y-53250000D01*
X154875000Y-53450000D01*
G37*
%TO.C,C74*%
X252351800Y-106807320D02*
X252351800Y-107088480D01*
X253371800Y-106807320D02*
X253371800Y-107088480D01*
%TO.C,C39*%
X286390580Y-148190000D02*
X286109420Y-148190000D01*
X286390580Y-149210000D02*
X286109420Y-149210000D01*
%TO.C,D15*%
X103875000Y-128350000D02*
X103875000Y-134925000D01*
X104600000Y-135650000D02*
X103875000Y-134925000D01*
X104600000Y-135650000D02*
X107625000Y-135650000D01*
X107625000Y-128350000D02*
X103875000Y-128350000D01*
X107625000Y-135650000D02*
X107625000Y-128350000D01*
X104300000Y-134725000D02*
X104100000Y-134575000D01*
X104100000Y-134875000D01*
X104300000Y-134725000D01*
G36*
X104300000Y-134725000D02*
G01*
X104100000Y-134875000D01*
X104100000Y-134575000D01*
X104300000Y-134725000D01*
G37*
%TO.C,C68*%
X168640580Y-108490000D02*
X168359420Y-108490000D01*
X168640580Y-109510000D02*
X168359420Y-109510000D01*
%TO.C,C49*%
X111890580Y-101052500D02*
X111609420Y-101052500D01*
X111890580Y-102072500D02*
X111609420Y-102072500D01*
%TO.C,D30*%
X74350000Y-231625000D02*
X74350000Y-235375000D01*
X74350000Y-235375000D02*
X80925000Y-235375000D01*
X81650000Y-231625000D02*
X74350000Y-231625000D01*
X81650000Y-234650000D02*
X80925000Y-235375000D01*
X81650000Y-234650000D02*
X81650000Y-231625000D01*
X80725000Y-234950000D02*
X80575000Y-235150000D01*
X80875000Y-235150000D01*
X80725000Y-234950000D01*
G36*
X80875000Y-235150000D02*
G01*
X80575000Y-235150000D01*
X80725000Y-234950000D01*
X80875000Y-235150000D01*
G37*
%TO.C,R9*%
X44237258Y-253477500D02*
X43762742Y-253477500D01*
X44237258Y-254522500D02*
X43762742Y-254522500D01*
%TO.C,D14*%
X73875000Y-128350000D02*
X73875000Y-134925000D01*
X74600000Y-135650000D02*
X73875000Y-134925000D01*
X74600000Y-135650000D02*
X77625000Y-135650000D01*
X77625000Y-128350000D02*
X73875000Y-128350000D01*
X77625000Y-135650000D02*
X77625000Y-128350000D01*
X74300000Y-134725000D02*
X74100000Y-134575000D01*
X74100000Y-134875000D01*
X74300000Y-134725000D01*
G36*
X74300000Y-134725000D02*
G01*
X74100000Y-134875000D01*
X74100000Y-134575000D01*
X74300000Y-134725000D01*
G37*
%TO.C,RN23*%
X293250000Y-222320000D02*
X294250000Y-222320000D01*
X293250000Y-225680000D02*
X294250000Y-225680000D01*
%TO.C,C55*%
X97640580Y-71490000D02*
X97359420Y-71490000D01*
X97640580Y-72510000D02*
X97359420Y-72510000D01*
%TO.C,D41*%
X284375000Y-233350000D02*
X284375000Y-239925000D01*
X285100000Y-240650000D02*
X284375000Y-239925000D01*
X285100000Y-240650000D02*
X288125000Y-240650000D01*
X288125000Y-233350000D02*
X284375000Y-233350000D01*
X288125000Y-240650000D02*
X288125000Y-233350000D01*
X284800000Y-239725000D02*
X284600000Y-239575000D01*
X284600000Y-239875000D01*
X284800000Y-239725000D01*
G36*
X284800000Y-239725000D02*
G01*
X284600000Y-239875000D01*
X284600000Y-239575000D01*
X284800000Y-239725000D01*
G37*
%TO.C,C53*%
X293140580Y-140740000D02*
X292859420Y-140740000D01*
X293140580Y-141760000D02*
X292859420Y-141760000D01*
%TO.C,D32*%
X134350000Y-231625000D02*
X134350000Y-235375000D01*
X134350000Y-235375000D02*
X140925000Y-235375000D01*
X141650000Y-231625000D02*
X134350000Y-231625000D01*
X141650000Y-234650000D02*
X140925000Y-235375000D01*
X141650000Y-234650000D02*
X141650000Y-231625000D01*
X140725000Y-234950000D02*
X140575000Y-235150000D01*
X140875000Y-235150000D01*
X140725000Y-234950000D01*
G36*
X140875000Y-235150000D02*
G01*
X140575000Y-235150000D01*
X140725000Y-234950000D01*
X140875000Y-235150000D01*
G37*
%TO.C,C28*%
X258494180Y-204543600D02*
X258213020Y-204543600D01*
X258494180Y-205563600D02*
X258213020Y-205563600D01*
%TO.C,R6*%
X194237258Y-221477500D02*
X193762742Y-221477500D01*
X194237258Y-222522500D02*
X193762742Y-222522500D01*
%TO.C,U14*%
X155140000Y-157190000D02*
X155140000Y-157455000D01*
X155140000Y-172545000D02*
X155140000Y-172810000D01*
X155140000Y-172810000D02*
X162860000Y-172810000D01*
X162860000Y-157190000D02*
X155140000Y-157190000D01*
X162860000Y-157455000D02*
X162860000Y-157190000D01*
X162860000Y-172810000D02*
X162860000Y-172545000D01*
X163650000Y-157450000D02*
X163990000Y-156980000D01*
X163310000Y-156980000D01*
X163650000Y-157450000D01*
G36*
X163650000Y-157450000D02*
G01*
X163310000Y-156980000D01*
X163990000Y-156980000D01*
X163650000Y-157450000D01*
G37*
%TO.C,U1*%
X55823400Y-74228500D02*
X55823400Y-78348500D01*
X55823400Y-78348500D02*
X55878400Y-78348500D01*
X55878400Y-74228500D02*
X55823400Y-74228500D01*
X65888400Y-78348500D02*
X65943400Y-78348500D01*
X65943400Y-74228500D02*
X65888400Y-74228500D01*
X65943400Y-78348500D02*
X65943400Y-74228500D01*
X55873400Y-73688500D02*
X55543400Y-73448500D01*
X55543400Y-73928500D01*
X55873400Y-73688500D01*
G36*
X55873400Y-73688500D02*
G01*
X55543400Y-73928500D01*
X55543400Y-73448500D01*
X55873400Y-73688500D01*
G37*
%TO.C,D19*%
X223875000Y-128350000D02*
X223875000Y-134925000D01*
X224600000Y-135650000D02*
X223875000Y-134925000D01*
X224600000Y-135650000D02*
X227625000Y-135650000D01*
X227625000Y-128350000D02*
X223875000Y-128350000D01*
X227625000Y-135650000D02*
X227625000Y-128350000D01*
X224300000Y-134725000D02*
X224100000Y-134575000D01*
X224100000Y-134875000D01*
X224300000Y-134725000D01*
G36*
X224300000Y-134725000D02*
G01*
X224100000Y-134875000D01*
X224100000Y-134575000D01*
X224300000Y-134725000D01*
G37*
%TO.C,C31*%
X108494180Y-236543600D02*
X108213020Y-236543600D01*
X108494180Y-237563600D02*
X108213020Y-237563600D01*
%TO.C,RN11*%
X51250000Y-112445000D02*
X52250000Y-112445000D01*
X51250000Y-115805000D02*
X52250000Y-115805000D01*
%TO.C,C41*%
X286390580Y-241690000D02*
X286109420Y-241690000D01*
X286390580Y-242710000D02*
X286109420Y-242710000D01*
%TO.C,C19*%
X225890580Y-136690000D02*
X225609420Y-136690000D01*
X225890580Y-137710000D02*
X225609420Y-137710000D01*
%TD*%
%LPC*%
D12*
%TO.C,SW9*%
X122750000Y-56750000D03*
X129250000Y-56750000D03*
X122750000Y-61250000D03*
X129250000Y-61250000D03*
%TD*%
%TO.C,SW50*%
X299250000Y-97250000D03*
X305750000Y-97250000D03*
X299250000Y-101750000D03*
X305750000Y-101750000D03*
%TD*%
%TO.C,SW55*%
X299250000Y-141250000D03*
X305750000Y-141250000D03*
X299250000Y-145750000D03*
X305750000Y-145750000D03*
%TD*%
D13*
%TO.C,H2*%
X314000000Y-38000000D03*
%TD*%
D12*
%TO.C,SW19*%
X237250000Y-52250000D03*
X243750000Y-52250000D03*
X237250000Y-56750000D03*
X243750000Y-56750000D03*
%TD*%
D13*
%TO.C,H5*%
X264000000Y-120000000D03*
%TD*%
D12*
%TO.C,SW37*%
X95750000Y-116250000D03*
X102250000Y-116250000D03*
X95750000Y-120750000D03*
X102250000Y-120750000D03*
%TD*%
%TO.C,SW4*%
X78250000Y-49250000D03*
X84750000Y-49250000D03*
X78250000Y-53750000D03*
X84750000Y-53750000D03*
%TD*%
%TO.C,SW40*%
X125750000Y-129750000D03*
X132250000Y-129750000D03*
X125750000Y-134250000D03*
X132250000Y-134250000D03*
%TD*%
D14*
%TO.C,FSR3*%
X97730000Y-222000000D03*
D15*
X100270000Y-222000000D03*
%TD*%
D12*
%TO.C,SW39*%
X125750000Y-116250000D03*
X132250000Y-116250000D03*
X125750000Y-120750000D03*
X132250000Y-120750000D03*
%TD*%
D16*
%TO.C,ENC4*%
X61500000Y-100500000D03*
D12*
X61500000Y-105500000D03*
X61500000Y-103000000D03*
D17*
X69000000Y-97400000D03*
X69000000Y-108600000D03*
D12*
X76000000Y-105500000D03*
X76000000Y-100500000D03*
%TD*%
%TO.C,SW23*%
X241250000Y-71250000D03*
X247750000Y-71250000D03*
X241250000Y-75750000D03*
X247750000Y-75750000D03*
%TD*%
D14*
%TO.C,FSR10*%
X67730000Y-254000000D03*
D15*
X70270000Y-254000000D03*
%TD*%
D12*
%TO.C,SW28*%
X304500000Y-49250000D03*
X311000000Y-49250000D03*
X304500000Y-53750000D03*
X311000000Y-53750000D03*
%TD*%
%TO.C,SW53*%
X299250000Y-130250000D03*
X305750000Y-130250000D03*
X299250000Y-134750000D03*
X305750000Y-134750000D03*
%TD*%
D18*
%TO.C,RV1*%
X37250000Y-196250000D03*
D19*
X40750000Y-196250000D03*
X37250000Y-137750000D03*
D20*
X43200000Y-192100000D03*
X34800000Y-190900000D03*
X34800000Y-143100000D03*
X43200000Y-141900000D03*
%TD*%
D14*
%TO.C,FSR15*%
X217730000Y-254000000D03*
D15*
X220270000Y-254000000D03*
%TD*%
D12*
%TO.C,SW38*%
X95750000Y-129750000D03*
X102250000Y-129750000D03*
X95750000Y-134250000D03*
X102250000Y-134250000D03*
%TD*%
%TO.C,SW30*%
X277500000Y-66250000D03*
X284000000Y-66250000D03*
X277500000Y-70750000D03*
X284000000Y-70750000D03*
%TD*%
D16*
%TO.C,ENC9*%
X211500000Y-100500000D03*
D12*
X211500000Y-105500000D03*
X211500000Y-103000000D03*
D17*
X219000000Y-97400000D03*
X219000000Y-108600000D03*
D12*
X226000000Y-105500000D03*
X226000000Y-100500000D03*
%TD*%
%TO.C,SW12*%
X122750000Y-70750000D03*
X129250000Y-70750000D03*
X122750000Y-75250000D03*
X129250000Y-75250000D03*
%TD*%
D16*
%TO.C,ENC10*%
X241500000Y-100500000D03*
D12*
X241500000Y-105500000D03*
X241500000Y-103000000D03*
D17*
X249000000Y-97400000D03*
X249000000Y-108600000D03*
D12*
X256000000Y-105500000D03*
X256000000Y-100500000D03*
%TD*%
%TO.C,SW22*%
X227750000Y-71250000D03*
X234250000Y-71250000D03*
X227750000Y-75750000D03*
X234250000Y-75750000D03*
%TD*%
D14*
%TO.C,FSR12*%
X127730000Y-254000000D03*
D15*
X130270000Y-254000000D03*
%TD*%
D14*
%TO.C,FSR5*%
X157730000Y-222000000D03*
D15*
X160270000Y-222000000D03*
%TD*%
D12*
%TO.C,SW24*%
X237250000Y-61750000D03*
X243750000Y-61750000D03*
X237250000Y-66250000D03*
X243750000Y-66250000D03*
%TD*%
D18*
%TO.C,RV8*%
X247250000Y-196250000D03*
D19*
X250750000Y-196250000D03*
X247250000Y-137750000D03*
D20*
X253200000Y-192100000D03*
X244800000Y-190900000D03*
X244800000Y-143100000D03*
X253200000Y-141900000D03*
%TD*%
D12*
%TO.C,SW5*%
X31750000Y-66250000D03*
X38250000Y-66250000D03*
X31750000Y-70750000D03*
X38250000Y-70750000D03*
%TD*%
D13*
%TO.C,H3*%
X26000000Y-264000000D03*
%TD*%
D14*
%TO.C,FSR8*%
X247730000Y-222000000D03*
D15*
X250270000Y-222000000D03*
%TD*%
D14*
%TO.C,FSR4*%
X127730000Y-222000000D03*
D15*
X130270000Y-222000000D03*
%TD*%
D12*
%TO.C,SW17*%
X208750000Y-61750000D03*
X215250000Y-61750000D03*
X208750000Y-66250000D03*
X215250000Y-66250000D03*
%TD*%
D18*
%TO.C,RV2*%
X67250000Y-196250000D03*
D19*
X70750000Y-196250000D03*
X67250000Y-137750000D03*
D20*
X73200000Y-192100000D03*
X64800000Y-190900000D03*
X64800000Y-143100000D03*
X73200000Y-141900000D03*
%TD*%
D12*
%TO.C,SW44*%
X185750000Y-129750000D03*
X192250000Y-129750000D03*
X185750000Y-134250000D03*
X192250000Y-134250000D03*
%TD*%
%TO.C,SW56*%
X276250000Y-156250000D03*
X282750000Y-156250000D03*
X276250000Y-160750000D03*
X282750000Y-160750000D03*
%TD*%
%TO.C,SW57*%
X299250000Y-156250000D03*
X305750000Y-156250000D03*
X299250000Y-160750000D03*
X305750000Y-160750000D03*
%TD*%
%TO.C,SW27*%
X291000000Y-49250000D03*
X297500000Y-49250000D03*
X291000000Y-53750000D03*
X297500000Y-53750000D03*
%TD*%
%TO.C,SW25*%
X264000000Y-49250000D03*
X270500000Y-49250000D03*
X264000000Y-53750000D03*
X270500000Y-53750000D03*
%TD*%
%TO.C,SW35*%
X65750000Y-116250000D03*
X72250000Y-116250000D03*
X65750000Y-120750000D03*
X72250000Y-120750000D03*
%TD*%
D18*
%TO.C,RV3*%
X97250000Y-196250000D03*
D19*
X100750000Y-196250000D03*
X97250000Y-137750000D03*
D20*
X103200000Y-192100000D03*
X94800000Y-190900000D03*
X94800000Y-143100000D03*
X103200000Y-141900000D03*
%TD*%
D14*
%TO.C,FSR2*%
X67730000Y-222000000D03*
D15*
X70270000Y-222000000D03*
%TD*%
D14*
%TO.C,FSR6*%
X187730000Y-222000000D03*
D15*
X190270000Y-222000000D03*
%TD*%
D12*
%TO.C,SW34*%
X35750000Y-129750000D03*
X42250000Y-129750000D03*
X35750000Y-134250000D03*
X42250000Y-134250000D03*
%TD*%
%TO.C,SW2*%
X47250000Y-49250000D03*
X53750000Y-49250000D03*
X47250000Y-53750000D03*
X53750000Y-53750000D03*
%TD*%
%TO.C,SW6*%
X47250000Y-66250000D03*
X53750000Y-66250000D03*
X47250000Y-70750000D03*
X53750000Y-70750000D03*
%TD*%
%TO.C,SW46*%
X215750000Y-129750000D03*
X222250000Y-129750000D03*
X215750000Y-134250000D03*
X222250000Y-134250000D03*
%TD*%
%TO.C,SW13*%
X135750000Y-70750000D03*
X142250000Y-70750000D03*
X135750000Y-75250000D03*
X142250000Y-75250000D03*
%TD*%
%TO.C,SW32*%
X304500000Y-66250000D03*
X311000000Y-66250000D03*
X304500000Y-70750000D03*
X311000000Y-70750000D03*
%TD*%
D14*
%TO.C,J1*%
X296190000Y-182000000D03*
D15*
X298730000Y-182000000D03*
X301270000Y-182000000D03*
X303810000Y-182000000D03*
%TD*%
D12*
%TO.C,SW36*%
X65750000Y-129750000D03*
X72250000Y-129750000D03*
X65750000Y-134250000D03*
X72250000Y-134250000D03*
%TD*%
D14*
%TO.C,FSR13*%
X157730000Y-254000000D03*
D15*
X160270000Y-254000000D03*
%TD*%
D14*
%TO.C,FSR9*%
X37730000Y-254000000D03*
D15*
X40270000Y-254000000D03*
%TD*%
D16*
%TO.C,ENC5*%
X91500000Y-100500000D03*
D12*
X91500000Y-105500000D03*
X91500000Y-103000000D03*
D17*
X99000000Y-97400000D03*
X99000000Y-108600000D03*
D12*
X106000000Y-105500000D03*
X106000000Y-100500000D03*
%TD*%
%TO.C,SW48*%
X245750000Y-129750000D03*
X252250000Y-129750000D03*
X245750000Y-134250000D03*
X252250000Y-134250000D03*
%TD*%
%TO.C,SW58*%
X287750000Y-202750000D03*
X294250000Y-202750000D03*
X287750000Y-207250000D03*
X294250000Y-207250000D03*
%TD*%
D16*
%TO.C,ENC7*%
X151500000Y-100500000D03*
D12*
X151500000Y-105500000D03*
X151500000Y-103000000D03*
D17*
X159000000Y-97400000D03*
X159000000Y-108600000D03*
D12*
X166000000Y-105500000D03*
X166000000Y-100500000D03*
%TD*%
%TO.C,SW52*%
X276250000Y-130250000D03*
X282750000Y-130250000D03*
X276250000Y-134750000D03*
X282750000Y-134750000D03*
%TD*%
%TO.C,SW47*%
X245750000Y-116250000D03*
X252250000Y-116250000D03*
X245750000Y-120750000D03*
X252250000Y-120750000D03*
%TD*%
D18*
%TO.C,RV7*%
X217250000Y-196250000D03*
D19*
X220750000Y-196250000D03*
X217250000Y-137750000D03*
D20*
X223200000Y-192100000D03*
X214800000Y-190900000D03*
X214800000Y-143100000D03*
X223200000Y-141900000D03*
%TD*%
D12*
%TO.C,SW10*%
X135750000Y-56750000D03*
X142250000Y-56750000D03*
X135750000Y-61250000D03*
X142250000Y-61250000D03*
%TD*%
D18*
%TO.C,RV4*%
X127250000Y-196250000D03*
D19*
X130750000Y-196250000D03*
X127250000Y-137750000D03*
D20*
X133200000Y-192100000D03*
X124800000Y-190900000D03*
X124800000Y-143100000D03*
X133200000Y-141900000D03*
%TD*%
D16*
%TO.C,ENC3*%
X31500000Y-100500000D03*
D12*
X31500000Y-105500000D03*
X31500000Y-103000000D03*
D17*
X39000000Y-97400000D03*
X39000000Y-108600000D03*
D12*
X46000000Y-105500000D03*
X46000000Y-100500000D03*
%TD*%
D16*
%TO.C,ENC1*%
X99500000Y-63500000D03*
D12*
X99500000Y-68500000D03*
X99500000Y-66000000D03*
D17*
X107000000Y-60400000D03*
X107000000Y-71600000D03*
D12*
X114000000Y-68500000D03*
X114000000Y-63500000D03*
%TD*%
D14*
%TO.C,FSR1*%
X37730000Y-222000000D03*
D15*
X40270000Y-222000000D03*
%TD*%
D12*
%TO.C,SW41*%
X155750000Y-116250000D03*
X162250000Y-116250000D03*
X155750000Y-120750000D03*
X162250000Y-120750000D03*
%TD*%
D14*
%TO.C,FSR14*%
X187730000Y-254000000D03*
D15*
X190270000Y-254000000D03*
%TD*%
D12*
%TO.C,SW7*%
X62750000Y-66250000D03*
X69250000Y-66250000D03*
X62750000Y-70750000D03*
X69250000Y-70750000D03*
%TD*%
D13*
%TO.C,H1*%
X26000000Y-38000000D03*
%TD*%
D12*
%TO.C,SW1*%
X31750000Y-49250000D03*
X38250000Y-49250000D03*
X31750000Y-53750000D03*
X38250000Y-53750000D03*
%TD*%
%TO.C,SW15*%
X208750000Y-42750000D03*
X215250000Y-42750000D03*
X208750000Y-47250000D03*
X215250000Y-47250000D03*
%TD*%
%TO.C,SW43*%
X185750000Y-116250000D03*
X192250000Y-116250000D03*
X185750000Y-120750000D03*
X192250000Y-120750000D03*
%TD*%
%TO.C,SW18*%
X237250000Y-42750000D03*
X243750000Y-42750000D03*
X237250000Y-47250000D03*
X243750000Y-47250000D03*
%TD*%
%TO.C,SW29*%
X264000000Y-66250000D03*
X270500000Y-66250000D03*
X264000000Y-70750000D03*
X270500000Y-70750000D03*
%TD*%
D13*
%TO.C,H4*%
X314000000Y-264000000D03*
%TD*%
D12*
%TO.C,SW42*%
X155750000Y-129750000D03*
X162250000Y-129750000D03*
X155750000Y-134250000D03*
X162250000Y-134250000D03*
%TD*%
%TO.C,SW21*%
X214250000Y-71250000D03*
X220750000Y-71250000D03*
X214250000Y-75750000D03*
X220750000Y-75750000D03*
%TD*%
%TO.C,SW45*%
X215750000Y-116250000D03*
X222250000Y-116250000D03*
X215750000Y-120750000D03*
X222250000Y-120750000D03*
%TD*%
%TO.C,SW3*%
X62750000Y-49250000D03*
X69250000Y-49250000D03*
X62750000Y-53750000D03*
X69250000Y-53750000D03*
%TD*%
%TO.C,SW61*%
X299250000Y-234750000D03*
X305750000Y-234750000D03*
X299250000Y-239250000D03*
X305750000Y-239250000D03*
%TD*%
%TO.C,SW49*%
X276250000Y-97250000D03*
X282750000Y-97250000D03*
X276250000Y-101750000D03*
X282750000Y-101750000D03*
%TD*%
D14*
%TO.C,FSR16*%
X247730000Y-254000000D03*
D15*
X250270000Y-254000000D03*
%TD*%
D16*
%TO.C,ENC8*%
X181500000Y-100500000D03*
D12*
X181500000Y-105500000D03*
X181500000Y-103000000D03*
D17*
X189000000Y-97400000D03*
X189000000Y-108600000D03*
D12*
X196000000Y-105500000D03*
X196000000Y-100500000D03*
%TD*%
D14*
%TO.C,FSR7*%
X217730000Y-222000000D03*
D15*
X220270000Y-222000000D03*
%TD*%
D14*
%TO.C,FSR11*%
X97730000Y-254000000D03*
D15*
X100270000Y-254000000D03*
%TD*%
D18*
%TO.C,RV5*%
X157250000Y-196250000D03*
D19*
X160750000Y-196250000D03*
X157250000Y-137750000D03*
D20*
X163200000Y-192100000D03*
X154800000Y-190900000D03*
X154800000Y-143100000D03*
X163200000Y-141900000D03*
%TD*%
D12*
%TO.C,SW31*%
X291000000Y-66250000D03*
X297500000Y-66250000D03*
X291000000Y-70750000D03*
X297500000Y-70750000D03*
%TD*%
D18*
%TO.C,RV6*%
X187250000Y-196250000D03*
D19*
X190750000Y-196250000D03*
X187250000Y-137750000D03*
D20*
X193200000Y-192100000D03*
X184800000Y-190900000D03*
X184800000Y-143100000D03*
X193200000Y-141900000D03*
%TD*%
D12*
%TO.C,SW11*%
X148750000Y-56750000D03*
X155250000Y-56750000D03*
X148750000Y-61250000D03*
X155250000Y-61250000D03*
%TD*%
%TO.C,SW59*%
X287750000Y-215750000D03*
X294250000Y-215750000D03*
X287750000Y-220250000D03*
X294250000Y-220250000D03*
%TD*%
D13*
%TO.C,H6*%
X264000000Y-195000000D03*
%TD*%
D12*
%TO.C,SW20*%
X200750000Y-71250000D03*
X207250000Y-71250000D03*
X200750000Y-75750000D03*
X207250000Y-75750000D03*
%TD*%
%TO.C,SW8*%
X78250000Y-66250000D03*
X84750000Y-66250000D03*
X78250000Y-70750000D03*
X84750000Y-70750000D03*
%TD*%
%TO.C,SW60*%
X276250000Y-234750000D03*
X282750000Y-234750000D03*
X276250000Y-239250000D03*
X282750000Y-239250000D03*
%TD*%
%TO.C,SW26*%
X277500000Y-49250000D03*
X284000000Y-49250000D03*
X277500000Y-53750000D03*
X284000000Y-53750000D03*
%TD*%
%TO.C,SW54*%
X276250000Y-141250000D03*
X282750000Y-141250000D03*
X276250000Y-145750000D03*
X282750000Y-145750000D03*
%TD*%
D16*
%TO.C,ENC6*%
X121500000Y-100500000D03*
D12*
X121500000Y-105500000D03*
X121500000Y-103000000D03*
D17*
X129000000Y-97400000D03*
X129000000Y-108600000D03*
D12*
X136000000Y-105500000D03*
X136000000Y-100500000D03*
%TD*%
D16*
%TO.C,ENC2*%
X173500000Y-55500000D03*
D12*
X173500000Y-60500000D03*
X173500000Y-58000000D03*
D17*
X181000000Y-52400000D03*
X181000000Y-63600000D03*
D12*
X188000000Y-60500000D03*
X188000000Y-55500000D03*
%TD*%
%TO.C,SW16*%
X208750000Y-52250000D03*
X215250000Y-52250000D03*
X208750000Y-56750000D03*
X215250000Y-56750000D03*
%TD*%
%TO.C,SW33*%
X35750000Y-116250000D03*
X42250000Y-116250000D03*
X35750000Y-120750000D03*
X42250000Y-120750000D03*
%TD*%
%TO.C,SW14*%
X148750000Y-70750000D03*
X155250000Y-70750000D03*
X148750000Y-75250000D03*
X155250000Y-75250000D03*
%TD*%
%TO.C,SW51*%
X287750000Y-109750000D03*
X294250000Y-109750000D03*
X287750000Y-114250000D03*
X294250000Y-114250000D03*
%TD*%
D21*
%TO.C,RN1*%
X53783400Y-75088500D03*
D22*
X53783400Y-75888500D03*
X53783400Y-76688500D03*
D21*
X53783400Y-77488500D03*
X51983400Y-77488500D03*
D22*
X51983400Y-76688500D03*
X51983400Y-75888500D03*
D21*
X51983400Y-75088500D03*
%TD*%
D23*
%TO.C,C77*%
X252645400Y-163511600D03*
X250745400Y-163511600D03*
%TD*%
D24*
%TO.C,D6*%
X68725000Y-61550000D03*
X68725000Y-60050000D03*
X63275000Y-60050000D03*
X63275000Y-61550000D03*
%TD*%
D25*
%TO.C,C35*%
X229128600Y-237053600D03*
X227578600Y-237053600D03*
%TD*%
%TO.C,C69*%
X180275000Y-109000000D03*
X178725000Y-109000000D03*
%TD*%
D21*
%TO.C,RN2*%
X69283400Y-75088500D03*
D22*
X69283400Y-75888500D03*
X69283400Y-76688500D03*
D21*
X69283400Y-77488500D03*
X67483400Y-77488500D03*
D22*
X67483400Y-76688500D03*
X67483400Y-75888500D03*
D21*
X67483400Y-75088500D03*
%TD*%
D25*
%TO.C,C67*%
X147455900Y-107973900D03*
X145905900Y-107973900D03*
%TD*%
D24*
%TO.C,D11*%
X141725000Y-66550000D03*
X141725000Y-65050000D03*
X136275000Y-65050000D03*
X136275000Y-66550000D03*
%TD*%
D25*
%TO.C,C24*%
X139128600Y-205053600D03*
X137578600Y-205053600D03*
%TD*%
%TO.C,C42*%
X310025000Y-242200000D03*
X308475000Y-242200000D03*
%TD*%
D26*
%TO.C,C70*%
X198500000Y-105725000D03*
X198500000Y-107275000D03*
%TD*%
D24*
%TO.C,D8*%
X141725000Y-52550000D03*
X141725000Y-51050000D03*
X136275000Y-51050000D03*
X136275000Y-52550000D03*
%TD*%
D27*
%TO.C,U16*%
X41190000Y-41325000D03*
X42460000Y-41325000D03*
X43730000Y-41325000D03*
X45000000Y-41325000D03*
X46270000Y-41325000D03*
X47540000Y-41325000D03*
X48810000Y-41325000D03*
X48810000Y-46275000D03*
X47540000Y-46275000D03*
X46270000Y-46275000D03*
X45000000Y-46275000D03*
X43730000Y-46275000D03*
X42460000Y-46275000D03*
X41190000Y-46275000D03*
%TD*%
D28*
%TO.C,D18*%
X195000000Y-134725000D03*
X196500000Y-134725000D03*
X196500000Y-129275000D03*
X195000000Y-129275000D03*
%TD*%
D25*
%TO.C,C22*%
X79128600Y-205053600D03*
X77578600Y-205053600D03*
%TD*%
D24*
%TO.C,D2*%
X68725000Y-44550000D03*
X68725000Y-43050000D03*
X63275000Y-43050000D03*
X63275000Y-44550000D03*
%TD*%
%TO.C,D4*%
X37725000Y-61550000D03*
X37725000Y-60050000D03*
X32275000Y-60050000D03*
X32275000Y-61550000D03*
%TD*%
D25*
%TO.C,C46*%
X232585900Y-56392700D03*
X231035900Y-56392700D03*
%TD*%
D29*
%TO.C,R19*%
X41000000Y-50975000D03*
X41000000Y-52625000D03*
%TD*%
D24*
%TO.C,D7*%
X128725000Y-52550000D03*
X128725000Y-51050000D03*
X123275000Y-51050000D03*
X123275000Y-52550000D03*
%TD*%
D30*
%TO.C,U8*%
X152834300Y-110719600D03*
X152834300Y-111989600D03*
X152834300Y-113259600D03*
X152834300Y-114529600D03*
X152834300Y-115799600D03*
X152834300Y-117069600D03*
X152834300Y-118339600D03*
X152834300Y-119609600D03*
X147884300Y-119609600D03*
X147884300Y-118339600D03*
X147884300Y-117069600D03*
X147884300Y-115799600D03*
X147884300Y-114529600D03*
X147884300Y-113259600D03*
X147884300Y-111989600D03*
X147884300Y-110719600D03*
%TD*%
D25*
%TO.C,C23*%
X109128600Y-205053600D03*
X107578600Y-205053600D03*
%TD*%
D30*
%TO.C,U3*%
X198912500Y-52492500D03*
X198912500Y-53762500D03*
X198912500Y-55032500D03*
X198912500Y-56302500D03*
X198912500Y-57572500D03*
X198912500Y-58842500D03*
X198912500Y-60112500D03*
X198912500Y-61382500D03*
X193962500Y-61382500D03*
X193962500Y-60112500D03*
X193962500Y-58842500D03*
X193962500Y-57572500D03*
X193962500Y-56302500D03*
X193962500Y-55032500D03*
X193962500Y-53762500D03*
X193962500Y-52492500D03*
%TD*%
D28*
%TO.C,D17*%
X165000000Y-134725000D03*
X166500000Y-134725000D03*
X166500000Y-129275000D03*
X165000000Y-129275000D03*
%TD*%
D27*
%TO.C,U5*%
X224838700Y-78883200D03*
X226108700Y-78883200D03*
X227378700Y-78883200D03*
X228648700Y-78883200D03*
X229918700Y-78883200D03*
X231188700Y-78883200D03*
X232458700Y-78883200D03*
X233728700Y-78883200D03*
X233728700Y-83833200D03*
X232458700Y-83833200D03*
X231188700Y-83833200D03*
X229918700Y-83833200D03*
X228648700Y-83833200D03*
X227378700Y-83833200D03*
X226108700Y-83833200D03*
X224838700Y-83833200D03*
%TD*%
D31*
%TO.C,R5*%
X164825000Y-222000000D03*
X163175000Y-222000000D03*
%TD*%
D21*
%TO.C,RN8*%
X238710900Y-70192700D03*
D22*
X238710900Y-70992700D03*
X238710900Y-71792700D03*
D21*
X238710900Y-72592700D03*
X236910900Y-72592700D03*
D22*
X236910900Y-71792700D03*
X236910900Y-70992700D03*
D21*
X236910900Y-70192700D03*
%TD*%
D25*
%TO.C,C9*%
X152775000Y-55500000D03*
X151225000Y-55500000D03*
%TD*%
D31*
%TO.C,R7*%
X224825000Y-222000000D03*
X223175000Y-222000000D03*
%TD*%
D30*
%TO.C,U2*%
X118825500Y-52030800D03*
X118825500Y-53300800D03*
X118825500Y-54570800D03*
X118825500Y-55840800D03*
X118825500Y-57110800D03*
X118825500Y-58380800D03*
X118825500Y-59650800D03*
X118825500Y-60920800D03*
X113875500Y-60920800D03*
X113875500Y-59650800D03*
X113875500Y-58380800D03*
X113875500Y-57110800D03*
X113875500Y-55840800D03*
X113875500Y-54570800D03*
X113875500Y-53300800D03*
X113875500Y-52030800D03*
%TD*%
D25*
%TO.C,C38*%
X310025000Y-137700000D03*
X308475000Y-137700000D03*
%TD*%
D21*
%TO.C,RN9*%
X222183700Y-80158200D03*
D22*
X222183700Y-80958200D03*
X222183700Y-81758200D03*
D21*
X222183700Y-82558200D03*
X220383700Y-82558200D03*
D22*
X220383700Y-81758200D03*
X220383700Y-80958200D03*
D21*
X220383700Y-80158200D03*
%TD*%
D25*
%TO.C,C61*%
X64775000Y-109000000D03*
X63225000Y-109000000D03*
%TD*%
D30*
%TO.C,U4*%
X234285900Y-58947700D03*
X234285900Y-60217700D03*
X234285900Y-61487700D03*
X234285900Y-62757700D03*
X234285900Y-64027700D03*
X234285900Y-65297700D03*
X234285900Y-66567700D03*
X234285900Y-67837700D03*
X229335900Y-67837700D03*
X229335900Y-66567700D03*
X229335900Y-65297700D03*
X229335900Y-64027700D03*
X229335900Y-62757700D03*
X229335900Y-61487700D03*
X229335900Y-60217700D03*
X229335900Y-58947700D03*
%TD*%
D28*
%TO.C,D39*%
X285500000Y-146225000D03*
X287000000Y-146225000D03*
X287000000Y-140775000D03*
X285500000Y-140775000D03*
%TD*%
D24*
%TO.C,D36*%
X260725000Y-234250000D03*
X260725000Y-232750000D03*
X255275000Y-232750000D03*
X255275000Y-234250000D03*
%TD*%
D31*
%TO.C,R12*%
X134825000Y-254000000D03*
X133175000Y-254000000D03*
%TD*%
%TO.C,R2*%
X74825000Y-222000000D03*
X73175000Y-222000000D03*
%TD*%
D21*
%TO.C,RN18*%
X210900000Y-109300000D03*
D22*
X210900000Y-110100000D03*
X210900000Y-110900000D03*
D21*
X210900000Y-111700000D03*
X209100000Y-111700000D03*
D22*
X209100000Y-110900000D03*
X209100000Y-110100000D03*
D21*
X209100000Y-109300000D03*
%TD*%
D31*
%TO.C,R10*%
X74825000Y-254000000D03*
X73175000Y-254000000D03*
%TD*%
%TO.C,R11*%
X104825000Y-254000000D03*
X103175000Y-254000000D03*
%TD*%
D25*
%TO.C,C62*%
X79275000Y-109000000D03*
X77725000Y-109000000D03*
%TD*%
D31*
%TO.C,R3*%
X104825000Y-222000000D03*
X103175000Y-222000000D03*
%TD*%
%TO.C,R14*%
X194825000Y-254000000D03*
X193175000Y-254000000D03*
%TD*%
D25*
%TO.C,C2*%
X66775000Y-47500000D03*
X65225000Y-47500000D03*
%TD*%
D21*
%TO.C,RN10*%
X237683700Y-80158200D03*
D22*
X237683700Y-80958200D03*
X237683700Y-81758200D03*
D21*
X237683700Y-82558200D03*
X235883700Y-82558200D03*
D22*
X235883700Y-81758200D03*
X235883700Y-80958200D03*
D21*
X235883700Y-80158200D03*
%TD*%
D27*
%TO.C,U10*%
X255305000Y-108837500D03*
X256575000Y-108837500D03*
X257845000Y-108837500D03*
X259115000Y-108837500D03*
X260385000Y-108837500D03*
X261655000Y-108837500D03*
X262925000Y-108837500D03*
X264195000Y-108837500D03*
X264195000Y-113787500D03*
X262925000Y-113787500D03*
X261655000Y-113787500D03*
X260385000Y-113787500D03*
X259115000Y-113787500D03*
X257845000Y-113787500D03*
X256575000Y-113787500D03*
X255305000Y-113787500D03*
%TD*%
D26*
%TO.C,C64*%
X106000000Y-112555100D03*
X106000000Y-114105100D03*
%TD*%
D28*
%TO.C,D40*%
X308500000Y-146225000D03*
X310000000Y-146225000D03*
X310000000Y-140775000D03*
X308500000Y-140775000D03*
%TD*%
D25*
%TO.C,C1*%
X35775000Y-47500000D03*
X34225000Y-47500000D03*
%TD*%
%TO.C,C66*%
X139275000Y-109000000D03*
X137725000Y-109000000D03*
%TD*%
D26*
%TO.C,C75*%
X155182300Y-219578600D03*
X155182300Y-221128600D03*
%TD*%
D21*
%TO.C,RN7*%
X226710900Y-62192700D03*
D22*
X226710900Y-62992700D03*
X226710900Y-63792700D03*
D21*
X226710900Y-64592700D03*
X224910900Y-64592700D03*
D22*
X224910900Y-63792700D03*
X224910900Y-62992700D03*
D21*
X224910900Y-62192700D03*
%TD*%
D25*
%TO.C,C36*%
X259128600Y-237053600D03*
X257578600Y-237053600D03*
%TD*%
%TO.C,C13*%
X46525000Y-137200000D03*
X44975000Y-137200000D03*
%TD*%
D31*
%TO.C,R18*%
X300825000Y-191000000D03*
X299175000Y-191000000D03*
%TD*%
D26*
%TO.C,C47*%
X230283700Y-73583200D03*
X230283700Y-75133200D03*
%TD*%
D28*
%TO.C,D16*%
X135000000Y-134725000D03*
X136500000Y-134725000D03*
X136500000Y-129275000D03*
X135000000Y-129275000D03*
%TD*%
D30*
%TO.C,U11*%
X295475000Y-143805000D03*
X295475000Y-145075000D03*
X295475000Y-146345000D03*
X295475000Y-147615000D03*
X295475000Y-148885000D03*
X295475000Y-150155000D03*
X295475000Y-151425000D03*
X295475000Y-152695000D03*
X290525000Y-152695000D03*
X290525000Y-151425000D03*
X290525000Y-150155000D03*
X290525000Y-148885000D03*
X290525000Y-147615000D03*
X290525000Y-146345000D03*
X290525000Y-145075000D03*
X290525000Y-143805000D03*
%TD*%
D25*
%TO.C,C7*%
X126775000Y-55500000D03*
X125225000Y-55500000D03*
%TD*%
D31*
%TO.C,R1*%
X44825000Y-222000000D03*
X43175000Y-222000000D03*
%TD*%
D24*
%TO.C,D27*%
X230725000Y-202250000D03*
X230725000Y-200750000D03*
X225275000Y-200750000D03*
X225275000Y-202250000D03*
%TD*%
D21*
%TO.C,RN20*%
X268150000Y-110112500D03*
D22*
X268150000Y-110912500D03*
X268150000Y-111712500D03*
D21*
X268150000Y-112512500D03*
X266350000Y-112512500D03*
D22*
X266350000Y-111712500D03*
X266350000Y-110912500D03*
D21*
X266350000Y-110112500D03*
%TD*%
D31*
%TO.C,R8*%
X254825000Y-222000000D03*
X253175000Y-222000000D03*
%TD*%
D24*
%TO.C,D3*%
X84225000Y-44550000D03*
X84225000Y-43050000D03*
X78775000Y-43050000D03*
X78775000Y-44550000D03*
%TD*%
%TO.C,D12*%
X154725000Y-66550000D03*
X154725000Y-65050000D03*
X149275000Y-65050000D03*
X149275000Y-66550000D03*
%TD*%
D28*
%TO.C,D38*%
X308500000Y-135225000D03*
X310000000Y-135225000D03*
X310000000Y-129775000D03*
X308500000Y-129775000D03*
%TD*%
D24*
%TO.C,D1*%
X37725000Y-44550000D03*
X37725000Y-43050000D03*
X32275000Y-43050000D03*
X32275000Y-44550000D03*
%TD*%
D31*
%TO.C,R4*%
X134825000Y-222000000D03*
X133175000Y-222000000D03*
%TD*%
D25*
%TO.C,C29*%
X49128600Y-237053600D03*
X47578600Y-237053600D03*
%TD*%
D24*
%TO.C,D24*%
X140725000Y-202250000D03*
X140725000Y-200750000D03*
X135275000Y-200750000D03*
X135275000Y-202250000D03*
%TD*%
D28*
%TO.C,D37*%
X285500000Y-135225000D03*
X287000000Y-135225000D03*
X287000000Y-129775000D03*
X285500000Y-129775000D03*
%TD*%
D25*
%TO.C,C45*%
X197212500Y-49937500D03*
X195662500Y-49937500D03*
%TD*%
D21*
%TO.C,RN5*%
X190814900Y-50764900D03*
D22*
X190814900Y-51564900D03*
X190814900Y-52364900D03*
D21*
X190814900Y-53164900D03*
X189014900Y-53164900D03*
D22*
X189014900Y-52364900D03*
X189014900Y-51564900D03*
D21*
X189014900Y-50764900D03*
%TD*%
D25*
%TO.C,C12*%
X152775000Y-69500000D03*
X151225000Y-69500000D03*
%TD*%
D32*
%TO.C,RN4*%
X117531400Y-63266800D03*
D33*
X118331400Y-63266800D03*
X119131400Y-63266800D03*
D32*
X119931400Y-63266800D03*
X119931400Y-65066800D03*
D33*
X119131400Y-65066800D03*
X118331400Y-65066800D03*
D32*
X117531400Y-65066800D03*
%TD*%
D25*
%TO.C,C15*%
X106525000Y-137200000D03*
X104975000Y-137200000D03*
%TD*%
%TO.C,C57*%
X172275000Y-64000000D03*
X170725000Y-64000000D03*
%TD*%
%TO.C,C18*%
X196525000Y-137200000D03*
X194975000Y-137200000D03*
%TD*%
D21*
%TO.C,RN17*%
X198900000Y-109300000D03*
D22*
X198900000Y-110100000D03*
X198900000Y-110900000D03*
D21*
X198900000Y-111700000D03*
X197100000Y-111700000D03*
D22*
X197100000Y-110900000D03*
X197100000Y-110100000D03*
D21*
X197100000Y-109300000D03*
%TD*%
D25*
%TO.C,C40*%
X310025000Y-148700000D03*
X308475000Y-148700000D03*
%TD*%
%TO.C,C48*%
X58525000Y-107125000D03*
X56975000Y-107125000D03*
%TD*%
%TO.C,C3*%
X82275000Y-47500000D03*
X80725000Y-47500000D03*
%TD*%
%TO.C,C34*%
X199128600Y-237053600D03*
X197578600Y-237053600D03*
%TD*%
D24*
%TO.C,D31*%
X110725000Y-234250000D03*
X110725000Y-232750000D03*
X105275000Y-232750000D03*
X105275000Y-234250000D03*
%TD*%
D25*
%TO.C,C21*%
X49128600Y-205053600D03*
X47578600Y-205053600D03*
%TD*%
%TO.C,C11*%
X139775000Y-69500000D03*
X138225000Y-69500000D03*
%TD*%
%TO.C,C10*%
X126775000Y-69500000D03*
X125225000Y-69500000D03*
%TD*%
D24*
%TO.C,D34*%
X200725000Y-234250000D03*
X200725000Y-232750000D03*
X195275000Y-232750000D03*
X195275000Y-234250000D03*
%TD*%
D34*
%TO.C,U15*%
X243807200Y-174120400D03*
D35*
X246837200Y-174420400D03*
X246837200Y-179270400D03*
D34*
X243807200Y-179570400D03*
D36*
X243677200Y-167155400D03*
D37*
X246217200Y-167155400D03*
D38*
X248757200Y-167155400D03*
D37*
X251297200Y-167155400D03*
X253837200Y-167155400D03*
X256377200Y-167155400D03*
X258917200Y-167155400D03*
D38*
X261457200Y-167155400D03*
D37*
X263997200Y-167155400D03*
X266537200Y-167155400D03*
X269077200Y-167155400D03*
X271617200Y-167155400D03*
D38*
X274157200Y-167155400D03*
D37*
X276697200Y-167155400D03*
X279237200Y-167155400D03*
X281777200Y-167155400D03*
X284317200Y-167155400D03*
D38*
X286857200Y-167155400D03*
D37*
X289397200Y-167155400D03*
X291937200Y-167155400D03*
X291937200Y-186535400D03*
X289397200Y-186535400D03*
D36*
X286857200Y-186535400D03*
D37*
X284317200Y-186535400D03*
X281777200Y-186535400D03*
X279237200Y-186535400D03*
X276697200Y-186535400D03*
D36*
X274157200Y-186535400D03*
D37*
X271617200Y-186535400D03*
X269077200Y-186535400D03*
X266537200Y-186535400D03*
X263997200Y-186535400D03*
D36*
X261457200Y-186535400D03*
D37*
X258917200Y-186535400D03*
X256377200Y-186535400D03*
X253837200Y-186535400D03*
X251297200Y-186535400D03*
D36*
X248757200Y-186535400D03*
D37*
X246217200Y-186535400D03*
X243677200Y-186535400D03*
D39*
X292507200Y-174305400D03*
D40*
X291707200Y-176845400D03*
D39*
X292507200Y-179385400D03*
D41*
X246807200Y-176845400D03*
X243507200Y-177845400D03*
X243507200Y-175845400D03*
X250307200Y-174345400D03*
X252807200Y-174345400D03*
X255307200Y-174345400D03*
%TD*%
D26*
%TO.C,C71*%
X213000000Y-108225000D03*
X213000000Y-109775000D03*
%TD*%
D25*
%TO.C,C72*%
X229275000Y-109000000D03*
X227725000Y-109000000D03*
%TD*%
D21*
%TO.C,RN16*%
X157259300Y-111464600D03*
D22*
X157259300Y-112264600D03*
X157259300Y-113064600D03*
D21*
X157259300Y-113864600D03*
X155459300Y-113864600D03*
D22*
X155459300Y-113064600D03*
X155459300Y-112264600D03*
D21*
X155459300Y-111464600D03*
%TD*%
D31*
%TO.C,R17*%
X300825000Y-188000000D03*
X299175000Y-188000000D03*
%TD*%
D24*
%TO.C,D21*%
X50725000Y-202250000D03*
X50725000Y-200750000D03*
X45275000Y-200750000D03*
X45275000Y-202250000D03*
%TD*%
D25*
%TO.C,C17*%
X166525000Y-137200000D03*
X164975000Y-137200000D03*
%TD*%
D21*
%TO.C,RN22*%
X300960700Y-148110700D03*
D22*
X300960700Y-148910700D03*
X300960700Y-149710700D03*
D21*
X300960700Y-150510700D03*
X299160700Y-150510700D03*
D22*
X299160700Y-149710700D03*
X299160700Y-148910700D03*
D21*
X299160700Y-148110700D03*
%TD*%
%TO.C,RN21*%
X287900000Y-151050000D03*
D22*
X287900000Y-151850000D03*
X287900000Y-152650000D03*
D21*
X287900000Y-153450000D03*
X286100000Y-153450000D03*
D22*
X286100000Y-152650000D03*
X286100000Y-151850000D03*
D21*
X286100000Y-151050000D03*
%TD*%
D31*
%TO.C,R13*%
X164825000Y-254000000D03*
X163175000Y-254000000D03*
%TD*%
D21*
%TO.C,RN3*%
X111250500Y-55275800D03*
D22*
X111250500Y-56075800D03*
X111250500Y-56875800D03*
D21*
X111250500Y-57675800D03*
X109450500Y-57675800D03*
D22*
X109450500Y-56875800D03*
X109450500Y-56075800D03*
D21*
X109450500Y-55275800D03*
%TD*%
D25*
%TO.C,C73*%
X240275000Y-109000000D03*
X238725000Y-109000000D03*
%TD*%
D28*
%TO.C,D13*%
X45000000Y-134725000D03*
X46500000Y-134725000D03*
X46500000Y-129275000D03*
X45000000Y-129275000D03*
%TD*%
D24*
%TO.C,D25*%
X170725000Y-202250000D03*
X170725000Y-200750000D03*
X165275000Y-200750000D03*
X165275000Y-202250000D03*
%TD*%
D25*
%TO.C,C58*%
X191275000Y-64000000D03*
X189725000Y-64000000D03*
%TD*%
D24*
%TO.C,D22*%
X80725000Y-202250000D03*
X80725000Y-200750000D03*
X75275000Y-200750000D03*
X75275000Y-202250000D03*
%TD*%
D30*
%TO.C,U12*%
X302225000Y-214055000D03*
X302225000Y-215325000D03*
X302225000Y-216595000D03*
X302225000Y-217865000D03*
X302225000Y-219135000D03*
X302225000Y-220405000D03*
X302225000Y-221675000D03*
X302225000Y-222945000D03*
X297275000Y-222945000D03*
X297275000Y-221675000D03*
X297275000Y-220405000D03*
X297275000Y-219135000D03*
X297275000Y-217865000D03*
X297275000Y-216595000D03*
X297275000Y-215325000D03*
X297275000Y-214055000D03*
%TD*%
D31*
%TO.C,R16*%
X254825000Y-254000000D03*
X253175000Y-254000000D03*
%TD*%
D21*
%TO.C,RN6*%
X203337500Y-55737500D03*
D22*
X203337500Y-56537500D03*
X203337500Y-57337500D03*
D21*
X203337500Y-58137500D03*
X201537500Y-58137500D03*
D22*
X201537500Y-57337500D03*
X201537500Y-56537500D03*
D21*
X201537500Y-55737500D03*
%TD*%
D30*
%TO.C,U7*%
X114225000Y-104117500D03*
X114225000Y-105387500D03*
X114225000Y-106657500D03*
X114225000Y-107927500D03*
X114225000Y-109197500D03*
X114225000Y-110467500D03*
X114225000Y-111737500D03*
X114225000Y-113007500D03*
X109275000Y-113007500D03*
X109275000Y-111737500D03*
X109275000Y-110467500D03*
X109275000Y-109197500D03*
X109275000Y-107927500D03*
X109275000Y-106657500D03*
X109275000Y-105387500D03*
X109275000Y-104117500D03*
%TD*%
D25*
%TO.C,C30*%
X79128600Y-237053600D03*
X77578600Y-237053600D03*
%TD*%
D26*
%TO.C,C78*%
X45000000Y-58025000D03*
X45000000Y-59575000D03*
%TD*%
D25*
%TO.C,C51*%
X204775000Y-103500000D03*
X203225000Y-103500000D03*
%TD*%
D31*
%TO.C,R15*%
X224825000Y-254000000D03*
X223175000Y-254000000D03*
%TD*%
D24*
%TO.C,D26*%
X200725000Y-202250000D03*
X200725000Y-200750000D03*
X195275000Y-200750000D03*
X195275000Y-202250000D03*
%TD*%
D42*
%TO.C,C79*%
X55000000Y-39050000D03*
X55000000Y-45550000D03*
%TD*%
D28*
%TO.C,D42*%
X308500000Y-239725000D03*
X310000000Y-239725000D03*
X310000000Y-234275000D03*
X308500000Y-234275000D03*
%TD*%
D26*
%TO.C,C43*%
X60176300Y-69220600D03*
X60176300Y-70770600D03*
%TD*%
D21*
%TO.C,RN15*%
X145259300Y-113964600D03*
D22*
X145259300Y-114764600D03*
X145259300Y-115564600D03*
D21*
X145259300Y-116364600D03*
X143459300Y-116364600D03*
D22*
X143459300Y-115564600D03*
X143459300Y-114764600D03*
D21*
X143459300Y-113964600D03*
%TD*%
D25*
%TO.C,C8*%
X139775000Y-55500000D03*
X138225000Y-55500000D03*
%TD*%
%TO.C,C26*%
X199128600Y-205053600D03*
X197578600Y-205053600D03*
%TD*%
D24*
%TO.C,D29*%
X50725000Y-234250000D03*
X50725000Y-232750000D03*
X45275000Y-232750000D03*
X45275000Y-234250000D03*
%TD*%
D26*
%TO.C,C65*%
X121000000Y-108225000D03*
X121000000Y-109775000D03*
%TD*%
D25*
%TO.C,C63*%
X90275000Y-109000000D03*
X88725000Y-109000000D03*
%TD*%
%TO.C,C37*%
X287025000Y-137700000D03*
X285475000Y-137700000D03*
%TD*%
%TO.C,C32*%
X139128600Y-237053600D03*
X137578600Y-237053600D03*
%TD*%
D24*
%TO.C,D10*%
X128725000Y-66550000D03*
X128725000Y-65050000D03*
X123275000Y-65050000D03*
X123275000Y-66550000D03*
%TD*%
D25*
%TO.C,C4*%
X35775000Y-64500000D03*
X34225000Y-64500000D03*
%TD*%
%TO.C,C33*%
X169128600Y-237053600D03*
X167578600Y-237053600D03*
%TD*%
%TO.C,C56*%
X117275000Y-72000000D03*
X115725000Y-72000000D03*
%TD*%
D28*
%TO.C,D20*%
X255000000Y-134725000D03*
X256500000Y-134725000D03*
X256500000Y-129275000D03*
X255000000Y-129275000D03*
%TD*%
D25*
%TO.C,C6*%
X66775000Y-64500000D03*
X65225000Y-64500000D03*
%TD*%
D24*
%TO.C,D35*%
X230725000Y-234250000D03*
X230725000Y-232750000D03*
X225275000Y-232750000D03*
X225275000Y-234250000D03*
%TD*%
D25*
%TO.C,C52*%
X260525000Y-104312500D03*
X258975000Y-104312500D03*
%TD*%
%TO.C,C16*%
X136525000Y-137200000D03*
X134975000Y-137200000D03*
%TD*%
%TO.C,C5*%
X51275000Y-64500000D03*
X49725000Y-64500000D03*
%TD*%
%TO.C,C14*%
X76525000Y-137200000D03*
X74975000Y-137200000D03*
%TD*%
%TO.C,C27*%
X229128600Y-205053600D03*
X227578600Y-205053600D03*
%TD*%
D21*
%TO.C,RN12*%
X64650000Y-111425000D03*
D22*
X64650000Y-112225000D03*
X64650000Y-113025000D03*
D21*
X64650000Y-113825000D03*
X62850000Y-113825000D03*
D22*
X62850000Y-113025000D03*
X62850000Y-112225000D03*
D21*
X62850000Y-111425000D03*
%TD*%
D25*
%TO.C,C25*%
X169128600Y-205053600D03*
X167578600Y-205053600D03*
%TD*%
D24*
%TO.C,D28*%
X260725000Y-202250000D03*
X260725000Y-200750000D03*
X255275000Y-200750000D03*
X255275000Y-202250000D03*
%TD*%
D43*
%TO.C,U13*%
X148550900Y-225350000D03*
X149820900Y-225350000D03*
X151090900Y-225350000D03*
X152360900Y-225350000D03*
X153630900Y-225350000D03*
X154900900Y-225350000D03*
X156170900Y-225350000D03*
X157440900Y-225350000D03*
X158710900Y-225350000D03*
X159980900Y-225350000D03*
X161250900Y-225350000D03*
X162520900Y-225350000D03*
X162520900Y-234650000D03*
X161250900Y-234650000D03*
X159980900Y-234650000D03*
X158710900Y-234650000D03*
X157440900Y-234650000D03*
X156170900Y-234650000D03*
X154900900Y-234650000D03*
X153630900Y-234650000D03*
X152360900Y-234650000D03*
X151090900Y-234650000D03*
X149820900Y-234650000D03*
X148550900Y-234650000D03*
%TD*%
D24*
%TO.C,D33*%
X170725000Y-234250000D03*
X170725000Y-232750000D03*
X165275000Y-232750000D03*
X165275000Y-234250000D03*
%TD*%
%TO.C,D5*%
X53225000Y-61550000D03*
X53225000Y-60050000D03*
X47775000Y-60050000D03*
X47775000Y-61550000D03*
%TD*%
D21*
%TO.C,RN14*%
X118650000Y-107362500D03*
D22*
X118650000Y-108162500D03*
X118650000Y-108962500D03*
D21*
X118650000Y-109762500D03*
X116850000Y-109762500D03*
D22*
X116850000Y-108962500D03*
X116850000Y-108162500D03*
D21*
X116850000Y-107362500D03*
%TD*%
D25*
%TO.C,C76*%
X159775000Y-155000000D03*
X158225000Y-155000000D03*
%TD*%
%TO.C,C20*%
X256525000Y-137200000D03*
X254975000Y-137200000D03*
%TD*%
%TO.C,C54*%
X300525000Y-211500000D03*
X298975000Y-211500000D03*
%TD*%
%TO.C,C44*%
X117125500Y-49475800D03*
X115575500Y-49475800D03*
%TD*%
%TO.C,C50*%
X151134300Y-108164600D03*
X149584300Y-108164600D03*
%TD*%
D30*
%TO.C,U9*%
X206475000Y-106055000D03*
X206475000Y-107325000D03*
X206475000Y-108595000D03*
X206475000Y-109865000D03*
X206475000Y-111135000D03*
X206475000Y-112405000D03*
X206475000Y-113675000D03*
X206475000Y-114945000D03*
X201525000Y-114945000D03*
X201525000Y-113675000D03*
X201525000Y-112405000D03*
X201525000Y-111135000D03*
X201525000Y-109865000D03*
X201525000Y-108595000D03*
X201525000Y-107325000D03*
X201525000Y-106055000D03*
%TD*%
D21*
%TO.C,RN13*%
X106650000Y-107862500D03*
D22*
X106650000Y-108662500D03*
X106650000Y-109462500D03*
D21*
X106650000Y-110262500D03*
X104850000Y-110262500D03*
D22*
X104850000Y-109462500D03*
X104850000Y-108662500D03*
D21*
X104850000Y-107862500D03*
%TD*%
D25*
%TO.C,C60*%
X49275000Y-109000000D03*
X47725000Y-109000000D03*
%TD*%
D24*
%TO.C,D23*%
X110725000Y-202250000D03*
X110725000Y-200750000D03*
X105275000Y-200750000D03*
X105275000Y-202250000D03*
%TD*%
D21*
%TO.C,RN19*%
X251830900Y-111138600D03*
D22*
X251830900Y-111938600D03*
X251830900Y-112738600D03*
D21*
X251830900Y-113538600D03*
X250030900Y-113538600D03*
D22*
X250030900Y-112738600D03*
X250030900Y-111938600D03*
D21*
X250030900Y-111138600D03*
%TD*%
D25*
%TO.C,C59*%
X30275000Y-109000000D03*
X28725000Y-109000000D03*
%TD*%
D30*
%TO.C,U6*%
X60225000Y-109680000D03*
X60225000Y-110950000D03*
X60225000Y-112220000D03*
X60225000Y-113490000D03*
X60225000Y-114760000D03*
X60225000Y-116030000D03*
X60225000Y-117300000D03*
X60225000Y-118570000D03*
X55275000Y-118570000D03*
X55275000Y-117300000D03*
X55275000Y-116030000D03*
X55275000Y-114760000D03*
X55275000Y-113490000D03*
X55275000Y-112220000D03*
X55275000Y-110950000D03*
X55275000Y-109680000D03*
%TD*%
D24*
%TO.C,D9*%
X154725000Y-52550000D03*
X154725000Y-51050000D03*
X149275000Y-51050000D03*
X149275000Y-52550000D03*
%TD*%
D26*
%TO.C,C74*%
X252861800Y-106172900D03*
X252861800Y-107722900D03*
%TD*%
D25*
%TO.C,C39*%
X287025000Y-148700000D03*
X285475000Y-148700000D03*
%TD*%
D28*
%TO.C,D15*%
X105000000Y-134725000D03*
X106500000Y-134725000D03*
X106500000Y-129275000D03*
X105000000Y-129275000D03*
%TD*%
D25*
%TO.C,C68*%
X169275000Y-109000000D03*
X167725000Y-109000000D03*
%TD*%
%TO.C,C49*%
X112525000Y-101562500D03*
X110975000Y-101562500D03*
%TD*%
D24*
%TO.C,D30*%
X80725000Y-234250000D03*
X80725000Y-232750000D03*
X75275000Y-232750000D03*
X75275000Y-234250000D03*
%TD*%
D31*
%TO.C,R9*%
X44825000Y-254000000D03*
X43175000Y-254000000D03*
%TD*%
D28*
%TO.C,D14*%
X75000000Y-134725000D03*
X76500000Y-134725000D03*
X76500000Y-129275000D03*
X75000000Y-129275000D03*
%TD*%
D21*
%TO.C,RN23*%
X294650000Y-222800000D03*
D22*
X294650000Y-223600000D03*
X294650000Y-224400000D03*
D21*
X294650000Y-225200000D03*
X292850000Y-225200000D03*
D22*
X292850000Y-224400000D03*
X292850000Y-223600000D03*
D21*
X292850000Y-222800000D03*
%TD*%
D25*
%TO.C,C55*%
X98275000Y-72000000D03*
X96725000Y-72000000D03*
%TD*%
D28*
%TO.C,D41*%
X285500000Y-239725000D03*
X287000000Y-239725000D03*
X287000000Y-234275000D03*
X285500000Y-234275000D03*
%TD*%
D25*
%TO.C,C53*%
X293775000Y-141250000D03*
X292225000Y-141250000D03*
%TD*%
D24*
%TO.C,D32*%
X140725000Y-234250000D03*
X140725000Y-232750000D03*
X135275000Y-232750000D03*
X135275000Y-234250000D03*
%TD*%
D25*
%TO.C,C28*%
X259128600Y-205053600D03*
X257578600Y-205053600D03*
%TD*%
D31*
%TO.C,R6*%
X194825000Y-222000000D03*
X193175000Y-222000000D03*
%TD*%
D44*
%TO.C,U14*%
X163650000Y-158015000D03*
X163650000Y-159285000D03*
X163650000Y-160555000D03*
X163650000Y-161825000D03*
X163650000Y-163095000D03*
X163650000Y-164365000D03*
X163650000Y-165635000D03*
X163650000Y-166905000D03*
X163650000Y-168175000D03*
X163650000Y-169445000D03*
X163650000Y-170715000D03*
X163650000Y-171985000D03*
X154350000Y-171985000D03*
X154350000Y-170715000D03*
X154350000Y-169445000D03*
X154350000Y-168175000D03*
X154350000Y-166905000D03*
X154350000Y-165635000D03*
X154350000Y-164365000D03*
X154350000Y-163095000D03*
X154350000Y-161825000D03*
X154350000Y-160555000D03*
X154350000Y-159285000D03*
X154350000Y-158015000D03*
%TD*%
D27*
%TO.C,U1*%
X56438400Y-73813500D03*
X57708400Y-73813500D03*
X58978400Y-73813500D03*
X60248400Y-73813500D03*
X61518400Y-73813500D03*
X62788400Y-73813500D03*
X64058400Y-73813500D03*
X65328400Y-73813500D03*
X65328400Y-78763500D03*
X64058400Y-78763500D03*
X62788400Y-78763500D03*
X61518400Y-78763500D03*
X60248400Y-78763500D03*
X58978400Y-78763500D03*
X57708400Y-78763500D03*
X56438400Y-78763500D03*
%TD*%
D28*
%TO.C,D19*%
X225000000Y-134725000D03*
X226500000Y-134725000D03*
X226500000Y-129275000D03*
X225000000Y-129275000D03*
%TD*%
D25*
%TO.C,C31*%
X109128600Y-237053600D03*
X107578600Y-237053600D03*
%TD*%
D21*
%TO.C,RN11*%
X52650000Y-112925000D03*
D22*
X52650000Y-113725000D03*
X52650000Y-114525000D03*
D21*
X52650000Y-115325000D03*
X50850000Y-115325000D03*
D22*
X50850000Y-114525000D03*
X50850000Y-113725000D03*
D21*
X50850000Y-112925000D03*
%TD*%
D25*
%TO.C,C41*%
X287025000Y-242200000D03*
X285475000Y-242200000D03*
%TD*%
%TO.C,C19*%
X226525000Y-137200000D03*
X224975000Y-137200000D03*
%TD*%
%LPD*%
M02*
