%TF.GenerationSoftware,KiCad,Pcbnew,10.0.6*%
%TF.CreationDate,2026-10-03T20:53:01-05:00*%
%TF.ProjectId,deck,6465636b-2e6b-4696-9361-645f70636258,rev?*%
%TF.SameCoordinates,Original*%
%TF.FileFunction,Soldermask,Top*%
%TF.FilePolarity,Negative*%
%FSLAX46Y46*%
G04 Gerber Fmt 4.6, Leading zero omitted, Abs format (unit mm)*
G04 Created by KiCad (PCBNEW 10.0.6) date 2026-10-03 20:53:01*
%MOMM*%
%LPD*%
G01*
G04 APERTURE LIST*
%ADD10C,2.000000*%
%ADD11C,3.200000*%
%ADD12R,1.700000X1.700000*%
%ADD13C,1.700000*%
%ADD14R,2.000000X2.000000*%
%ADD15R,3.200000X2.000000*%
%ADD16R,1.750000X1.750000*%
%ADD17C,1.750000*%
%ADD18C,2.700000*%
G04 APERTURE END LIST*
D10*
%TO.C,SW9*%
X122750000Y-56750000D03*
X129250000Y-56750000D03*
X122750000Y-61250000D03*
X129250000Y-61250000D03*
%TD*%
%TO.C,SW50*%
X299250000Y-97250000D03*
X305750000Y-97250000D03*
X299250000Y-101750000D03*
X305750000Y-101750000D03*
%TD*%
%TO.C,SW55*%
X299250000Y-141250000D03*
X305750000Y-141250000D03*
X299250000Y-145750000D03*
X305750000Y-145750000D03*
%TD*%
D11*
%TO.C,H2*%
X314000000Y-38000000D03*
%TD*%
D10*
%TO.C,SW19*%
X237250000Y-52250000D03*
X243750000Y-52250000D03*
X237250000Y-56750000D03*
X243750000Y-56750000D03*
%TD*%
D11*
%TO.C,H5*%
X264000000Y-120000000D03*
%TD*%
D10*
%TO.C,SW37*%
X95750000Y-116250000D03*
X102250000Y-116250000D03*
X95750000Y-120750000D03*
X102250000Y-120750000D03*
%TD*%
%TO.C,SW4*%
X78250000Y-49250000D03*
X84750000Y-49250000D03*
X78250000Y-53750000D03*
X84750000Y-53750000D03*
%TD*%
%TO.C,SW40*%
X125750000Y-129750000D03*
X132250000Y-129750000D03*
X125750000Y-134250000D03*
X132250000Y-134250000D03*
%TD*%
D12*
%TO.C,FSR3*%
X97730000Y-222000000D03*
D13*
X100270000Y-222000000D03*
%TD*%
D10*
%TO.C,SW39*%
X125750000Y-116250000D03*
X132250000Y-116250000D03*
X125750000Y-120750000D03*
X132250000Y-120750000D03*
%TD*%
D14*
%TO.C,ENC4*%
X61500000Y-100500000D03*
D10*
X61500000Y-105500000D03*
X61500000Y-103000000D03*
D15*
X69000000Y-97400000D03*
X69000000Y-108600000D03*
D10*
X76000000Y-105500000D03*
X76000000Y-100500000D03*
%TD*%
%TO.C,SW23*%
X241250000Y-71250000D03*
X247750000Y-71250000D03*
X241250000Y-75750000D03*
X247750000Y-75750000D03*
%TD*%
D12*
%TO.C,FSR10*%
X67730000Y-254000000D03*
D13*
X70270000Y-254000000D03*
%TD*%
D10*
%TO.C,SW28*%
X304500000Y-49250000D03*
X311000000Y-49250000D03*
X304500000Y-53750000D03*
X311000000Y-53750000D03*
%TD*%
%TO.C,SW53*%
X299250000Y-130250000D03*
X305750000Y-130250000D03*
X299250000Y-134750000D03*
X305750000Y-134750000D03*
%TD*%
D16*
%TO.C,RV1*%
X37250000Y-196250000D03*
D17*
X40750000Y-196250000D03*
X37250000Y-137750000D03*
D18*
X43200000Y-192100000D03*
X34800000Y-190900000D03*
X34800000Y-143100000D03*
X43200000Y-141900000D03*
%TD*%
D12*
%TO.C,FSR15*%
X217730000Y-254000000D03*
D13*
X220270000Y-254000000D03*
%TD*%
D10*
%TO.C,SW38*%
X95750000Y-129750000D03*
X102250000Y-129750000D03*
X95750000Y-134250000D03*
X102250000Y-134250000D03*
%TD*%
%TO.C,SW30*%
X277500000Y-66250000D03*
X284000000Y-66250000D03*
X277500000Y-70750000D03*
X284000000Y-70750000D03*
%TD*%
D14*
%TO.C,ENC9*%
X211500000Y-100500000D03*
D10*
X211500000Y-105500000D03*
X211500000Y-103000000D03*
D15*
X219000000Y-97400000D03*
X219000000Y-108600000D03*
D10*
X226000000Y-105500000D03*
X226000000Y-100500000D03*
%TD*%
%TO.C,SW12*%
X122750000Y-70750000D03*
X129250000Y-70750000D03*
X122750000Y-75250000D03*
X129250000Y-75250000D03*
%TD*%
D14*
%TO.C,ENC10*%
X241500000Y-100500000D03*
D10*
X241500000Y-105500000D03*
X241500000Y-103000000D03*
D15*
X249000000Y-97400000D03*
X249000000Y-108600000D03*
D10*
X256000000Y-105500000D03*
X256000000Y-100500000D03*
%TD*%
%TO.C,SW22*%
X227750000Y-71250000D03*
X234250000Y-71250000D03*
X227750000Y-75750000D03*
X234250000Y-75750000D03*
%TD*%
D12*
%TO.C,FSR12*%
X127730000Y-254000000D03*
D13*
X130270000Y-254000000D03*
%TD*%
D12*
%TO.C,FSR5*%
X157730000Y-222000000D03*
D13*
X160270000Y-222000000D03*
%TD*%
D10*
%TO.C,SW24*%
X237250000Y-61750000D03*
X243750000Y-61750000D03*
X237250000Y-66250000D03*
X243750000Y-66250000D03*
%TD*%
D16*
%TO.C,RV8*%
X247250000Y-196250000D03*
D17*
X250750000Y-196250000D03*
X247250000Y-137750000D03*
D18*
X253200000Y-192100000D03*
X244800000Y-190900000D03*
X244800000Y-143100000D03*
X253200000Y-141900000D03*
%TD*%
D10*
%TO.C,SW5*%
X31750000Y-66250000D03*
X38250000Y-66250000D03*
X31750000Y-70750000D03*
X38250000Y-70750000D03*
%TD*%
D11*
%TO.C,H3*%
X26000000Y-264000000D03*
%TD*%
D12*
%TO.C,FSR8*%
X247730000Y-222000000D03*
D13*
X250270000Y-222000000D03*
%TD*%
D12*
%TO.C,FSR4*%
X127730000Y-222000000D03*
D13*
X130270000Y-222000000D03*
%TD*%
D10*
%TO.C,SW17*%
X208750000Y-61750000D03*
X215250000Y-61750000D03*
X208750000Y-66250000D03*
X215250000Y-66250000D03*
%TD*%
D16*
%TO.C,RV2*%
X67250000Y-196250000D03*
D17*
X70750000Y-196250000D03*
X67250000Y-137750000D03*
D18*
X73200000Y-192100000D03*
X64800000Y-190900000D03*
X64800000Y-143100000D03*
X73200000Y-141900000D03*
%TD*%
D10*
%TO.C,SW44*%
X185750000Y-129750000D03*
X192250000Y-129750000D03*
X185750000Y-134250000D03*
X192250000Y-134250000D03*
%TD*%
%TO.C,SW56*%
X276250000Y-156250000D03*
X282750000Y-156250000D03*
X276250000Y-160750000D03*
X282750000Y-160750000D03*
%TD*%
%TO.C,SW57*%
X299250000Y-156250000D03*
X305750000Y-156250000D03*
X299250000Y-160750000D03*
X305750000Y-160750000D03*
%TD*%
%TO.C,SW27*%
X291000000Y-49250000D03*
X297500000Y-49250000D03*
X291000000Y-53750000D03*
X297500000Y-53750000D03*
%TD*%
%TO.C,SW25*%
X264000000Y-49250000D03*
X270500000Y-49250000D03*
X264000000Y-53750000D03*
X270500000Y-53750000D03*
%TD*%
%TO.C,SW35*%
X65750000Y-116250000D03*
X72250000Y-116250000D03*
X65750000Y-120750000D03*
X72250000Y-120750000D03*
%TD*%
D16*
%TO.C,RV3*%
X97250000Y-196250000D03*
D17*
X100750000Y-196250000D03*
X97250000Y-137750000D03*
D18*
X103200000Y-192100000D03*
X94800000Y-190900000D03*
X94800000Y-143100000D03*
X103200000Y-141900000D03*
%TD*%
D12*
%TO.C,FSR2*%
X67730000Y-222000000D03*
D13*
X70270000Y-222000000D03*
%TD*%
D12*
%TO.C,FSR6*%
X187730000Y-222000000D03*
D13*
X190270000Y-222000000D03*
%TD*%
D10*
%TO.C,SW34*%
X35750000Y-129750000D03*
X42250000Y-129750000D03*
X35750000Y-134250000D03*
X42250000Y-134250000D03*
%TD*%
%TO.C,SW2*%
X47250000Y-49250000D03*
X53750000Y-49250000D03*
X47250000Y-53750000D03*
X53750000Y-53750000D03*
%TD*%
%TO.C,SW6*%
X47250000Y-66250000D03*
X53750000Y-66250000D03*
X47250000Y-70750000D03*
X53750000Y-70750000D03*
%TD*%
%TO.C,SW46*%
X215750000Y-129750000D03*
X222250000Y-129750000D03*
X215750000Y-134250000D03*
X222250000Y-134250000D03*
%TD*%
%TO.C,SW13*%
X135750000Y-70750000D03*
X142250000Y-70750000D03*
X135750000Y-75250000D03*
X142250000Y-75250000D03*
%TD*%
%TO.C,SW32*%
X304500000Y-66250000D03*
X311000000Y-66250000D03*
X304500000Y-70750000D03*
X311000000Y-70750000D03*
%TD*%
D12*
%TO.C,J1*%
X296190000Y-182000000D03*
D13*
X298730000Y-182000000D03*
X301270000Y-182000000D03*
X303810000Y-182000000D03*
%TD*%
D10*
%TO.C,SW36*%
X65750000Y-129750000D03*
X72250000Y-129750000D03*
X65750000Y-134250000D03*
X72250000Y-134250000D03*
%TD*%
D12*
%TO.C,FSR13*%
X157730000Y-254000000D03*
D13*
X160270000Y-254000000D03*
%TD*%
D12*
%TO.C,FSR9*%
X37730000Y-254000000D03*
D13*
X40270000Y-254000000D03*
%TD*%
D14*
%TO.C,ENC5*%
X91500000Y-100500000D03*
D10*
X91500000Y-105500000D03*
X91500000Y-103000000D03*
D15*
X99000000Y-97400000D03*
X99000000Y-108600000D03*
D10*
X106000000Y-105500000D03*
X106000000Y-100500000D03*
%TD*%
%TO.C,SW48*%
X245750000Y-129750000D03*
X252250000Y-129750000D03*
X245750000Y-134250000D03*
X252250000Y-134250000D03*
%TD*%
%TO.C,SW58*%
X287750000Y-202750000D03*
X294250000Y-202750000D03*
X287750000Y-207250000D03*
X294250000Y-207250000D03*
%TD*%
D14*
%TO.C,ENC7*%
X151500000Y-100500000D03*
D10*
X151500000Y-105500000D03*
X151500000Y-103000000D03*
D15*
X159000000Y-97400000D03*
X159000000Y-108600000D03*
D10*
X166000000Y-105500000D03*
X166000000Y-100500000D03*
%TD*%
%TO.C,SW52*%
X276250000Y-130250000D03*
X282750000Y-130250000D03*
X276250000Y-134750000D03*
X282750000Y-134750000D03*
%TD*%
%TO.C,SW47*%
X245750000Y-116250000D03*
X252250000Y-116250000D03*
X245750000Y-120750000D03*
X252250000Y-120750000D03*
%TD*%
D16*
%TO.C,RV7*%
X217250000Y-196250000D03*
D17*
X220750000Y-196250000D03*
X217250000Y-137750000D03*
D18*
X223200000Y-192100000D03*
X214800000Y-190900000D03*
X214800000Y-143100000D03*
X223200000Y-141900000D03*
%TD*%
D10*
%TO.C,SW10*%
X135750000Y-56750000D03*
X142250000Y-56750000D03*
X135750000Y-61250000D03*
X142250000Y-61250000D03*
%TD*%
D16*
%TO.C,RV4*%
X127250000Y-196250000D03*
D17*
X130750000Y-196250000D03*
X127250000Y-137750000D03*
D18*
X133200000Y-192100000D03*
X124800000Y-190900000D03*
X124800000Y-143100000D03*
X133200000Y-141900000D03*
%TD*%
D14*
%TO.C,ENC3*%
X31500000Y-100500000D03*
D10*
X31500000Y-105500000D03*
X31500000Y-103000000D03*
D15*
X39000000Y-97400000D03*
X39000000Y-108600000D03*
D10*
X46000000Y-105500000D03*
X46000000Y-100500000D03*
%TD*%
D14*
%TO.C,ENC1*%
X99500000Y-63500000D03*
D10*
X99500000Y-68500000D03*
X99500000Y-66000000D03*
D15*
X107000000Y-60400000D03*
X107000000Y-71600000D03*
D10*
X114000000Y-68500000D03*
X114000000Y-63500000D03*
%TD*%
D12*
%TO.C,FSR1*%
X37730000Y-222000000D03*
D13*
X40270000Y-222000000D03*
%TD*%
D10*
%TO.C,SW41*%
X155750000Y-116250000D03*
X162250000Y-116250000D03*
X155750000Y-120750000D03*
X162250000Y-120750000D03*
%TD*%
D12*
%TO.C,FSR14*%
X187730000Y-254000000D03*
D13*
X190270000Y-254000000D03*
%TD*%
D10*
%TO.C,SW7*%
X62750000Y-66250000D03*
X69250000Y-66250000D03*
X62750000Y-70750000D03*
X69250000Y-70750000D03*
%TD*%
D11*
%TO.C,H1*%
X26000000Y-38000000D03*
%TD*%
D10*
%TO.C,SW1*%
X31750000Y-49250000D03*
X38250000Y-49250000D03*
X31750000Y-53750000D03*
X38250000Y-53750000D03*
%TD*%
%TO.C,SW15*%
X208750000Y-42750000D03*
X215250000Y-42750000D03*
X208750000Y-47250000D03*
X215250000Y-47250000D03*
%TD*%
%TO.C,SW43*%
X185750000Y-116250000D03*
X192250000Y-116250000D03*
X185750000Y-120750000D03*
X192250000Y-120750000D03*
%TD*%
%TO.C,SW18*%
X237250000Y-42750000D03*
X243750000Y-42750000D03*
X237250000Y-47250000D03*
X243750000Y-47250000D03*
%TD*%
%TO.C,SW29*%
X264000000Y-66250000D03*
X270500000Y-66250000D03*
X264000000Y-70750000D03*
X270500000Y-70750000D03*
%TD*%
D11*
%TO.C,H4*%
X314000000Y-264000000D03*
%TD*%
D10*
%TO.C,SW42*%
X155750000Y-129750000D03*
X162250000Y-129750000D03*
X155750000Y-134250000D03*
X162250000Y-134250000D03*
%TD*%
%TO.C,SW21*%
X214250000Y-71250000D03*
X220750000Y-71250000D03*
X214250000Y-75750000D03*
X220750000Y-75750000D03*
%TD*%
%TO.C,SW45*%
X215750000Y-116250000D03*
X222250000Y-116250000D03*
X215750000Y-120750000D03*
X222250000Y-120750000D03*
%TD*%
%TO.C,SW3*%
X62750000Y-49250000D03*
X69250000Y-49250000D03*
X62750000Y-53750000D03*
X69250000Y-53750000D03*
%TD*%
%TO.C,SW61*%
X299250000Y-234750000D03*
X305750000Y-234750000D03*
X299250000Y-239250000D03*
X305750000Y-239250000D03*
%TD*%
%TO.C,SW49*%
X276250000Y-97250000D03*
X282750000Y-97250000D03*
X276250000Y-101750000D03*
X282750000Y-101750000D03*
%TD*%
D12*
%TO.C,FSR16*%
X247730000Y-254000000D03*
D13*
X250270000Y-254000000D03*
%TD*%
D14*
%TO.C,ENC8*%
X181500000Y-100500000D03*
D10*
X181500000Y-105500000D03*
X181500000Y-103000000D03*
D15*
X189000000Y-97400000D03*
X189000000Y-108600000D03*
D10*
X196000000Y-105500000D03*
X196000000Y-100500000D03*
%TD*%
D12*
%TO.C,FSR7*%
X217730000Y-222000000D03*
D13*
X220270000Y-222000000D03*
%TD*%
D12*
%TO.C,FSR11*%
X97730000Y-254000000D03*
D13*
X100270000Y-254000000D03*
%TD*%
D16*
%TO.C,RV5*%
X157250000Y-196250000D03*
D17*
X160750000Y-196250000D03*
X157250000Y-137750000D03*
D18*
X163200000Y-192100000D03*
X154800000Y-190900000D03*
X154800000Y-143100000D03*
X163200000Y-141900000D03*
%TD*%
D10*
%TO.C,SW31*%
X291000000Y-66250000D03*
X297500000Y-66250000D03*
X291000000Y-70750000D03*
X297500000Y-70750000D03*
%TD*%
D16*
%TO.C,RV6*%
X187250000Y-196250000D03*
D17*
X190750000Y-196250000D03*
X187250000Y-137750000D03*
D18*
X193200000Y-192100000D03*
X184800000Y-190900000D03*
X184800000Y-143100000D03*
X193200000Y-141900000D03*
%TD*%
D10*
%TO.C,SW11*%
X148750000Y-56750000D03*
X155250000Y-56750000D03*
X148750000Y-61250000D03*
X155250000Y-61250000D03*
%TD*%
%TO.C,SW59*%
X287750000Y-215750000D03*
X294250000Y-215750000D03*
X287750000Y-220250000D03*
X294250000Y-220250000D03*
%TD*%
D11*
%TO.C,H6*%
X264000000Y-195000000D03*
%TD*%
D10*
%TO.C,SW20*%
X200750000Y-71250000D03*
X207250000Y-71250000D03*
X200750000Y-75750000D03*
X207250000Y-75750000D03*
%TD*%
%TO.C,SW8*%
X78250000Y-66250000D03*
X84750000Y-66250000D03*
X78250000Y-70750000D03*
X84750000Y-70750000D03*
%TD*%
%TO.C,SW60*%
X276250000Y-234750000D03*
X282750000Y-234750000D03*
X276250000Y-239250000D03*
X282750000Y-239250000D03*
%TD*%
%TO.C,SW26*%
X277500000Y-49250000D03*
X284000000Y-49250000D03*
X277500000Y-53750000D03*
X284000000Y-53750000D03*
%TD*%
%TO.C,SW54*%
X276250000Y-141250000D03*
X282750000Y-141250000D03*
X276250000Y-145750000D03*
X282750000Y-145750000D03*
%TD*%
D14*
%TO.C,ENC6*%
X121500000Y-100500000D03*
D10*
X121500000Y-105500000D03*
X121500000Y-103000000D03*
D15*
X129000000Y-97400000D03*
X129000000Y-108600000D03*
D10*
X136000000Y-105500000D03*
X136000000Y-100500000D03*
%TD*%
D14*
%TO.C,ENC2*%
X173500000Y-55500000D03*
D10*
X173500000Y-60500000D03*
X173500000Y-58000000D03*
D15*
X181000000Y-52400000D03*
X181000000Y-63600000D03*
D10*
X188000000Y-60500000D03*
X188000000Y-55500000D03*
%TD*%
%TO.C,SW16*%
X208750000Y-52250000D03*
X215250000Y-52250000D03*
X208750000Y-56750000D03*
X215250000Y-56750000D03*
%TD*%
%TO.C,SW33*%
X35750000Y-116250000D03*
X42250000Y-116250000D03*
X35750000Y-120750000D03*
X42250000Y-120750000D03*
%TD*%
%TO.C,SW14*%
X148750000Y-70750000D03*
X155250000Y-70750000D03*
X148750000Y-75250000D03*
X155250000Y-75250000D03*
%TD*%
%TO.C,SW51*%
X287750000Y-109750000D03*
X294250000Y-109750000D03*
X287750000Y-114250000D03*
X294250000Y-114250000D03*
%TD*%
M02*
