%TF.GenerationSoftware,KiCad,Pcbnew,10.0.6*%
%TF.CreationDate,2026-10-03T20:53:01-05:00*%
%TF.ProjectId,deck,6465636b-2e6b-4696-9361-645f70636258,rev?*%
%TF.SameCoordinates,Original*%
%TF.FileFunction,Paste,Bot*%
%TF.FilePolarity,Positive*%
%FSLAX46Y46*%
G04 Gerber Fmt 4.6, Leading zero omitted, Abs format (unit mm)*
G04 Created by KiCad (PCBNEW 10.0.6) date 2026-10-03 20:53:01*
%MOMM*%
%LPD*%
G01*
G04 APERTURE LIST*
G04 Aperture macros list*
%AMRoundRect*
0 Rectangle with rounded corners*
0 $1 Rounding radius*
0 $2 $3 $4 $5 $6 $7 $8 $9 X,Y pos of 4 corners*
0 Add a 4 corners polygon primitive as box body*
4,1,4,$2,$3,$4,$5,$6,$7,$8,$9,$2,$3,0*
0 Add four circle primitives for the rounded corners*
1,1,$1+$1,$2,$3*
1,1,$1+$1,$4,$5*
1,1,$1+$1,$6,$7*
1,1,$1+$1,$8,$9*
0 Add four rect primitives between the rounded corners*
20,1,$1+$1,$2,$3,$4,$5,0*
20,1,$1+$1,$4,$5,$6,$7,0*
20,1,$1+$1,$6,$7,$8,$9,0*
20,1,$1+$1,$8,$9,$2,$3,0*%
G04 Aperture macros list end*
%ADD10R,0.800000X0.500000*%
%ADD11R,0.800000X0.400000*%
%ADD12RoundRect,0.250000X0.250000X0.475000X-0.250000X0.475000X-0.250000X-0.475000X0.250000X-0.475000X0*%
%ADD13RoundRect,0.205000X0.470000X0.205000X-0.470000X0.205000X-0.470000X-0.205000X0.470000X-0.205000X0*%
%ADD14RoundRect,0.225000X0.225000X0.250000X-0.225000X0.250000X-0.225000X-0.250000X0.225000X-0.250000X0*%
%ADD15RoundRect,0.225000X-0.250000X0.225000X-0.250000X-0.225000X0.250000X-0.225000X0.250000X0.225000X0*%
%ADD16RoundRect,0.150000X-0.150000X0.825000X-0.150000X-0.825000X0.150000X-0.825000X0.150000X0.825000X0*%
%ADD17RoundRect,0.205000X0.205000X-0.470000X0.205000X0.470000X-0.205000X0.470000X-0.205000X-0.470000X0*%
%ADD18RoundRect,0.200000X-0.275000X0.200000X-0.275000X-0.200000X0.275000X-0.200000X0.275000X0.200000X0*%
%ADD19RoundRect,0.150000X0.825000X0.150000X-0.825000X0.150000X-0.825000X-0.150000X0.825000X-0.150000X0*%
%ADD20RoundRect,0.200000X0.200000X0.275000X-0.200000X0.275000X-0.200000X-0.275000X0.200000X-0.275000X0*%
%ADD21R,0.500000X0.800000*%
%ADD22R,0.400000X0.800000*%
%ADD23R,2.200000X3.800000*%
%ADD24O,1.800000X1.100000*%
%ADD25R,3.800000X2.200000*%
%ADD26O,1.450000X1.050000*%
%ADD27RoundRect,0.300000X-0.450000X0.450000X-0.450000X-0.450000X0.450000X-0.450000X0.450000X0.450000X0*%
%ADD28RoundRect,0.250000X-1.000000X1.500000X-1.000000X-1.500000X1.000000X-1.500000X1.000000X1.500000X0*%
%ADD29RoundRect,0.150000X-0.150000X0.875000X-0.150000X-0.875000X0.150000X-0.875000X0.150000X0.875000X0*%
%ADD30RoundRect,0.150000X0.875000X0.150000X-0.875000X0.150000X-0.875000X-0.150000X0.875000X-0.150000X0*%
G04 APERTURE END LIST*
D10*
%TO.C,RN1*%
X53783400Y-75088500D03*
D11*
X53783400Y-75888500D03*
X53783400Y-76688500D03*
D10*
X53783400Y-77488500D03*
X51983400Y-77488500D03*
D11*
X51983400Y-76688500D03*
X51983400Y-75888500D03*
D10*
X51983400Y-75088500D03*
%TD*%
D12*
%TO.C,C77*%
X252645400Y-163511600D03*
X250745400Y-163511600D03*
%TD*%
D13*
%TO.C,D6*%
X68725000Y-61550000D03*
X68725000Y-60050000D03*
X63275000Y-60050000D03*
X63275000Y-61550000D03*
%TD*%
D14*
%TO.C,C35*%
X229128600Y-237053600D03*
X227578600Y-237053600D03*
%TD*%
%TO.C,C69*%
X180275000Y-109000000D03*
X178725000Y-109000000D03*
%TD*%
D10*
%TO.C,RN2*%
X69283400Y-75088500D03*
D11*
X69283400Y-75888500D03*
X69283400Y-76688500D03*
D10*
X69283400Y-77488500D03*
X67483400Y-77488500D03*
D11*
X67483400Y-76688500D03*
X67483400Y-75888500D03*
D10*
X67483400Y-75088500D03*
%TD*%
D14*
%TO.C,C67*%
X147455900Y-107973900D03*
X145905900Y-107973900D03*
%TD*%
D13*
%TO.C,D11*%
X141725000Y-66550000D03*
X141725000Y-65050000D03*
X136275000Y-65050000D03*
X136275000Y-66550000D03*
%TD*%
D14*
%TO.C,C24*%
X139128600Y-205053600D03*
X137578600Y-205053600D03*
%TD*%
%TO.C,C42*%
X310025000Y-242200000D03*
X308475000Y-242200000D03*
%TD*%
D15*
%TO.C,C70*%
X198500000Y-105725000D03*
X198500000Y-107275000D03*
%TD*%
D13*
%TO.C,D8*%
X141725000Y-52550000D03*
X141725000Y-51050000D03*
X136275000Y-51050000D03*
X136275000Y-52550000D03*
%TD*%
D16*
%TO.C,U16*%
X41190000Y-41325000D03*
X42460000Y-41325000D03*
X43730000Y-41325000D03*
X45000000Y-41325000D03*
X46270000Y-41325000D03*
X47540000Y-41325000D03*
X48810000Y-41325000D03*
X48810000Y-46275000D03*
X47540000Y-46275000D03*
X46270000Y-46275000D03*
X45000000Y-46275000D03*
X43730000Y-46275000D03*
X42460000Y-46275000D03*
X41190000Y-46275000D03*
%TD*%
D17*
%TO.C,D18*%
X195000000Y-134725000D03*
X196500000Y-134725000D03*
X196500000Y-129275000D03*
X195000000Y-129275000D03*
%TD*%
D14*
%TO.C,C22*%
X79128600Y-205053600D03*
X77578600Y-205053600D03*
%TD*%
D13*
%TO.C,D2*%
X68725000Y-44550000D03*
X68725000Y-43050000D03*
X63275000Y-43050000D03*
X63275000Y-44550000D03*
%TD*%
%TO.C,D4*%
X37725000Y-61550000D03*
X37725000Y-60050000D03*
X32275000Y-60050000D03*
X32275000Y-61550000D03*
%TD*%
D14*
%TO.C,C46*%
X232585900Y-56392700D03*
X231035900Y-56392700D03*
%TD*%
D18*
%TO.C,R19*%
X41000000Y-50975000D03*
X41000000Y-52625000D03*
%TD*%
D13*
%TO.C,D7*%
X128725000Y-52550000D03*
X128725000Y-51050000D03*
X123275000Y-51050000D03*
X123275000Y-52550000D03*
%TD*%
D19*
%TO.C,U8*%
X152834300Y-110719600D03*
X152834300Y-111989600D03*
X152834300Y-113259600D03*
X152834300Y-114529600D03*
X152834300Y-115799600D03*
X152834300Y-117069600D03*
X152834300Y-118339600D03*
X152834300Y-119609600D03*
X147884300Y-119609600D03*
X147884300Y-118339600D03*
X147884300Y-117069600D03*
X147884300Y-115799600D03*
X147884300Y-114529600D03*
X147884300Y-113259600D03*
X147884300Y-111989600D03*
X147884300Y-110719600D03*
%TD*%
D14*
%TO.C,C23*%
X109128600Y-205053600D03*
X107578600Y-205053600D03*
%TD*%
D19*
%TO.C,U3*%
X198912500Y-52492500D03*
X198912500Y-53762500D03*
X198912500Y-55032500D03*
X198912500Y-56302500D03*
X198912500Y-57572500D03*
X198912500Y-58842500D03*
X198912500Y-60112500D03*
X198912500Y-61382500D03*
X193962500Y-61382500D03*
X193962500Y-60112500D03*
X193962500Y-58842500D03*
X193962500Y-57572500D03*
X193962500Y-56302500D03*
X193962500Y-55032500D03*
X193962500Y-53762500D03*
X193962500Y-52492500D03*
%TD*%
D17*
%TO.C,D17*%
X165000000Y-134725000D03*
X166500000Y-134725000D03*
X166500000Y-129275000D03*
X165000000Y-129275000D03*
%TD*%
D16*
%TO.C,U5*%
X224838700Y-78883200D03*
X226108700Y-78883200D03*
X227378700Y-78883200D03*
X228648700Y-78883200D03*
X229918700Y-78883200D03*
X231188700Y-78883200D03*
X232458700Y-78883200D03*
X233728700Y-78883200D03*
X233728700Y-83833200D03*
X232458700Y-83833200D03*
X231188700Y-83833200D03*
X229918700Y-83833200D03*
X228648700Y-83833200D03*
X227378700Y-83833200D03*
X226108700Y-83833200D03*
X224838700Y-83833200D03*
%TD*%
D20*
%TO.C,R5*%
X164825000Y-222000000D03*
X163175000Y-222000000D03*
%TD*%
D10*
%TO.C,RN8*%
X238710900Y-70192700D03*
D11*
X238710900Y-70992700D03*
X238710900Y-71792700D03*
D10*
X238710900Y-72592700D03*
X236910900Y-72592700D03*
D11*
X236910900Y-71792700D03*
X236910900Y-70992700D03*
D10*
X236910900Y-70192700D03*
%TD*%
D14*
%TO.C,C9*%
X152775000Y-55500000D03*
X151225000Y-55500000D03*
%TD*%
D20*
%TO.C,R7*%
X224825000Y-222000000D03*
X223175000Y-222000000D03*
%TD*%
D19*
%TO.C,U2*%
X118825500Y-52030800D03*
X118825500Y-53300800D03*
X118825500Y-54570800D03*
X118825500Y-55840800D03*
X118825500Y-57110800D03*
X118825500Y-58380800D03*
X118825500Y-59650800D03*
X118825500Y-60920800D03*
X113875500Y-60920800D03*
X113875500Y-59650800D03*
X113875500Y-58380800D03*
X113875500Y-57110800D03*
X113875500Y-55840800D03*
X113875500Y-54570800D03*
X113875500Y-53300800D03*
X113875500Y-52030800D03*
%TD*%
D14*
%TO.C,C38*%
X310025000Y-137700000D03*
X308475000Y-137700000D03*
%TD*%
D10*
%TO.C,RN9*%
X222183700Y-80158200D03*
D11*
X222183700Y-80958200D03*
X222183700Y-81758200D03*
D10*
X222183700Y-82558200D03*
X220383700Y-82558200D03*
D11*
X220383700Y-81758200D03*
X220383700Y-80958200D03*
D10*
X220383700Y-80158200D03*
%TD*%
D14*
%TO.C,C61*%
X64775000Y-109000000D03*
X63225000Y-109000000D03*
%TD*%
D19*
%TO.C,U4*%
X234285900Y-58947700D03*
X234285900Y-60217700D03*
X234285900Y-61487700D03*
X234285900Y-62757700D03*
X234285900Y-64027700D03*
X234285900Y-65297700D03*
X234285900Y-66567700D03*
X234285900Y-67837700D03*
X229335900Y-67837700D03*
X229335900Y-66567700D03*
X229335900Y-65297700D03*
X229335900Y-64027700D03*
X229335900Y-62757700D03*
X229335900Y-61487700D03*
X229335900Y-60217700D03*
X229335900Y-58947700D03*
%TD*%
D17*
%TO.C,D39*%
X285500000Y-146225000D03*
X287000000Y-146225000D03*
X287000000Y-140775000D03*
X285500000Y-140775000D03*
%TD*%
D13*
%TO.C,D36*%
X260725000Y-234250000D03*
X260725000Y-232750000D03*
X255275000Y-232750000D03*
X255275000Y-234250000D03*
%TD*%
D20*
%TO.C,R12*%
X134825000Y-254000000D03*
X133175000Y-254000000D03*
%TD*%
%TO.C,R2*%
X74825000Y-222000000D03*
X73175000Y-222000000D03*
%TD*%
D10*
%TO.C,RN18*%
X210900000Y-109300000D03*
D11*
X210900000Y-110100000D03*
X210900000Y-110900000D03*
D10*
X210900000Y-111700000D03*
X209100000Y-111700000D03*
D11*
X209100000Y-110900000D03*
X209100000Y-110100000D03*
D10*
X209100000Y-109300000D03*
%TD*%
D20*
%TO.C,R10*%
X74825000Y-254000000D03*
X73175000Y-254000000D03*
%TD*%
%TO.C,R11*%
X104825000Y-254000000D03*
X103175000Y-254000000D03*
%TD*%
D14*
%TO.C,C62*%
X79275000Y-109000000D03*
X77725000Y-109000000D03*
%TD*%
D20*
%TO.C,R3*%
X104825000Y-222000000D03*
X103175000Y-222000000D03*
%TD*%
%TO.C,R14*%
X194825000Y-254000000D03*
X193175000Y-254000000D03*
%TD*%
D14*
%TO.C,C2*%
X66775000Y-47500000D03*
X65225000Y-47500000D03*
%TD*%
D10*
%TO.C,RN10*%
X237683700Y-80158200D03*
D11*
X237683700Y-80958200D03*
X237683700Y-81758200D03*
D10*
X237683700Y-82558200D03*
X235883700Y-82558200D03*
D11*
X235883700Y-81758200D03*
X235883700Y-80958200D03*
D10*
X235883700Y-80158200D03*
%TD*%
D16*
%TO.C,U10*%
X255305000Y-108837500D03*
X256575000Y-108837500D03*
X257845000Y-108837500D03*
X259115000Y-108837500D03*
X260385000Y-108837500D03*
X261655000Y-108837500D03*
X262925000Y-108837500D03*
X264195000Y-108837500D03*
X264195000Y-113787500D03*
X262925000Y-113787500D03*
X261655000Y-113787500D03*
X260385000Y-113787500D03*
X259115000Y-113787500D03*
X257845000Y-113787500D03*
X256575000Y-113787500D03*
X255305000Y-113787500D03*
%TD*%
D15*
%TO.C,C64*%
X106000000Y-112555100D03*
X106000000Y-114105100D03*
%TD*%
D17*
%TO.C,D40*%
X308500000Y-146225000D03*
X310000000Y-146225000D03*
X310000000Y-140775000D03*
X308500000Y-140775000D03*
%TD*%
D14*
%TO.C,C1*%
X35775000Y-47500000D03*
X34225000Y-47500000D03*
%TD*%
%TO.C,C66*%
X139275000Y-109000000D03*
X137725000Y-109000000D03*
%TD*%
D15*
%TO.C,C75*%
X155182300Y-219578600D03*
X155182300Y-221128600D03*
%TD*%
D10*
%TO.C,RN7*%
X226710900Y-62192700D03*
D11*
X226710900Y-62992700D03*
X226710900Y-63792700D03*
D10*
X226710900Y-64592700D03*
X224910900Y-64592700D03*
D11*
X224910900Y-63792700D03*
X224910900Y-62992700D03*
D10*
X224910900Y-62192700D03*
%TD*%
D14*
%TO.C,C36*%
X259128600Y-237053600D03*
X257578600Y-237053600D03*
%TD*%
%TO.C,C13*%
X46525000Y-137200000D03*
X44975000Y-137200000D03*
%TD*%
D20*
%TO.C,R18*%
X300825000Y-191000000D03*
X299175000Y-191000000D03*
%TD*%
D15*
%TO.C,C47*%
X230283700Y-73583200D03*
X230283700Y-75133200D03*
%TD*%
D17*
%TO.C,D16*%
X135000000Y-134725000D03*
X136500000Y-134725000D03*
X136500000Y-129275000D03*
X135000000Y-129275000D03*
%TD*%
D19*
%TO.C,U11*%
X295475000Y-143805000D03*
X295475000Y-145075000D03*
X295475000Y-146345000D03*
X295475000Y-147615000D03*
X295475000Y-148885000D03*
X295475000Y-150155000D03*
X295475000Y-151425000D03*
X295475000Y-152695000D03*
X290525000Y-152695000D03*
X290525000Y-151425000D03*
X290525000Y-150155000D03*
X290525000Y-148885000D03*
X290525000Y-147615000D03*
X290525000Y-146345000D03*
X290525000Y-145075000D03*
X290525000Y-143805000D03*
%TD*%
D14*
%TO.C,C7*%
X126775000Y-55500000D03*
X125225000Y-55500000D03*
%TD*%
D20*
%TO.C,R1*%
X44825000Y-222000000D03*
X43175000Y-222000000D03*
%TD*%
D13*
%TO.C,D27*%
X230725000Y-202250000D03*
X230725000Y-200750000D03*
X225275000Y-200750000D03*
X225275000Y-202250000D03*
%TD*%
D10*
%TO.C,RN20*%
X268150000Y-110112500D03*
D11*
X268150000Y-110912500D03*
X268150000Y-111712500D03*
D10*
X268150000Y-112512500D03*
X266350000Y-112512500D03*
D11*
X266350000Y-111712500D03*
X266350000Y-110912500D03*
D10*
X266350000Y-110112500D03*
%TD*%
D20*
%TO.C,R8*%
X254825000Y-222000000D03*
X253175000Y-222000000D03*
%TD*%
D13*
%TO.C,D3*%
X84225000Y-44550000D03*
X84225000Y-43050000D03*
X78775000Y-43050000D03*
X78775000Y-44550000D03*
%TD*%
%TO.C,D12*%
X154725000Y-66550000D03*
X154725000Y-65050000D03*
X149275000Y-65050000D03*
X149275000Y-66550000D03*
%TD*%
D17*
%TO.C,D38*%
X308500000Y-135225000D03*
X310000000Y-135225000D03*
X310000000Y-129775000D03*
X308500000Y-129775000D03*
%TD*%
D13*
%TO.C,D1*%
X37725000Y-44550000D03*
X37725000Y-43050000D03*
X32275000Y-43050000D03*
X32275000Y-44550000D03*
%TD*%
D20*
%TO.C,R4*%
X134825000Y-222000000D03*
X133175000Y-222000000D03*
%TD*%
D14*
%TO.C,C29*%
X49128600Y-237053600D03*
X47578600Y-237053600D03*
%TD*%
D13*
%TO.C,D24*%
X140725000Y-202250000D03*
X140725000Y-200750000D03*
X135275000Y-200750000D03*
X135275000Y-202250000D03*
%TD*%
D17*
%TO.C,D37*%
X285500000Y-135225000D03*
X287000000Y-135225000D03*
X287000000Y-129775000D03*
X285500000Y-129775000D03*
%TD*%
D14*
%TO.C,C45*%
X197212500Y-49937500D03*
X195662500Y-49937500D03*
%TD*%
D10*
%TO.C,RN5*%
X190814900Y-50764900D03*
D11*
X190814900Y-51564900D03*
X190814900Y-52364900D03*
D10*
X190814900Y-53164900D03*
X189014900Y-53164900D03*
D11*
X189014900Y-52364900D03*
X189014900Y-51564900D03*
D10*
X189014900Y-50764900D03*
%TD*%
D14*
%TO.C,C12*%
X152775000Y-69500000D03*
X151225000Y-69500000D03*
%TD*%
D21*
%TO.C,RN4*%
X117531400Y-63266800D03*
D22*
X118331400Y-63266800D03*
X119131400Y-63266800D03*
D21*
X119931400Y-63266800D03*
X119931400Y-65066800D03*
D22*
X119131400Y-65066800D03*
X118331400Y-65066800D03*
D21*
X117531400Y-65066800D03*
%TD*%
D14*
%TO.C,C15*%
X106525000Y-137200000D03*
X104975000Y-137200000D03*
%TD*%
%TO.C,C57*%
X172275000Y-64000000D03*
X170725000Y-64000000D03*
%TD*%
%TO.C,C18*%
X196525000Y-137200000D03*
X194975000Y-137200000D03*
%TD*%
D10*
%TO.C,RN17*%
X198900000Y-109300000D03*
D11*
X198900000Y-110100000D03*
X198900000Y-110900000D03*
D10*
X198900000Y-111700000D03*
X197100000Y-111700000D03*
D11*
X197100000Y-110900000D03*
X197100000Y-110100000D03*
D10*
X197100000Y-109300000D03*
%TD*%
D14*
%TO.C,C40*%
X310025000Y-148700000D03*
X308475000Y-148700000D03*
%TD*%
%TO.C,C48*%
X58525000Y-107125000D03*
X56975000Y-107125000D03*
%TD*%
%TO.C,C3*%
X82275000Y-47500000D03*
X80725000Y-47500000D03*
%TD*%
%TO.C,C34*%
X199128600Y-237053600D03*
X197578600Y-237053600D03*
%TD*%
D13*
%TO.C,D31*%
X110725000Y-234250000D03*
X110725000Y-232750000D03*
X105275000Y-232750000D03*
X105275000Y-234250000D03*
%TD*%
D14*
%TO.C,C21*%
X49128600Y-205053600D03*
X47578600Y-205053600D03*
%TD*%
%TO.C,C11*%
X139775000Y-69500000D03*
X138225000Y-69500000D03*
%TD*%
%TO.C,C10*%
X126775000Y-69500000D03*
X125225000Y-69500000D03*
%TD*%
D13*
%TO.C,D34*%
X200725000Y-234250000D03*
X200725000Y-232750000D03*
X195275000Y-232750000D03*
X195275000Y-234250000D03*
%TD*%
D23*
%TO.C,U15*%
X291937200Y-167155400D03*
X289397200Y-167155400D03*
X286857200Y-167155400D03*
X284317200Y-167155400D03*
X281777200Y-167155400D03*
X279237200Y-167155400D03*
X276697200Y-167155400D03*
X274157200Y-167155400D03*
X271617200Y-167155400D03*
X269077200Y-167155400D03*
X266537200Y-167155400D03*
X263997200Y-167155400D03*
X261457200Y-167155400D03*
X258917200Y-167155400D03*
X256377200Y-167155400D03*
X253837200Y-167155400D03*
X251297200Y-167155400D03*
X248757200Y-167155400D03*
X246217200Y-167155400D03*
X243677200Y-167155400D03*
D24*
X243807200Y-174120400D03*
D25*
X292507200Y-174305400D03*
D26*
X246837200Y-174420400D03*
D25*
X292507200Y-176845400D03*
D26*
X246837200Y-179270400D03*
D25*
X292507200Y-179385400D03*
D24*
X243807200Y-179570400D03*
D23*
X291937200Y-186535400D03*
X289397200Y-186535400D03*
X286857200Y-186535400D03*
X284317200Y-186535400D03*
X281777200Y-186535400D03*
X279237200Y-186535400D03*
X276697200Y-186535400D03*
X274157200Y-186535400D03*
X271617200Y-186535400D03*
X269077200Y-186535400D03*
X266537200Y-186535400D03*
X263997200Y-186535400D03*
X261457200Y-186535400D03*
X258917200Y-186535400D03*
X256377200Y-186535400D03*
X253837200Y-186535400D03*
X251297200Y-186535400D03*
X248757200Y-186535400D03*
X246217200Y-186535400D03*
X243677200Y-186535400D03*
D27*
X246807200Y-176845400D03*
X243507200Y-177845400D03*
X243507200Y-175845400D03*
X250307200Y-174345400D03*
X252807200Y-174345400D03*
X255307200Y-174345400D03*
%TD*%
D15*
%TO.C,C71*%
X213000000Y-108225000D03*
X213000000Y-109775000D03*
%TD*%
D14*
%TO.C,C72*%
X229275000Y-109000000D03*
X227725000Y-109000000D03*
%TD*%
D10*
%TO.C,RN16*%
X157259300Y-111464600D03*
D11*
X157259300Y-112264600D03*
X157259300Y-113064600D03*
D10*
X157259300Y-113864600D03*
X155459300Y-113864600D03*
D11*
X155459300Y-113064600D03*
X155459300Y-112264600D03*
D10*
X155459300Y-111464600D03*
%TD*%
D20*
%TO.C,R17*%
X300825000Y-188000000D03*
X299175000Y-188000000D03*
%TD*%
D13*
%TO.C,D21*%
X50725000Y-202250000D03*
X50725000Y-200750000D03*
X45275000Y-200750000D03*
X45275000Y-202250000D03*
%TD*%
D14*
%TO.C,C17*%
X166525000Y-137200000D03*
X164975000Y-137200000D03*
%TD*%
D10*
%TO.C,RN22*%
X300960700Y-148110700D03*
D11*
X300960700Y-148910700D03*
X300960700Y-149710700D03*
D10*
X300960700Y-150510700D03*
X299160700Y-150510700D03*
D11*
X299160700Y-149710700D03*
X299160700Y-148910700D03*
D10*
X299160700Y-148110700D03*
%TD*%
%TO.C,RN21*%
X287900000Y-151050000D03*
D11*
X287900000Y-151850000D03*
X287900000Y-152650000D03*
D10*
X287900000Y-153450000D03*
X286100000Y-153450000D03*
D11*
X286100000Y-152650000D03*
X286100000Y-151850000D03*
D10*
X286100000Y-151050000D03*
%TD*%
D20*
%TO.C,R13*%
X164825000Y-254000000D03*
X163175000Y-254000000D03*
%TD*%
D10*
%TO.C,RN3*%
X111250500Y-55275800D03*
D11*
X111250500Y-56075800D03*
X111250500Y-56875800D03*
D10*
X111250500Y-57675800D03*
X109450500Y-57675800D03*
D11*
X109450500Y-56875800D03*
X109450500Y-56075800D03*
D10*
X109450500Y-55275800D03*
%TD*%
D14*
%TO.C,C73*%
X240275000Y-109000000D03*
X238725000Y-109000000D03*
%TD*%
D17*
%TO.C,D13*%
X45000000Y-134725000D03*
X46500000Y-134725000D03*
X46500000Y-129275000D03*
X45000000Y-129275000D03*
%TD*%
D13*
%TO.C,D25*%
X170725000Y-202250000D03*
X170725000Y-200750000D03*
X165275000Y-200750000D03*
X165275000Y-202250000D03*
%TD*%
D14*
%TO.C,C58*%
X191275000Y-64000000D03*
X189725000Y-64000000D03*
%TD*%
D13*
%TO.C,D22*%
X80725000Y-202250000D03*
X80725000Y-200750000D03*
X75275000Y-200750000D03*
X75275000Y-202250000D03*
%TD*%
D19*
%TO.C,U12*%
X302225000Y-214055000D03*
X302225000Y-215325000D03*
X302225000Y-216595000D03*
X302225000Y-217865000D03*
X302225000Y-219135000D03*
X302225000Y-220405000D03*
X302225000Y-221675000D03*
X302225000Y-222945000D03*
X297275000Y-222945000D03*
X297275000Y-221675000D03*
X297275000Y-220405000D03*
X297275000Y-219135000D03*
X297275000Y-217865000D03*
X297275000Y-216595000D03*
X297275000Y-215325000D03*
X297275000Y-214055000D03*
%TD*%
D20*
%TO.C,R16*%
X254825000Y-254000000D03*
X253175000Y-254000000D03*
%TD*%
D10*
%TO.C,RN6*%
X203337500Y-55737500D03*
D11*
X203337500Y-56537500D03*
X203337500Y-57337500D03*
D10*
X203337500Y-58137500D03*
X201537500Y-58137500D03*
D11*
X201537500Y-57337500D03*
X201537500Y-56537500D03*
D10*
X201537500Y-55737500D03*
%TD*%
D19*
%TO.C,U7*%
X114225000Y-104117500D03*
X114225000Y-105387500D03*
X114225000Y-106657500D03*
X114225000Y-107927500D03*
X114225000Y-109197500D03*
X114225000Y-110467500D03*
X114225000Y-111737500D03*
X114225000Y-113007500D03*
X109275000Y-113007500D03*
X109275000Y-111737500D03*
X109275000Y-110467500D03*
X109275000Y-109197500D03*
X109275000Y-107927500D03*
X109275000Y-106657500D03*
X109275000Y-105387500D03*
X109275000Y-104117500D03*
%TD*%
D14*
%TO.C,C30*%
X79128600Y-237053600D03*
X77578600Y-237053600D03*
%TD*%
D15*
%TO.C,C78*%
X45000000Y-58025000D03*
X45000000Y-59575000D03*
%TD*%
D14*
%TO.C,C51*%
X204775000Y-103500000D03*
X203225000Y-103500000D03*
%TD*%
D20*
%TO.C,R15*%
X224825000Y-254000000D03*
X223175000Y-254000000D03*
%TD*%
D13*
%TO.C,D26*%
X200725000Y-202250000D03*
X200725000Y-200750000D03*
X195275000Y-200750000D03*
X195275000Y-202250000D03*
%TD*%
D28*
%TO.C,C79*%
X55000000Y-39050000D03*
X55000000Y-45550000D03*
%TD*%
D17*
%TO.C,D42*%
X308500000Y-239725000D03*
X310000000Y-239725000D03*
X310000000Y-234275000D03*
X308500000Y-234275000D03*
%TD*%
D15*
%TO.C,C43*%
X60176300Y-69220600D03*
X60176300Y-70770600D03*
%TD*%
D10*
%TO.C,RN15*%
X145259300Y-113964600D03*
D11*
X145259300Y-114764600D03*
X145259300Y-115564600D03*
D10*
X145259300Y-116364600D03*
X143459300Y-116364600D03*
D11*
X143459300Y-115564600D03*
X143459300Y-114764600D03*
D10*
X143459300Y-113964600D03*
%TD*%
D14*
%TO.C,C8*%
X139775000Y-55500000D03*
X138225000Y-55500000D03*
%TD*%
%TO.C,C26*%
X199128600Y-205053600D03*
X197578600Y-205053600D03*
%TD*%
D13*
%TO.C,D29*%
X50725000Y-234250000D03*
X50725000Y-232750000D03*
X45275000Y-232750000D03*
X45275000Y-234250000D03*
%TD*%
D15*
%TO.C,C65*%
X121000000Y-108225000D03*
X121000000Y-109775000D03*
%TD*%
D14*
%TO.C,C63*%
X90275000Y-109000000D03*
X88725000Y-109000000D03*
%TD*%
%TO.C,C37*%
X287025000Y-137700000D03*
X285475000Y-137700000D03*
%TD*%
%TO.C,C32*%
X139128600Y-237053600D03*
X137578600Y-237053600D03*
%TD*%
D13*
%TO.C,D10*%
X128725000Y-66550000D03*
X128725000Y-65050000D03*
X123275000Y-65050000D03*
X123275000Y-66550000D03*
%TD*%
D14*
%TO.C,C4*%
X35775000Y-64500000D03*
X34225000Y-64500000D03*
%TD*%
%TO.C,C33*%
X169128600Y-237053600D03*
X167578600Y-237053600D03*
%TD*%
%TO.C,C56*%
X117275000Y-72000000D03*
X115725000Y-72000000D03*
%TD*%
D17*
%TO.C,D20*%
X255000000Y-134725000D03*
X256500000Y-134725000D03*
X256500000Y-129275000D03*
X255000000Y-129275000D03*
%TD*%
D14*
%TO.C,C6*%
X66775000Y-64500000D03*
X65225000Y-64500000D03*
%TD*%
D13*
%TO.C,D35*%
X230725000Y-234250000D03*
X230725000Y-232750000D03*
X225275000Y-232750000D03*
X225275000Y-234250000D03*
%TD*%
D14*
%TO.C,C52*%
X260525000Y-104312500D03*
X258975000Y-104312500D03*
%TD*%
%TO.C,C16*%
X136525000Y-137200000D03*
X134975000Y-137200000D03*
%TD*%
%TO.C,C5*%
X51275000Y-64500000D03*
X49725000Y-64500000D03*
%TD*%
%TO.C,C14*%
X76525000Y-137200000D03*
X74975000Y-137200000D03*
%TD*%
%TO.C,C27*%
X229128600Y-205053600D03*
X227578600Y-205053600D03*
%TD*%
D10*
%TO.C,RN12*%
X64650000Y-111425000D03*
D11*
X64650000Y-112225000D03*
X64650000Y-113025000D03*
D10*
X64650000Y-113825000D03*
X62850000Y-113825000D03*
D11*
X62850000Y-113025000D03*
X62850000Y-112225000D03*
D10*
X62850000Y-111425000D03*
%TD*%
D14*
%TO.C,C25*%
X169128600Y-205053600D03*
X167578600Y-205053600D03*
%TD*%
D13*
%TO.C,D28*%
X260725000Y-202250000D03*
X260725000Y-200750000D03*
X255275000Y-200750000D03*
X255275000Y-202250000D03*
%TD*%
D29*
%TO.C,U13*%
X148550900Y-225350000D03*
X149820900Y-225350000D03*
X151090900Y-225350000D03*
X152360900Y-225350000D03*
X153630900Y-225350000D03*
X154900900Y-225350000D03*
X156170900Y-225350000D03*
X157440900Y-225350000D03*
X158710900Y-225350000D03*
X159980900Y-225350000D03*
X161250900Y-225350000D03*
X162520900Y-225350000D03*
X162520900Y-234650000D03*
X161250900Y-234650000D03*
X159980900Y-234650000D03*
X158710900Y-234650000D03*
X157440900Y-234650000D03*
X156170900Y-234650000D03*
X154900900Y-234650000D03*
X153630900Y-234650000D03*
X152360900Y-234650000D03*
X151090900Y-234650000D03*
X149820900Y-234650000D03*
X148550900Y-234650000D03*
%TD*%
D13*
%TO.C,D33*%
X170725000Y-234250000D03*
X170725000Y-232750000D03*
X165275000Y-232750000D03*
X165275000Y-234250000D03*
%TD*%
%TO.C,D5*%
X53225000Y-61550000D03*
X53225000Y-60050000D03*
X47775000Y-60050000D03*
X47775000Y-61550000D03*
%TD*%
D10*
%TO.C,RN14*%
X118650000Y-107362500D03*
D11*
X118650000Y-108162500D03*
X118650000Y-108962500D03*
D10*
X118650000Y-109762500D03*
X116850000Y-109762500D03*
D11*
X116850000Y-108962500D03*
X116850000Y-108162500D03*
D10*
X116850000Y-107362500D03*
%TD*%
D14*
%TO.C,C76*%
X159775000Y-155000000D03*
X158225000Y-155000000D03*
%TD*%
%TO.C,C20*%
X256525000Y-137200000D03*
X254975000Y-137200000D03*
%TD*%
%TO.C,C54*%
X300525000Y-211500000D03*
X298975000Y-211500000D03*
%TD*%
%TO.C,C44*%
X117125500Y-49475800D03*
X115575500Y-49475800D03*
%TD*%
%TO.C,C50*%
X151134300Y-108164600D03*
X149584300Y-108164600D03*
%TD*%
D19*
%TO.C,U9*%
X206475000Y-106055000D03*
X206475000Y-107325000D03*
X206475000Y-108595000D03*
X206475000Y-109865000D03*
X206475000Y-111135000D03*
X206475000Y-112405000D03*
X206475000Y-113675000D03*
X206475000Y-114945000D03*
X201525000Y-114945000D03*
X201525000Y-113675000D03*
X201525000Y-112405000D03*
X201525000Y-111135000D03*
X201525000Y-109865000D03*
X201525000Y-108595000D03*
X201525000Y-107325000D03*
X201525000Y-106055000D03*
%TD*%
D10*
%TO.C,RN13*%
X106650000Y-107862500D03*
D11*
X106650000Y-108662500D03*
X106650000Y-109462500D03*
D10*
X106650000Y-110262500D03*
X104850000Y-110262500D03*
D11*
X104850000Y-109462500D03*
X104850000Y-108662500D03*
D10*
X104850000Y-107862500D03*
%TD*%
D14*
%TO.C,C60*%
X49275000Y-109000000D03*
X47725000Y-109000000D03*
%TD*%
D13*
%TO.C,D23*%
X110725000Y-202250000D03*
X110725000Y-200750000D03*
X105275000Y-200750000D03*
X105275000Y-202250000D03*
%TD*%
D10*
%TO.C,RN19*%
X251830900Y-111138600D03*
D11*
X251830900Y-111938600D03*
X251830900Y-112738600D03*
D10*
X251830900Y-113538600D03*
X250030900Y-113538600D03*
D11*
X250030900Y-112738600D03*
X250030900Y-111938600D03*
D10*
X250030900Y-111138600D03*
%TD*%
D14*
%TO.C,C59*%
X30275000Y-109000000D03*
X28725000Y-109000000D03*
%TD*%
D19*
%TO.C,U6*%
X60225000Y-109680000D03*
X60225000Y-110950000D03*
X60225000Y-112220000D03*
X60225000Y-113490000D03*
X60225000Y-114760000D03*
X60225000Y-116030000D03*
X60225000Y-117300000D03*
X60225000Y-118570000D03*
X55275000Y-118570000D03*
X55275000Y-117300000D03*
X55275000Y-116030000D03*
X55275000Y-114760000D03*
X55275000Y-113490000D03*
X55275000Y-112220000D03*
X55275000Y-110950000D03*
X55275000Y-109680000D03*
%TD*%
D13*
%TO.C,D9*%
X154725000Y-52550000D03*
X154725000Y-51050000D03*
X149275000Y-51050000D03*
X149275000Y-52550000D03*
%TD*%
D15*
%TO.C,C74*%
X252861800Y-106172900D03*
X252861800Y-107722900D03*
%TD*%
D14*
%TO.C,C39*%
X287025000Y-148700000D03*
X285475000Y-148700000D03*
%TD*%
D17*
%TO.C,D15*%
X105000000Y-134725000D03*
X106500000Y-134725000D03*
X106500000Y-129275000D03*
X105000000Y-129275000D03*
%TD*%
D14*
%TO.C,C68*%
X169275000Y-109000000D03*
X167725000Y-109000000D03*
%TD*%
%TO.C,C49*%
X112525000Y-101562500D03*
X110975000Y-101562500D03*
%TD*%
D13*
%TO.C,D30*%
X80725000Y-234250000D03*
X80725000Y-232750000D03*
X75275000Y-232750000D03*
X75275000Y-234250000D03*
%TD*%
D20*
%TO.C,R9*%
X44825000Y-254000000D03*
X43175000Y-254000000D03*
%TD*%
D17*
%TO.C,D14*%
X75000000Y-134725000D03*
X76500000Y-134725000D03*
X76500000Y-129275000D03*
X75000000Y-129275000D03*
%TD*%
D10*
%TO.C,RN23*%
X294650000Y-222800000D03*
D11*
X294650000Y-223600000D03*
X294650000Y-224400000D03*
D10*
X294650000Y-225200000D03*
X292850000Y-225200000D03*
D11*
X292850000Y-224400000D03*
X292850000Y-223600000D03*
D10*
X292850000Y-222800000D03*
%TD*%
D14*
%TO.C,C55*%
X98275000Y-72000000D03*
X96725000Y-72000000D03*
%TD*%
D17*
%TO.C,D41*%
X285500000Y-239725000D03*
X287000000Y-239725000D03*
X287000000Y-234275000D03*
X285500000Y-234275000D03*
%TD*%
D14*
%TO.C,C53*%
X293775000Y-141250000D03*
X292225000Y-141250000D03*
%TD*%
D13*
%TO.C,D32*%
X140725000Y-234250000D03*
X140725000Y-232750000D03*
X135275000Y-232750000D03*
X135275000Y-234250000D03*
%TD*%
D14*
%TO.C,C28*%
X259128600Y-205053600D03*
X257578600Y-205053600D03*
%TD*%
D20*
%TO.C,R6*%
X194825000Y-222000000D03*
X193175000Y-222000000D03*
%TD*%
D30*
%TO.C,U14*%
X163650000Y-158015000D03*
X163650000Y-159285000D03*
X163650000Y-160555000D03*
X163650000Y-161825000D03*
X163650000Y-163095000D03*
X163650000Y-164365000D03*
X163650000Y-165635000D03*
X163650000Y-166905000D03*
X163650000Y-168175000D03*
X163650000Y-169445000D03*
X163650000Y-170715000D03*
X163650000Y-171985000D03*
X154350000Y-171985000D03*
X154350000Y-170715000D03*
X154350000Y-169445000D03*
X154350000Y-168175000D03*
X154350000Y-166905000D03*
X154350000Y-165635000D03*
X154350000Y-164365000D03*
X154350000Y-163095000D03*
X154350000Y-161825000D03*
X154350000Y-160555000D03*
X154350000Y-159285000D03*
X154350000Y-158015000D03*
%TD*%
D16*
%TO.C,U1*%
X56438400Y-73813500D03*
X57708400Y-73813500D03*
X58978400Y-73813500D03*
X60248400Y-73813500D03*
X61518400Y-73813500D03*
X62788400Y-73813500D03*
X64058400Y-73813500D03*
X65328400Y-73813500D03*
X65328400Y-78763500D03*
X64058400Y-78763500D03*
X62788400Y-78763500D03*
X61518400Y-78763500D03*
X60248400Y-78763500D03*
X58978400Y-78763500D03*
X57708400Y-78763500D03*
X56438400Y-78763500D03*
%TD*%
D17*
%TO.C,D19*%
X225000000Y-134725000D03*
X226500000Y-134725000D03*
X226500000Y-129275000D03*
X225000000Y-129275000D03*
%TD*%
D14*
%TO.C,C31*%
X109128600Y-237053600D03*
X107578600Y-237053600D03*
%TD*%
D10*
%TO.C,RN11*%
X52650000Y-112925000D03*
D11*
X52650000Y-113725000D03*
X52650000Y-114525000D03*
D10*
X52650000Y-115325000D03*
X50850000Y-115325000D03*
D11*
X50850000Y-114525000D03*
X50850000Y-113725000D03*
D10*
X50850000Y-112925000D03*
%TD*%
D14*
%TO.C,C41*%
X287025000Y-242200000D03*
X285475000Y-242200000D03*
%TD*%
%TO.C,C19*%
X226525000Y-137200000D03*
X224975000Y-137200000D03*
%TD*%
M02*
