M48
; DRILL file KiCad 10.0.6 date 2026-10-03T20:53:01
; FORMAT={-:-/ absolute / metric / decimal}
; #@! TF.CreationDate,2026-10-03T20:53:01-05:00
; #@! TF.GenerationSoftware,Kicad,Pcbnew,10.0.6
; #@! TF.FileFunction,Plated,1,2,PTH
FMAT,2
METRIC
; #@! TA.AperFunction,Plated,PTH,ViaDrill
T1C0.300
; #@! TA.AperFunction,Plated,PTH,ComponentDrill
T2C1.000
; #@! TA.AperFunction,Plated,PTH,ComponentDrill
T3C1.100
; #@! TA.AperFunction,Plated,PTH,ComponentDrill
T4C1.200
; #@! TA.AperFunction,Plated,PTH,ComponentDrill
T5C1.500
; #@! TA.AperFunction,Plated,PTH,ComponentDrill
T6C1.700
%
G90
G05
T1
X24.95Y-44.95
X24.95Y-52.95
X24.95Y-60.95
X24.95Y-68.95
X24.95Y-76.95
X24.95Y-84.95
X24.95Y-92.95
X24.95Y-100.95
X24.95Y-108.95
X24.95Y-116.95
X24.95Y-124.95
X24.95Y-132.95
X24.95Y-140.95
X24.95Y-148.95
X24.95Y-156.95
X24.95Y-164.95
X24.95Y-172.95
X24.95Y-180.95
X24.95Y-188.95
X24.95Y-196.95
X24.95Y-204.95
X24.95Y-212.95
X24.95Y-220.95
X24.95Y-228.95
X24.95Y-236.95
X24.95Y-244.95
X24.95Y-252.95
X24.95Y-260.95
X31.211Y-57.871
X32.275Y-45.52
X32.372Y-58.557
X32.95Y-36.95
X32.95Y-76.95
X32.95Y-84.95
X32.95Y-92.95
X32.95Y-116.95
X32.95Y-124.95
X32.95Y-132.95
X32.95Y-140.95
X32.95Y-148.95
X32.95Y-156.95
X32.95Y-164.95
X32.95Y-172.95
X32.95Y-180.95
X32.95Y-196.95
X32.95Y-204.95
X32.95Y-212.95
X32.95Y-220.95
X32.95Y-228.95
X32.95Y-236.95
X32.95Y-244.95
X32.95Y-252.95
X32.95Y-260.95
X35.775Y-65.51
X37.725Y-58.534
X39.341Y-43.657
X39.765Y-48.131
X40.95Y-36.95
X40.95Y-76.95
X40.95Y-84.95
X40.95Y-92.95
X40.95Y-124.95
X40.95Y-140.95
X40.95Y-148.95
X40.95Y-156.95
X40.95Y-164.95
X40.95Y-172.95
X40.95Y-180.95
X40.95Y-188.95
X40.95Y-204.95
X40.95Y-212.95
X40.95Y-228.95
X40.95Y-236.95
X40.95Y-244.95
X40.95Y-260.95
X41.0Y-47.771
X42.46Y-39.38
X43.73Y-39.835
X45.0Y-128.064
X45.275Y-199.837
X45.275Y-203.213
X45.275Y-231.816
X45.275Y-235.192
X45.866Y-113.076
X46.27Y-44.046
X47.775Y-62.475
X48.156Y-134.472
X48.95Y-36.95
X48.95Y-52.95
X48.95Y-76.95
X48.95Y-84.95
X48.95Y-92.95
X48.95Y-100.95
X48.95Y-124.95
X48.95Y-140.95
X48.95Y-148.95
X48.95Y-156.95
X48.95Y-164.95
X48.95Y-172.95
X48.95Y-180.95
X48.95Y-196.95
X48.95Y-228.95
X48.95Y-244.95
X48.95Y-252.95
X48.95Y-260.95
X49.129Y-206.063
X49.129Y-238.055
X49.433Y-112.135
X49.925Y-113.076
X49.928Y-115.28
X50.725Y-203.427
X50.725Y-229.497
X51.275Y-65.51
X52.227Y-112.135
X53.149Y-74.356
X53.225Y-57.871
X53.768Y-111.858
X53.913Y-78.763
X53.959Y-115.377
X54.686Y-76.16
X54.734Y-77.135
X55.0Y-41.314
X55.275Y-119.39
X56.078Y-76.957
X56.552Y-114.134
X56.95Y-36.95
X56.95Y-44.95
X56.95Y-52.95
X56.95Y-60.95
X56.95Y-124.95
X56.95Y-132.95
X56.95Y-148.95
X56.95Y-156.95
X56.95Y-164.95
X56.95Y-172.95
X56.95Y-188.95
X56.95Y-196.95
X56.95Y-212.95
X56.95Y-244.95
X56.95Y-252.95
X56.95Y-260.95
X57.179Y-114.651
X58.249Y-115.484
X58.36Y-76.957
X58.742Y-110.752
X58.946Y-112.864
X59.133Y-75.297
X59.605Y-77.481
X59.886Y-108.837
X61.223Y-71.414
X61.518Y-77.283
X62.257Y-57.493
X62.788Y-76.448
X62.788Y-77.27
X63.275Y-46.117
X63.275Y-59.12
X63.923Y-115.386
X64.339Y-76.507
X64.855Y-75.88
X64.95Y-36.95
X64.95Y-68.95
X64.95Y-84.95
X64.95Y-92.95
X64.95Y-100.95
X64.95Y-124.95
X64.95Y-140.95
X64.95Y-148.95
X64.95Y-156.95
X64.95Y-164.95
X64.95Y-180.95
X64.95Y-212.95
X64.95Y-244.95
X64.95Y-252.95
X64.95Y-260.95
X65.566Y-111.425
X66.775Y-65.478
X66.814Y-110.319
X68.21Y-79.13
X68.557Y-74.266
X68.725Y-38.73
X68.725Y-58.476
X69.369Y-128.086
X70.189Y-77.278
X70.204Y-75.664
X71.214Y-72.676
X71.343Y-71.635
X72.95Y-36.95
X72.95Y-44.95
X72.95Y-52.95
X72.95Y-60.95
X72.95Y-68.95
X72.95Y-92.95
X72.95Y-100.95
X72.95Y-124.95
X72.95Y-148.95
X72.95Y-156.95
X72.95Y-164.95
X72.95Y-172.95
X72.95Y-180.95
X72.95Y-188.95
X72.95Y-212.95
X72.95Y-260.95
X75.0Y-128.09
X75.275Y-199.825
X75.275Y-204.058
X75.275Y-231.836
X75.275Y-235.248
X77.278Y-135.639
X78.775Y-46.58
X79.129Y-206.066
X79.129Y-238.048
X79.275Y-104.172
X79.742Y-48.48
X80.389Y-139.578
X80.725Y-199.161
X80.725Y-203.427
X80.725Y-231.15
X80.95Y-36.95
X80.95Y-52.95
X80.95Y-60.95
X80.95Y-68.95
X80.95Y-92.95
X80.95Y-140.95
X80.95Y-148.95
X80.95Y-156.95
X80.95Y-164.95
X80.95Y-172.95
X80.95Y-180.95
X80.95Y-188.95
X80.95Y-196.95
X80.95Y-212.95
X80.95Y-236.95
X80.95Y-244.95
X80.95Y-252.95
X80.95Y-260.95
X82.275Y-48.48
X84.312Y-41.45
X88.725Y-107.977
X88.95Y-36.95
X88.95Y-44.95
X88.95Y-60.95
X88.95Y-68.95
X88.95Y-92.95
X88.95Y-100.95
X88.95Y-116.95
X88.95Y-124.95
X88.95Y-132.95
X88.95Y-140.95
X88.95Y-148.95
X88.95Y-156.95
X88.95Y-164.95
X88.95Y-172.95
X88.95Y-180.95
X88.95Y-188.95
X88.95Y-212.95
X88.95Y-236.95
X88.95Y-244.95
X88.95Y-252.95
X88.95Y-260.95
X90.275Y-108.002
X96.95Y-36.95
X96.95Y-44.95
X96.95Y-52.95
X96.95Y-60.95
X96.95Y-92.95
X96.95Y-100.95
X96.95Y-140.95
X96.95Y-148.95
X96.95Y-156.95
X96.95Y-164.95
X96.95Y-172.95
X96.95Y-180.95
X96.95Y-188.95
X96.95Y-212.95
X96.95Y-236.95
X96.95Y-244.95
X96.95Y-260.95
X102.484Y-112.897
X104.148Y-50.697
X104.95Y-36.95
X104.95Y-44.95
X104.95Y-52.95
X104.95Y-116.95
X104.95Y-124.95
X104.95Y-148.95
X104.95Y-212.95
X104.95Y-236.95
X104.95Y-244.95
X104.95Y-260.95
X105.0Y-128.089
X105.275Y-199.833
X105.275Y-203.242
X105.275Y-231.8
X105.275Y-235.224
X106.072Y-111.259
X107.382Y-107.191
X107.431Y-135.289
X107.475Y-110.831
X109.129Y-206.038
X109.129Y-238.035
X109.362Y-114.172
X110.049Y-68.5
X110.574Y-107.3
X110.724Y-203.426
X110.725Y-199.18
X110.786Y-108.965
X110.827Y-231.144
X111.547Y-59.841
X111.923Y-111.769
X112.168Y-58.277
X112.177Y-55.956
X112.578Y-53.927
X112.95Y-36.95
X112.95Y-44.95
X112.95Y-92.95
X112.95Y-116.95
X112.95Y-124.95
X112.95Y-156.95
X112.95Y-164.95
X112.95Y-172.95
X112.95Y-180.95
X112.95Y-188.95
X112.95Y-204.95
X112.95Y-212.95
X112.95Y-220.95
X112.95Y-244.95
X112.95Y-252.95
X112.95Y-260.95
X113.361Y-65.514
X113.875Y-61.759
X115.354Y-58.383
X115.369Y-55.533
X115.504Y-106.032
X115.584Y-109.832
X116.21Y-105.603
X116.909Y-50.466
X116.996Y-110.518
X117.275Y-70.982
X117.386Y-117.831
X117.546Y-55.215
X117.546Y-56.485
X119.218Y-62.346
X120.114Y-57.755
X120.159Y-59.081
X120.264Y-108.996
X120.284Y-122.087
X120.642Y-63.977
X120.95Y-36.95
X120.95Y-44.95
X120.95Y-52.95
X120.95Y-76.95
X120.95Y-92.95
X120.95Y-116.95
X120.95Y-124.95
X120.95Y-140.95
X120.95Y-148.95
X120.95Y-156.95
X120.95Y-164.95
X120.95Y-172.95
X120.95Y-180.95
X120.95Y-188.95
X120.95Y-196.95
X120.95Y-204.95
X120.95Y-212.95
X120.95Y-220.95
X120.95Y-244.95
X120.95Y-252.95
X120.95Y-260.95
X123.275Y-47.237
X123.275Y-53.478
X123.275Y-62.773
X123.275Y-67.502
X126.016Y-54.741
X127.175Y-132.965
X128.855Y-49.484
X128.95Y-36.95
X128.95Y-44.95
X128.95Y-76.95
X128.95Y-92.95
X128.95Y-100.95
X128.95Y-124.95
X128.95Y-140.95
X128.95Y-148.95
X128.95Y-156.95
X128.95Y-164.95
X128.95Y-172.95
X128.95Y-180.95
X128.95Y-188.95
X128.95Y-196.95
X128.95Y-204.95
X128.95Y-212.95
X128.95Y-244.95
X128.95Y-260.95
X132.123Y-62.773
X133.175Y-224.146
X133.983Y-253.317
X134.514Y-51.251
X135.0Y-128.09
X135.275Y-203.195
X135.275Y-231.821
X135.275Y-235.226
X136.179Y-68.164
X136.275Y-50.115
X136.525Y-138.664
X136.95Y-36.95
X136.95Y-44.95
X136.95Y-76.95
X136.95Y-92.95
X136.95Y-148.95
X136.95Y-156.95
X136.95Y-164.95
X136.95Y-172.95
X136.95Y-180.95
X136.95Y-188.95
X136.95Y-196.95
X136.95Y-212.95
X136.95Y-220.95
X136.95Y-244.95
X136.95Y-260.95
X137.07Y-248.965
X137.42Y-134.783
X137.936Y-250.624
X139.129Y-206.057
X139.129Y-238.077
X139.275Y-108.013
X139.775Y-56.479
X140.725Y-231.177
X140.807Y-199.147
X141.725Y-50.1
X141.725Y-63.477
X142.27Y-115.888
X144.95Y-36.95
X144.95Y-44.95
X144.95Y-52.95
X144.95Y-124.95
X144.95Y-132.95
X144.95Y-140.95
X144.95Y-148.95
X144.95Y-156.95
X144.95Y-164.95
X144.95Y-172.95
X144.95Y-188.95
X144.95Y-196.95
X144.95Y-204.95
X144.95Y-212.95
X144.95Y-220.95
X144.95Y-236.95
X144.95Y-260.95
X145.279Y-118.057
X146.246Y-115.927
X146.389Y-114.276
X146.397Y-116.919
X147.884Y-122.087
X148.057Y-65.025
X148.551Y-222.639
X148.551Y-226.906
X149.16Y-118.984
X149.275Y-50.094
X149.821Y-222.663
X150.028Y-118.344
X150.379Y-107.393
X151.091Y-223.671
X151.545Y-115.155
X151.556Y-111.345
X152.361Y-223.044
X152.775Y-56.487
X152.775Y-70.518
X152.834Y-109.891
X152.95Y-36.95
X152.95Y-44.95
X152.95Y-76.95
X152.95Y-92.95
X152.95Y-124.95
X152.95Y-132.95
X152.95Y-140.95
X152.95Y-148.95
X152.95Y-156.95
X152.95Y-172.95
X152.95Y-180.95
X152.95Y-196.95
X152.95Y-204.95
X152.95Y-212.95
X152.95Y-220.95
X152.95Y-244.95
X152.95Y-260.95
X153.007Y-168.787
X154.34Y-115.504
X154.35Y-157.199
X154.35Y-176.716
X154.725Y-48.979
X154.725Y-63.484
X154.965Y-107.37
X155.182Y-223.811
X155.683Y-159.929
X156.171Y-223.798
X157.274Y-172.165
X157.441Y-227.535
X158.18Y-112.459
X158.188Y-114.066
X158.711Y-228.162
X159.005Y-113.907
X159.442Y-236.925
X159.775Y-157.199
X159.964Y-238.739
X160.842Y-166.984
X160.95Y-36.95
X160.95Y-44.95
X160.95Y-52.95
X160.95Y-60.95
X160.95Y-68.95
X160.95Y-76.95
X160.95Y-92.95
X160.95Y-100.95
X160.95Y-124.95
X160.95Y-140.95
X160.95Y-148.95
X160.95Y-156.95
X160.95Y-180.95
X160.95Y-188.95
X160.95Y-204.95
X160.95Y-212.95
X160.95Y-260.95
X162.09Y-166.523
X162.275Y-167.57
X162.327Y-171.359
X162.538Y-242.582
X163.65Y-172.798
X164.02Y-109.263
X164.974Y-168.801
X165.19Y-159.285
X165.275Y-203.185
X165.275Y-235.816
X165.742Y-128.29
X166.525Y-138.946
X167.32Y-135.582
X167.442Y-172.165
X168.95Y-36.95
X168.95Y-44.95
X168.95Y-52.95
X168.95Y-60.95
X168.95Y-68.95
X168.95Y-76.95
X168.95Y-92.95
X168.95Y-116.95
X168.95Y-124.95
X168.95Y-140.95
X168.95Y-148.95
X168.95Y-156.95
X168.95Y-172.95
X168.95Y-180.95
X168.95Y-188.95
X168.95Y-196.95
X168.95Y-244.95
X168.95Y-252.95
X168.95Y-260.95
X169.129Y-206.132
X169.275Y-107.27
X170.088Y-176.716
X170.725Y-65.021
X170.725Y-199.191
X170.725Y-203.199
X171.516Y-231.833
X176.95Y-36.95
X176.95Y-44.95
X176.95Y-52.95
X176.95Y-68.95
X176.95Y-76.95
X176.95Y-100.95
X176.95Y-116.95
X176.95Y-124.95
X176.95Y-132.95
X176.95Y-140.95
X176.95Y-148.95
X176.95Y-156.95
X176.95Y-164.95
X176.95Y-180.95
X176.95Y-188.95
X176.95Y-204.95
X176.95Y-212.95
X176.95Y-244.95
X176.95Y-252.95
X176.95Y-260.95
X180.161Y-106.317
X184.95Y-36.95
X184.95Y-44.95
X184.95Y-52.95
X184.95Y-60.95
X184.95Y-76.95
X184.95Y-92.95
X184.95Y-124.95
X184.95Y-148.95
X184.95Y-156.95
X184.95Y-172.95
X184.95Y-204.95
X184.95Y-212.95
X184.95Y-244.95
X184.95Y-252.95
X184.95Y-260.95
X185.426Y-110.009
X186.441Y-55.126
X189.89Y-53.649
X189.97Y-62.114
X190.795Y-62.177
X191.037Y-55.5
X191.721Y-52.154
X191.964Y-55.467
X192.728Y-63.348
X192.95Y-36.95
X192.95Y-44.95
X192.95Y-68.95
X192.95Y-76.95
X192.95Y-92.95
X192.95Y-108.95
X192.95Y-124.95
X192.95Y-148.95
X192.95Y-156.95
X192.95Y-164.95
X192.95Y-180.95
X192.95Y-188.95
X192.95Y-196.95
X192.95Y-260.95
X195.0Y-128.072
X195.275Y-199.828
X195.275Y-203.264
X195.275Y-235.203
X195.452Y-52.712
X195.48Y-60.447
X195.662Y-48.96
X196.373Y-113.018
X196.5Y-127.632
X196.525Y-138.945
X196.966Y-54.936
X197.354Y-135.579
X197.606Y-54.407
X197.719Y-177.65
X198.173Y-108.482
X198.173Y-112.337
X198.912Y-66.25
X199.129Y-206.094
X200.605Y-58.343
X200.725Y-199.181
X200.95Y-36.95
X200.95Y-44.95
X200.95Y-68.95
X200.95Y-92.95
X200.95Y-124.95
X200.95Y-132.95
X200.95Y-140.95
X200.95Y-148.95
X200.95Y-156.95
X200.95Y-164.95
X200.95Y-172.95
X200.95Y-188.95
X200.95Y-196.95
X200.95Y-204.95
X200.95Y-212.95
X200.95Y-220.95
X200.95Y-244.95
X200.95Y-252.95
X200.95Y-260.95
X201.521Y-231.838
X201.525Y-118.984
X202.806Y-107.96
X203.0Y-109.426
X203.016Y-110.768
X203.274Y-114.771
X204.242Y-58.316
X204.775Y-83.323
X204.866Y-112.337
X204.982Y-107.325
X205.196Y-110.491
X207.961Y-77.404
X207.961Y-106.529
X208.197Y-109.927
X208.95Y-36.95
X208.95Y-44.95
X208.95Y-92.95
X208.95Y-124.95
X208.95Y-132.95
X208.95Y-140.95
X208.95Y-148.95
X208.95Y-156.95
X208.95Y-164.95
X208.95Y-172.95
X208.95Y-180.95
X208.95Y-196.95
X208.95Y-204.95
X208.95Y-212.95
X208.95Y-220.95
X208.95Y-244.95
X208.95Y-252.95
X208.95Y-260.95
X213.674Y-110.625
X216.95Y-36.95
X216.95Y-44.95
X216.95Y-52.95
X216.95Y-92.95
X216.95Y-124.95
X216.95Y-140.95
X216.95Y-148.95
X216.95Y-156.95
X216.95Y-164.95
X216.95Y-172.95
X216.95Y-180.95
X216.95Y-188.95
X216.95Y-204.95
X216.95Y-212.95
X216.95Y-244.95
X216.95Y-260.95
X218.118Y-59.559
X221.11Y-83.323
X223.088Y-80.367
X223.21Y-81.885
X223.692Y-80.913
X224.007Y-64.769
X224.839Y-77.404
X224.95Y-36.95
X224.95Y-44.95
X224.95Y-52.95
X224.95Y-92.95
X224.95Y-116.95
X224.95Y-124.95
X224.95Y-148.95
X224.95Y-156.95
X224.95Y-164.95
X224.95Y-172.95
X224.95Y-180.95
X224.95Y-188.95
X224.95Y-196.95
X224.95Y-212.95
X224.95Y-244.95
X224.95Y-260.95
X225.275Y-199.803
X225.275Y-203.232
X225.275Y-236.11
X225.752Y-128.305
X225.888Y-108.193
X226.074Y-80.903
X226.444Y-61.345
X226.5Y-135.915
X227.16Y-65.435
X227.339Y-127.632
X227.519Y-80.365
X227.833Y-61.556
X228.014Y-99.173
X228.501Y-109.774
X228.649Y-80.373
X228.649Y-82.356
X229.129Y-206.043
X229.919Y-81.483
X229.919Y-82.352
X230.625Y-67.212
X230.697Y-63.48
X230.725Y-199.164
X230.725Y-231.821
X231.189Y-82.35
X232.459Y-85.355
X232.586Y-58.313
X232.95Y-36.95
X232.95Y-44.95
X232.95Y-92.95
X232.95Y-108.95
X232.95Y-116.95
X232.95Y-124.95
X232.95Y-140.95
X232.95Y-148.95
X232.95Y-156.95
X232.95Y-164.95
X232.95Y-172.95
X232.95Y-180.95
X232.95Y-188.95
X232.95Y-204.95
X232.95Y-212.95
X232.95Y-244.95
X232.95Y-252.95
X232.95Y-260.95
X233.001Y-59.575
X233.094Y-82.546
X235.583Y-64.687
X236.867Y-74.172
X237.045Y-64.028
X238.375Y-79.467
X238.604Y-80.439
X238.728Y-81.483
X239.616Y-72.771
X240.95Y-36.95
X240.95Y-44.95
X240.95Y-60.95
X240.95Y-84.95
X240.95Y-92.95
X240.95Y-116.95
X240.95Y-124.95
X240.95Y-140.95
X240.95Y-148.95
X240.95Y-156.95
X240.95Y-164.95
X240.95Y-172.95
X240.95Y-180.95
X240.95Y-196.95
X240.95Y-204.95
X240.95Y-212.95
X240.95Y-236.95
X240.95Y-252.95
X240.95Y-260.95
X247.79Y-159.382
X248.908Y-229.497
X248.95Y-36.95
X248.95Y-44.95
X248.95Y-52.95
X248.95Y-60.95
X248.95Y-68.95
X248.95Y-84.95
X248.95Y-92.95
X248.95Y-124.95
X248.95Y-140.95
X248.95Y-148.95
X248.95Y-156.95
X248.95Y-180.95
X248.95Y-196.95
X248.95Y-204.95
X248.95Y-212.95
X248.95Y-236.95
X248.95Y-244.95
X248.95Y-260.95
X250.359Y-165.421
X250.658Y-118.02
X252.138Y-119.248
X252.421Y-105.169
X252.522Y-162.274
X252.755Y-110.276
X252.758Y-113.335
X252.902Y-126.997
X252.955Y-203.209
X253.445Y-111.102
X253.618Y-112.464
X253.665Y-164.313
X254.293Y-149.043
X254.899Y-117.166
X255.275Y-203.209
X255.275Y-231.837
X255.946Y-107.526
X255.946Y-115.951
X256.923Y-103.597
X256.95Y-36.95
X256.95Y-44.95
X256.95Y-52.95
X256.95Y-60.95
X256.95Y-76.95
X256.95Y-84.95
X256.95Y-92.95
X256.95Y-124.95
X256.95Y-156.95
X256.95Y-172.95
X256.95Y-180.95
X256.95Y-196.95
X256.95Y-228.95
X256.95Y-244.95
X256.95Y-252.95
X256.95Y-260.95
X257.283Y-137.958
X257.354Y-135.579
X258.107Y-112.3
X258.917Y-148.229
X259.115Y-107.107
X259.115Y-111.667
X259.129Y-206.06
X259.129Y-238.037
X260.383Y-111.821
X260.385Y-111.017
X260.725Y-199.805
X260.725Y-235.427
X260.861Y-231.178
X261.018Y-119.367
X261.457Y-188.655
X261.655Y-111.372
X261.657Y-110.344
X262.496Y-169.11
X263.555Y-115.135
X263.997Y-169.915
X263.997Y-179.03
X264.95Y-36.95
X264.95Y-44.95
X264.95Y-60.95
X264.95Y-76.95
X264.95Y-84.95
X264.95Y-92.95
X264.95Y-100.95
X264.95Y-124.95
X264.95Y-132.95
X264.95Y-140.95
X264.95Y-156.95
X264.95Y-172.95
X264.95Y-180.95
X264.95Y-204.95
X264.95Y-212.95
X264.95Y-220.95
X264.95Y-228.95
X264.95Y-236.95
X264.95Y-244.95
X264.95Y-252.95
X264.95Y-260.95
X265.401Y-111.956
X266.537Y-171.359
X266.537Y-219.397
X267.941Y-109.315
X268.845Y-107.107
X269.077Y-172.165
X269.638Y-111.438
X271.617Y-176.716
X272.95Y-36.95
X272.95Y-44.95
X272.95Y-52.95
X272.95Y-60.95
X272.95Y-76.95
X272.95Y-84.95
X272.95Y-92.95
X272.95Y-108.95
X272.95Y-116.95
X272.95Y-124.95
X272.95Y-132.95
X272.95Y-140.95
X272.95Y-156.95
X272.95Y-172.95
X272.95Y-180.95
X272.95Y-196.95
X272.95Y-204.95
X272.95Y-212.95
X272.95Y-220.95
X272.95Y-228.95
X272.95Y-236.95
X272.95Y-244.95
X272.95Y-252.95
X272.95Y-260.95
X274.157Y-188.654
X274.229Y-136.437
X280.454Y-39.399
X280.936Y-149.739
X280.95Y-36.95
X280.95Y-172.95
X280.95Y-180.95
X280.95Y-196.95
X280.95Y-204.95
X280.95Y-212.95
X280.95Y-220.95
X280.95Y-228.95
X280.95Y-236.95
X280.95Y-244.95
X280.95Y-252.95
X280.95Y-260.95
X284.421Y-156.447
X284.684Y-139.888
X285.373Y-154.108
X285.5Y-128.583
X286.857Y-184.414
X287.0Y-136.437
X287.443Y-147.572
X287.848Y-242.901
X287.924Y-140.576
X288.328Y-147.427
X288.653Y-239.502
X288.95Y-36.95
X288.95Y-44.95
X288.95Y-52.95
X288.95Y-60.95
X288.95Y-76.95
X288.95Y-84.95
X288.95Y-92.95
X288.95Y-100.95
X288.95Y-156.95
X288.95Y-196.95
X288.95Y-204.95
X288.95Y-228.95
X288.95Y-244.95
X288.95Y-252.95
X288.95Y-260.95
X289.047Y-149.739
X290.525Y-153.508
X290.594Y-127.079
X291.404Y-121.352
X291.819Y-143.151
X291.938Y-225.422
X292.022Y-151.425
X292.123Y-222.167
X293.632Y-147.092
X295.475Y-159.659
X295.475Y-142.992
X295.668Y-223.436
X296.755Y-148.259
X296.95Y-36.95
X296.95Y-44.95
X296.95Y-60.95
X296.95Y-68.95
X296.95Y-76.95
X296.95Y-84.95
X296.95Y-92.95
X296.95Y-100.95
X296.95Y-108.95
X296.95Y-116.95
X296.95Y-124.95
X296.95Y-204.95
X296.95Y-212.95
X296.95Y-228.95
X296.95Y-236.95
X296.95Y-244.95
X296.95Y-252.95
X296.95Y-260.95
X297.132Y-151.182
X298.554Y-218.509
X298.56Y-222.318
X298.572Y-217.239
X298.741Y-221.242
X301.687Y-151.182
X301.881Y-148.259
X302.736Y-163.094
X303.038Y-223.758
X303.368Y-233.386
X304.004Y-152.126
X304.95Y-36.95
X304.95Y-44.95
X304.95Y-60.95
X304.95Y-68.95
X304.95Y-76.95
X304.95Y-84.95
X304.95Y-92.95
X304.95Y-108.95
X304.95Y-116.95
X304.95Y-124.95
X304.95Y-132.95
X304.95Y-148.95
X304.95Y-164.95
X304.95Y-172.95
X304.95Y-212.95
X304.95Y-220.95
X304.95Y-228.95
X304.95Y-236.95
X304.95Y-244.95
X304.95Y-252.95
X304.95Y-260.95
X308.5Y-121.352
X308.5Y-138.687
X310.0Y-233.095
X310.783Y-136.126
X310.792Y-241.433
X310.935Y-146.225
X311.59Y-146.946
X312.233Y-138.647
X312.95Y-44.95
X312.95Y-52.95
X312.95Y-60.95
X312.95Y-68.95
X312.95Y-76.95
X312.95Y-84.95
X312.95Y-92.95
X312.95Y-100.95
X312.95Y-108.95
X312.95Y-116.95
X312.95Y-124.95
X312.95Y-132.95
X312.95Y-228.95
X312.95Y-236.95
X312.95Y-244.95
X312.95Y-252.95
X312.95Y-260.95
T2
X31.5Y-100.5
X31.5Y-103.0
X31.5Y-105.5
X37.73Y-222.0
X37.73Y-254.0
X40.27Y-222.0
X40.27Y-254.0
X46.0Y-100.5
X46.0Y-105.5
X61.5Y-100.5
X61.5Y-103.0
X61.5Y-105.5
X67.73Y-222.0
X67.73Y-254.0
X70.27Y-222.0
X70.27Y-254.0
X76.0Y-100.5
X76.0Y-105.5
X91.5Y-100.5
X91.5Y-103.0
X91.5Y-105.5
X97.73Y-222.0
X97.73Y-254.0
X99.5Y-63.5
X99.5Y-66.0
X99.5Y-68.5
X100.27Y-222.0
X100.27Y-254.0
X106.0Y-100.5
X106.0Y-105.5
X114.0Y-63.5
X114.0Y-68.5
X121.5Y-100.5
X121.5Y-103.0
X121.5Y-105.5
X127.73Y-222.0
X127.73Y-254.0
X130.27Y-222.0
X130.27Y-254.0
X136.0Y-100.5
X136.0Y-105.5
X151.5Y-100.5
X151.5Y-103.0
X151.5Y-105.5
X157.73Y-222.0
X157.73Y-254.0
X160.27Y-222.0
X160.27Y-254.0
X166.0Y-100.5
X166.0Y-105.5
X173.5Y-55.5
X173.5Y-58.0
X173.5Y-60.5
X181.5Y-100.5
X181.5Y-103.0
X181.5Y-105.5
X187.73Y-222.0
X187.73Y-254.0
X188.0Y-55.5
X188.0Y-60.5
X190.27Y-222.0
X190.27Y-254.0
X196.0Y-100.5
X196.0Y-105.5
X211.5Y-100.5
X211.5Y-103.0
X211.5Y-105.5
X217.73Y-222.0
X217.73Y-254.0
X220.27Y-222.0
X220.27Y-254.0
X226.0Y-100.5
X226.0Y-105.5
X241.5Y-100.5
X241.5Y-103.0
X241.5Y-105.5
X247.73Y-222.0
X247.73Y-254.0
X250.27Y-222.0
X250.27Y-254.0
X256.0Y-100.5
X256.0Y-105.5
X296.19Y-182.0
X298.73Y-182.0
X301.27Y-182.0
X303.81Y-182.0
T3
X31.75Y-49.25
X31.75Y-53.75
X31.75Y-66.25
X31.75Y-70.75
X35.75Y-116.25
X35.75Y-120.75
X35.75Y-129.75
X35.75Y-134.25
X38.25Y-49.25
X38.25Y-53.75
X38.25Y-66.25
X38.25Y-70.75
X42.25Y-116.25
X42.25Y-120.75
X42.25Y-129.75
X42.25Y-134.25
X47.25Y-49.25
X47.25Y-53.75
X47.25Y-66.25
X47.25Y-70.75
X53.75Y-49.25
X53.75Y-53.75
X53.75Y-66.25
X53.75Y-70.75
X62.75Y-49.25
X62.75Y-53.75
X62.75Y-66.25
X62.75Y-70.75
X65.75Y-116.25
X65.75Y-120.75
X65.75Y-129.75
X65.75Y-134.25
X69.25Y-49.25
X69.25Y-53.75
X69.25Y-66.25
X69.25Y-70.75
X72.25Y-116.25
X72.25Y-120.75
X72.25Y-129.75
X72.25Y-134.25
X78.25Y-49.25
X78.25Y-53.75
X78.25Y-66.25
X78.25Y-70.75
X84.75Y-49.25
X84.75Y-53.75
X84.75Y-66.25
X84.75Y-70.75
X95.75Y-116.25
X95.75Y-120.75
X95.75Y-129.75
X95.75Y-134.25
X102.25Y-116.25
X102.25Y-120.75
X102.25Y-129.75
X102.25Y-134.25
X122.75Y-56.75
X122.75Y-61.25
X122.75Y-70.75
X122.75Y-75.25
X125.75Y-116.25
X125.75Y-120.75
X125.75Y-129.75
X125.75Y-134.25
X129.25Y-56.75
X129.25Y-61.25
X129.25Y-70.75
X129.25Y-75.25
X132.25Y-116.25
X132.25Y-120.75
X132.25Y-129.75
X132.25Y-134.25
X135.75Y-56.75
X135.75Y-61.25
X135.75Y-70.75
X135.75Y-75.25
X142.25Y-56.75
X142.25Y-61.25
X142.25Y-70.75
X142.25Y-75.25
X148.75Y-56.75
X148.75Y-61.25
X148.75Y-70.75
X148.75Y-75.25
X155.25Y-56.75
X155.25Y-61.25
X155.25Y-70.75
X155.25Y-75.25
X155.75Y-116.25
X155.75Y-120.75
X155.75Y-129.75
X155.75Y-134.25
X162.25Y-116.25
X162.25Y-120.75
X162.25Y-129.75
X162.25Y-134.25
X185.75Y-116.25
X185.75Y-120.75
X185.75Y-129.75
X185.75Y-134.25
X192.25Y-116.25
X192.25Y-120.75
X192.25Y-129.75
X192.25Y-134.25
X200.75Y-71.25
X200.75Y-75.75
X207.25Y-71.25
X207.25Y-75.75
X208.75Y-42.75
X208.75Y-47.25
X208.75Y-52.25
X208.75Y-56.75
X208.75Y-61.75
X208.75Y-66.25
X214.25Y-71.25
X214.25Y-75.75
X215.25Y-42.75
X215.25Y-47.25
X215.25Y-52.25
X215.25Y-56.75
X215.25Y-61.75
X215.25Y-66.25
X215.75Y-116.25
X215.75Y-120.75
X215.75Y-129.75
X215.75Y-134.25
X220.75Y-71.25
X220.75Y-75.75
X222.25Y-116.25
X222.25Y-120.75
X222.25Y-129.75
X222.25Y-134.25
X227.75Y-71.25
X227.75Y-75.75
X234.25Y-71.25
X234.25Y-75.75
X237.25Y-42.75
X237.25Y-47.25
X237.25Y-52.25
X237.25Y-56.75
X237.25Y-61.75
X237.25Y-66.25
X241.25Y-71.25
X241.25Y-75.75
X243.75Y-42.75
X243.75Y-47.25
X243.75Y-52.25
X243.75Y-56.75
X243.75Y-61.75
X243.75Y-66.25
X245.75Y-116.25
X245.75Y-120.75
X245.75Y-129.75
X245.75Y-134.25
X247.75Y-71.25
X247.75Y-75.75
X252.25Y-116.25
X252.25Y-120.75
X252.25Y-129.75
X252.25Y-134.25
X264.0Y-49.25
X264.0Y-53.75
X264.0Y-66.25
X264.0Y-70.75
X270.5Y-49.25
X270.5Y-53.75
X270.5Y-66.25
X270.5Y-70.75
X276.25Y-97.25
X276.25Y-101.75
X276.25Y-130.25
X276.25Y-134.75
X276.25Y-141.25
X276.25Y-145.75
X276.25Y-156.25
X276.25Y-160.75
X276.25Y-234.75
X276.25Y-239.25
X277.5Y-49.25
X277.5Y-53.75
X277.5Y-66.25
X277.5Y-70.75
X282.75Y-97.25
X282.75Y-101.75
X282.75Y-130.25
X282.75Y-134.75
X282.75Y-141.25
X282.75Y-145.75
X282.75Y-156.25
X282.75Y-160.75
X282.75Y-234.75
X282.75Y-239.25
X284.0Y-49.25
X284.0Y-53.75
X284.0Y-66.25
X284.0Y-70.75
X287.75Y-109.75
X287.75Y-114.25
X287.75Y-202.75
X287.75Y-207.25
X287.75Y-215.75
X287.75Y-220.25
X291.0Y-49.25
X291.0Y-53.75
X291.0Y-66.25
X291.0Y-70.75
X294.25Y-109.75
X294.25Y-114.25
X294.25Y-202.75
X294.25Y-207.25
X294.25Y-215.75
X294.25Y-220.25
X297.5Y-49.25
X297.5Y-53.75
X297.5Y-66.25
X297.5Y-70.75
X299.25Y-97.25
X299.25Y-101.75
X299.25Y-130.25
X299.25Y-134.75
X299.25Y-141.25
X299.25Y-145.75
X299.25Y-156.25
X299.25Y-160.75
X299.25Y-234.75
X299.25Y-239.25
X304.5Y-49.25
X304.5Y-53.75
X304.5Y-66.25
X304.5Y-70.75
X305.75Y-97.25
X305.75Y-101.75
X305.75Y-130.25
X305.75Y-134.75
X305.75Y-141.25
X305.75Y-145.75
X305.75Y-156.25
X305.75Y-160.75
X305.75Y-234.75
X305.75Y-239.25
X311.0Y-49.25
X311.0Y-53.75
X311.0Y-66.25
X311.0Y-70.75
T4
X37.25Y-137.75
X37.25Y-196.25
X40.75Y-196.25
X67.25Y-137.75
X67.25Y-196.25
X70.75Y-196.25
X97.25Y-137.75
X97.25Y-196.25
X100.75Y-196.25
X127.25Y-137.75
X127.25Y-196.25
X130.75Y-196.25
X157.25Y-137.75
X157.25Y-196.25
X160.75Y-196.25
X187.25Y-137.75
X187.25Y-196.25
X190.75Y-196.25
X217.25Y-137.75
X217.25Y-196.25
X220.75Y-196.25
X247.25Y-137.75
X247.25Y-196.25
X250.75Y-196.25
T6
X34.8Y-143.1
X34.8Y-190.9
X43.2Y-141.9
X43.2Y-192.1
X64.8Y-143.1
X64.8Y-190.9
X73.2Y-141.9
X73.2Y-192.1
X94.8Y-143.1
X94.8Y-190.9
X103.2Y-141.9
X103.2Y-192.1
X124.8Y-143.1
X124.8Y-190.9
X133.2Y-141.9
X133.2Y-192.1
X154.8Y-143.1
X154.8Y-190.9
X163.2Y-141.9
X163.2Y-192.1
X184.8Y-143.1
X184.8Y-190.9
X193.2Y-141.9
X193.2Y-192.1
X214.8Y-143.1
X214.8Y-190.9
X223.2Y-141.9
X223.2Y-192.1
X244.8Y-143.1
X244.8Y-190.9
X253.2Y-141.9
X253.2Y-192.1
T5
X38.35Y-97.4G85X39.65Y-97.4
G05
X38.35Y-108.6G85X39.65Y-108.6
G05
X68.35Y-97.4G85X69.65Y-97.4
G05
X68.35Y-108.6G85X69.65Y-108.6
G05
X98.35Y-97.4G85X99.65Y-97.4
G05
X98.35Y-108.6G85X99.65Y-108.6
G05
X106.35Y-60.4G85X107.65Y-60.4
G05
X106.35Y-71.6G85X107.65Y-71.6
G05
X128.35Y-97.4G85X129.65Y-97.4
G05
X128.35Y-108.6G85X129.65Y-108.6
G05
X158.35Y-97.4G85X159.65Y-97.4
G05
X158.35Y-108.6G85X159.65Y-108.6
G05
X180.35Y-52.4G85X181.65Y-52.4
G05
X180.35Y-63.6G85X181.65Y-63.6
G05
X188.35Y-97.4G85X189.65Y-97.4
G05
X188.35Y-108.6G85X189.65Y-108.6
G05
X218.35Y-97.4G85X219.65Y-97.4
G05
X218.35Y-108.6G85X219.65Y-108.6
G05
X248.35Y-97.4G85X249.65Y-97.4
G05
X248.35Y-108.6G85X249.65Y-108.6
G05
M30
